<svg width="52" height="52" viewBox="0 0 52 52" fill="none" xmlns="http://www.w3.org/2000/svg">
<circle cx="26" cy="26" r="26" transform="rotate(-180 26 26)" fill="#1E3749" fill-opacity="0.8"/>
<path d="M25.5 22L26.1727 21.2601C25.7913 20.9133 25.2088 20.9133 24.8273 21.2601L25.5 22ZM30.3273 27.7399C30.736 28.1114 31.3684 28.0813 31.7399 27.6727C32.1114 27.264 32.0813 26.6316 31.6727 26.2601L30.3273 27.7399ZM19.3273 26.2601C18.9187 26.6316 18.8886 27.264 19.2601 27.6727C19.6316 28.0813 20.264 28.1114 20.6727 27.7399L19.3273 26.2601ZM24.8273 22.7399L30.3273 27.7399L31.6727 26.2601L26.1727 21.2601L24.8273 22.7399ZM20.6727 27.7399L26.1727 22.7399L24.8273 21.2601L19.3273 26.2601L20.6727 27.7399Z" fill="white"/>
</svg>
