<svg width="614" height="424" viewBox="0 0 614 424" fill="none" xmlns="http://www.w3.org/2000/svg">
<path d="M614 382.5C614 386.09 592.21 389 565.331 389C538.451 389 516.662 386.09 516.662 382.5C516.662 378.91 538.451 376 565.331 376C592.21 376 614 378.91 614 382.5Z" fill="#CEE9F3"/>
<path d="M588.385 376.5C588.385 380.09 569.271 383 545.692 383C522.114 383 503 380.09 503 376.5C503 372.91 522.114 370 545.692 370C569.271 370 588.385 372.91 588.385 376.5Z" fill="#CEE9F3"/>
<path d="M141 378.538C141 382.15 123.494 385.077 101.899 385.077C80.3044 385.077 62.7983 382.15 62.7983 378.538C62.7983 374.927 80.3044 372 101.899 372C123.494 372 141 374.927 141 378.538Z" fill="#CEE9F3"/>
<path d="M78.2017 382.462C78.2017 386.073 60.6956 389 39.1008 389C17.506 389 0 386.073 0 382.462C0 378.85 17.506 375.923 39.1008 375.923C60.6956 375.923 78.2017 378.85 78.2017 382.462Z" fill="#CEE9F3"/>
<path d="M466.657 13.1667V377.972C466.657 382.004 463.398 385.272 459.377 385.272H436.163C435.896 385.272 435.679 385.055 435.679 384.787V376.458C435.679 375.615 434.991 374.924 434.15 374.924H416.908C416.067 374.924 415.379 375.615 415.379 376.458V384.787C415.379 385.055 415.162 385.272 414.895 385.272H210.467C210.2 385.272 209.983 385.055 209.983 384.787V376.458C209.983 375.614 209.296 374.924 208.444 374.924H191.213C190.371 374.924 189.683 375.615 189.683 376.458V384.787C189.683 385.055 189.466 385.272 189.199 385.272H165.985C161.958 385.272 158.705 382.001 158.705 377.972V13.1667C158.705 9.13539 161.964 5.86707 165.985 5.86707H459.377C463.395 5.86707 466.657 9.12859 466.657 13.1667Z" fill="#AFCFDC" stroke="#1E3749" stroke-width="1.5" stroke-miterlimit="10"/>
<path d="M189.337 25.2809H158.37C156.91 25.2809 155.726 24.0938 155.726 22.63V9.79254C155.726 5.339 159.326 1.72803 163.769 1.72803H189.337C190.797 1.72803 191.981 2.91518 191.981 4.37899V22.63C191.981 24.0938 190.797 25.2809 189.337 25.2809Z" fill="#91BFD2" stroke="#1E3749" stroke-width="1.5" stroke-miterlimit="10"/>
<path d="M436.376 25.2809H467.918C469.219 25.2809 470.274 24.2229 470.274 22.9182V9.79254C470.274 5.339 466.674 1.72803 462.231 1.72803H436.375C435.074 1.72803 434.019 2.78608 434.019 4.09069V22.9182C434.02 24.2229 435.074 25.2809 436.376 25.2809Z" fill="#91BFD2" stroke="#1E3749" stroke-width="1.5" stroke-miterlimit="10"/>
<path d="M452.339 362.74H173.024C170.908 362.74 169.194 361.021 169.194 358.9V37.8679C169.194 35.7469 170.908 34.0278 173.024 34.0278H452.338C454.453 34.0278 456.167 35.7469 456.167 37.8679V358.9C456.168 361.021 454.453 362.74 452.339 362.74Z" fill="white" stroke="#1E3749" stroke-width="1.5" stroke-miterlimit="10"/>
<path d="M456.774 358.901V362.745C456.774 364.861 455.052 366.579 452.92 366.579H172.122C169.991 366.579 168.268 364.861 168.268 362.745V358.901C168.268 361.017 169.991 362.745 172.122 362.745H452.92C455.052 362.745 456.774 361.017 456.774 358.901Z" fill="#7EA4B0"/>
<path d="M452.339 362.74H173.024C170.908 362.74 169.194 361.021 169.194 358.9V37.8679C169.194 35.7469 170.908 34.0278 173.024 34.0278H452.338C454.453 34.0278 456.167 35.7469 456.167 37.8679V358.9C456.168 361.021 454.453 362.74 452.339 362.74Z" fill="#8DB6C7" stroke="#1E3749" stroke-width="1.5" stroke-miterlimit="10"/>
<path d="M444.168 352.522H181.194C179.913 352.522 178.875 351.48 178.875 350.196V45.548C178.875 44.2638 179.913 43.2222 181.194 43.2222H444.168C445.449 43.2222 446.488 44.2638 446.488 45.548V350.196C446.488 351.48 445.449 352.522 444.168 352.522Z" fill="#C1D7DF" stroke="#1E3749" stroke-width="1.5" stroke-miterlimit="10"/>
<path d="M445.763 45.5684V49.6472C445.763 48.3562 444.732 47.3176 443.461 47.3176H181.846C180.565 47.3176 179.534 48.3562 179.534 49.6472V44.8501C179.534 44.3744 179.918 43.9881 180.393 43.9881H444.188C445.055 43.9881 445.763 44.6986 445.763 45.5684Z" fill="#7EA4B0"/>
<path d="M259.518 61.4771V78.1633C259.518 79.1534 258.724 79.9591 257.736 79.9591H253.322V82.6187C253.322 83.4147 252.673 84.0554 251.88 84.0554H241.221C240.427 84.0554 239.788 83.4147 239.788 82.6187V81.1142H250.35C251.144 81.1142 251.792 80.4638 251.792 79.6678V77.0179H255.239C256.226 77.0179 257.02 76.2122 257.02 75.2221V58.7397C257.891 58.8562 259.671 59.2445 259.518 61.4771Z" fill="#6D9FAA"/>
<path d="M238.259 79.6679C238.259 79.7649 238.268 79.862 238.288 79.9591H236.855C235.868 79.9591 235.064 79.1534 235.064 78.1633V76.9887C235.142 77.0082 235.229 77.0179 235.316 77.0179H238.259V79.6679Z" fill="#6D9FAA"/>
<path d="M394.835 61.4771V78.1633C394.835 79.1534 394.041 79.9591 393.054 79.9591H388.64V82.6187C388.64 83.4147 387.991 84.0554 387.197 84.0554H376.539C375.745 84.0554 375.106 83.4147 375.106 82.6187V81.1142H385.668C386.461 81.1142 387.11 80.4638 387.11 79.6678V77.0179H390.556C391.544 77.0179 392.338 76.2122 392.338 75.2221V58.7397C393.209 58.8562 394.988 59.2445 394.835 61.4771Z" fill="#6D9FAA"/>
<path d="M373.576 79.6679C373.576 79.7649 373.586 79.862 373.606 79.9591H372.173C371.185 79.9591 370.382 79.1534 370.382 78.1633V76.9887C370.459 77.0082 370.546 77.0179 370.634 77.0179H373.576V79.6679Z" fill="#6D9FAA"/>
<path d="M259.518 322.939V339.625C259.518 340.615 258.724 341.421 257.736 341.421H253.322V344.081C253.322 344.877 252.673 345.517 251.88 345.517H241.221C240.427 345.517 239.788 344.877 239.788 344.081V342.576H250.35C251.144 342.576 251.792 341.926 251.792 341.13V338.48H255.239C256.226 338.48 257.02 337.674 257.02 336.684V320.202C257.891 320.318 259.671 320.705 259.518 322.939Z" fill="#6D9FAA"/>
<path d="M238.259 341.13C238.259 341.227 238.268 341.324 238.288 341.421H236.855C235.868 341.421 235.064 340.615 235.064 339.625V338.451C235.142 338.47 235.229 338.48 235.316 338.48H238.259V341.13Z" fill="#6D9FAA"/>
<path d="M415.282 114.791C415.282 115.616 415.069 116.403 414.701 117.092C413.878 115.578 412.271 114.539 410.441 114.539H214.853C213.023 114.539 211.416 115.578 210.593 117.092C210.225 116.403 210.012 115.616 210.012 114.791C210.012 113.462 210.555 112.238 211.436 111.365C212.307 110.482 213.527 109.938 214.853 109.938H410.441C413.104 109.938 415.282 112.122 415.282 114.791Z" fill="#D2E8F0"/>
<path d="M210.012 162.458C210.012 161.633 210.225 160.847 210.593 160.158C211.416 161.672 213.023 162.711 214.853 162.711H410.441C412.271 162.711 413.878 161.672 414.701 160.158C415.069 160.847 415.282 161.633 415.282 162.458C415.282 163.788 414.74 165.011 413.859 165.885C412.988 166.768 411.768 167.312 410.441 167.312H214.853C212.191 167.312 210.012 165.128 210.012 162.458Z" fill="#9DBECA"/>
<path d="M415.282 217.706C415.282 218.531 415.069 219.318 414.701 220.007C413.878 218.492 412.271 217.454 410.441 217.454H214.853C213.023 217.454 211.416 218.492 210.593 220.007C210.225 219.318 210.012 218.531 210.012 217.706C210.012 216.376 210.555 215.153 211.436 214.28C212.307 213.396 213.527 212.853 214.853 212.853H410.441C413.104 212.853 415.282 215.037 415.282 217.706Z" fill="#D2E8F0"/>
<path d="M210.012 265.373C210.012 264.548 210.225 263.762 210.593 263.072C211.416 264.587 213.023 265.625 214.853 265.625H410.441C412.271 265.625 413.878 264.587 414.701 263.072C415.069 263.762 415.282 264.548 415.282 265.373C415.282 266.703 414.74 267.926 413.859 268.8C412.988 269.683 411.768 270.226 410.441 270.226H214.853C212.191 270.226 210.012 268.042 210.012 265.373Z" fill="#9DBECA"/>
<path d="M394.835 322.939V339.625C394.835 340.615 394.041 341.421 393.054 341.421H388.64V344.081C388.64 344.877 387.991 345.517 387.197 345.517H376.539C375.745 345.517 375.106 344.877 375.106 344.081V342.576H385.668C386.461 342.576 387.11 341.926 387.11 341.13V338.48H390.556C391.544 338.48 392.338 337.674 392.338 336.684V320.202C393.209 320.318 394.988 320.705 394.835 322.939Z" fill="#6D9FAA"/>
<path d="M373.576 341.13C373.576 341.227 373.586 341.324 373.606 341.421H372.173C371.185 341.421 370.382 340.615 370.382 339.625V338.451C370.459 338.47 370.546 338.48 370.634 338.48H373.576V341.13Z" fill="#6D9FAA"/>
<path d="M254.979 77.6022H235.065C234.078 77.6022 233.278 76.7995 233.278 75.8103V58.1457C233.278 57.1555 234.079 56.3538 235.065 56.3538H254.979C255.967 56.3538 256.766 57.1565 256.766 58.1457V75.8103C256.767 76.7995 255.967 77.6022 254.979 77.6022Z" fill="#7FA9B3" stroke="#1E3749" stroke-width="1.5" stroke-miterlimit="10"/>
<path opacity="0.3" d="M251.913 32.1272V371.598C251.913 373.287 250.548 374.665 248.854 374.665H246.812C245.514 374.665 244.411 373.86 243.956 372.724H245.989C247.683 372.724 249.058 371.345 249.058 369.656V30.1858C249.058 29.7878 248.98 29.4093 248.845 29.0598H248.854C250.548 29.0598 251.913 30.4285 251.913 32.1272Z" fill="#558693"/>
<path opacity="0.3" d="M387.869 32.1272V371.598C387.869 373.287 386.504 374.665 384.81 374.665H382.767C381.47 374.665 380.366 373.86 379.911 372.724H381.944C383.639 372.724 385.013 371.345 385.013 369.656V30.1858C385.013 29.7878 384.936 29.4093 384.8 29.0598H384.81C386.504 29.0598 387.869 30.4285 387.869 32.1272Z" fill="#558693"/>
<path d="M445.221 38.3047H179.439C178.912 38.3047 178.482 37.8727 178.482 37.3447C178.482 36.8166 178.912 36.3847 179.439 36.3847H445.221C445.748 36.3847 446.179 36.8166 446.179 37.3447C446.179 37.8727 445.748 38.3047 445.221 38.3047Z" fill="#AECFDD"/>
<path d="M444.456 357.034H179.439C178.912 357.034 178.482 356.602 178.482 356.074C178.482 355.546 178.912 355.114 179.439 355.114H444.456C444.982 355.114 445.413 355.546 445.413 356.074C445.413 356.602 444.982 357.034 444.456 357.034Z" fill="#AECFDD"/>
<path d="M175.556 351.956V44.4599C175.556 43.9318 175.987 43.4998 176.513 43.4998H176.577C177.104 43.4998 177.535 43.9318 177.535 44.4599V351.956C177.535 352.484 177.104 352.916 176.577 352.916H176.513C175.987 352.916 175.556 352.484 175.556 351.956Z" fill="#AECFDD"/>
<path d="M452.865 349.596V45.8809C452.865 45.4868 453.188 45.1636 453.581 45.1636C453.974 45.1636 454.296 45.4868 454.296 45.8809V349.596C454.296 349.99 453.974 350.313 453.581 350.313C453.187 350.313 452.865 349.99 452.865 349.596Z" fill="#AECFDD"/>
<path d="M238.288 80.9297H239.788V82.0849H239.692C238.995 82.0849 238.423 81.5898 238.288 80.9297Z" fill="#618087"/>
<path d="M245.788 372.725H243.746C242.054 372.725 240.682 371.349 240.682 369.653V30.1878C240.682 28.491 242.054 27.1155 243.746 27.1155H245.788C247.481 27.1155 248.852 28.491 248.852 30.1878V369.653C248.852 371.349 247.481 372.725 245.788 372.725Z" fill="#BED2DD" stroke="#1E3749" stroke-width="1.5" stroke-miterlimit="10"/>
<path d="M250.097 81.6986H239.438C238.645 81.6986 238.001 81.054 238.001 80.258V53.697C238.001 52.902 238.644 52.2565 239.438 52.2565H250.097C250.89 52.2565 251.534 52.901 251.534 53.697V80.258C251.533 81.053 250.89 81.6986 250.097 81.6986Z" fill="#A0BBCA" stroke="#1E3749" stroke-width="1.5" stroke-miterlimit="10"/>
<path d="M235.698 61.4411C236.306 61.4411 236.799 60.947 236.799 60.3375C236.799 59.7279 236.306 59.2338 235.698 59.2338C235.09 59.2338 234.598 59.7279 234.598 60.3375C234.598 60.947 235.09 61.4411 235.698 61.4411Z" fill="#1E3749"/>
<path d="M235.698 74.6892C236.306 74.6892 236.799 74.195 236.799 73.5855C236.799 72.9759 236.306 72.4818 235.698 72.4818C235.09 72.4818 234.598 72.9759 234.598 73.5855C234.598 74.195 235.09 74.6892 235.698 74.6892Z" fill="#1E3749"/>
<path d="M254.113 61.4411C254.721 61.4411 255.214 60.947 255.214 60.3375C255.214 59.7279 254.721 59.2338 254.113 59.2338C253.505 59.2338 253.012 59.7279 253.012 60.3375C253.012 60.947 253.505 61.4411 254.113 61.4411Z" fill="#1E3749"/>
<path d="M254.113 74.6892C254.721 74.6892 255.214 74.195 255.214 73.5855C255.214 72.9759 254.721 72.4818 254.113 72.4818C253.505 72.4818 253.012 72.9759 253.012 73.5855C253.012 74.195 253.505 74.6892 254.113 74.6892Z" fill="#1E3749"/>
<path d="M254.979 338.783H235.065C234.078 338.783 233.278 337.98 233.278 336.991V319.326C233.278 318.336 234.079 317.534 235.065 317.534H254.979C255.967 317.534 256.766 318.337 256.766 319.326V336.991C256.767 337.98 255.967 338.783 254.979 338.783Z" fill="#7FA9B3" stroke="#1E3749" stroke-width="1.5" stroke-miterlimit="10"/>
<path d="M250.097 342.879H239.438C238.645 342.879 238.001 342.234 238.001 341.438V314.877C238.001 314.082 238.644 313.437 239.438 313.437H250.097C250.89 313.437 251.534 314.081 251.534 314.877V341.438C251.533 342.233 250.89 342.879 250.097 342.879Z" fill="#A0BBCA" stroke="#1E3749" stroke-width="1.5" stroke-miterlimit="10"/>
<path d="M235.698 322.622C236.306 322.622 236.799 322.127 236.799 321.518C236.799 320.908 236.306 320.414 235.698 320.414C235.09 320.414 234.598 320.908 234.598 321.518C234.598 322.127 235.09 322.622 235.698 322.622Z" fill="#1E3749"/>
<path d="M235.698 335.87C236.306 335.87 236.799 335.375 236.799 334.766C236.799 334.156 236.306 333.662 235.698 333.662C235.09 333.662 234.598 334.156 234.598 334.766C234.598 335.375 235.09 335.87 235.698 335.87Z" fill="#1E3749"/>
<path d="M254.113 322.622C254.721 322.622 255.214 322.127 255.214 321.518C255.214 320.908 254.721 320.414 254.113 320.414C253.505 320.414 253.012 320.908 253.012 321.518C253.012 322.127 253.505 322.622 254.113 322.622Z" fill="#1E3749"/>
<g opacity="0.5">
<path opacity="0.5" d="M459.76 82.4868V84.5349C459.76 85.0688 459.334 85.5056 458.792 85.5056H441.008C440.476 85.5056 440.04 85.0688 440.04 84.5349V82.4868C440.04 83.0206 440.476 83.4574 441.008 83.4574H458.792C459.334 83.4574 459.76 83.0206 459.76 82.4868Z" fill="#618087"/>
<path opacity="0.5" d="M459.76 148.028V150.076C459.76 150.61 459.334 151.047 458.792 151.047H441.008C440.476 151.047 440.04 150.61 440.04 150.076V148.028C440.04 148.562 440.476 148.999 441.008 148.999H458.792C459.334 148.999 459.76 148.562 459.76 148.028Z" fill="#618087"/>
</g>
<g opacity="0.5">
<path opacity="0.5" d="M459.76 256.828V258.876C459.76 259.41 459.334 259.847 458.792 259.847H441.008C440.476 259.847 440.04 259.41 440.04 258.876V256.828C440.04 257.362 440.476 257.799 441.008 257.799H458.792C459.334 257.799 459.76 257.362 459.76 256.828Z" fill="#618087"/>
<path opacity="0.5" d="M459.76 322.369V324.417C459.76 324.951 459.334 325.388 458.792 325.388H441.008C440.476 325.388 440.04 324.951 440.04 324.417V322.369C440.04 322.903 440.476 323.34 441.008 323.34H458.792C459.334 323.34 459.76 322.903 459.76 322.369Z" fill="#618087"/>
</g>
<g opacity="0.5">
<path opacity="0.5" d="M185.757 82.4868V84.5349C185.757 85.0688 185.314 85.5056 184.751 85.5056H166.254C165.7 85.5056 165.247 85.0688 165.247 84.5349V82.4868C165.247 83.0206 165.7 83.4574 166.254 83.4574H184.751C185.314 83.4574 185.757 83.0206 185.757 82.4868Z" fill="#618087"/>
<path opacity="0.5" d="M185.757 148.028V150.076C185.757 150.61 185.314 151.047 184.751 151.047H166.254C165.7 151.047 165.247 150.61 165.247 150.076V148.028C165.247 148.562 165.7 148.999 166.254 148.999H184.751C185.314 148.999 185.757 148.562 185.757 148.028Z" fill="#618087"/>
</g>
<g opacity="0.5">
<path opacity="0.5" d="M185.757 256.828V258.876C185.757 259.41 185.314 259.847 184.751 259.847H166.254C165.7 259.847 165.247 259.41 165.247 258.876V256.828C165.247 257.362 165.7 257.799 166.254 257.799H184.751C185.314 257.799 185.757 257.362 185.757 256.828Z" fill="#618087"/>
<path opacity="0.5" d="M185.757 322.369V324.417C185.757 324.951 185.314 325.388 184.751 325.388H166.254C165.7 325.388 165.247 324.951 165.247 324.417V322.369C165.247 322.903 165.7 323.34 166.254 323.34H184.751C185.314 323.34 185.757 322.903 185.757 322.369Z" fill="#618087"/>
</g>
<path d="M254.113 335.87C254.721 335.87 255.214 335.375 255.214 334.766C255.214 334.156 254.721 333.662 254.113 333.662C253.505 333.662 253.012 334.156 253.012 334.766C253.012 335.375 253.505 335.87 254.113 335.87Z" fill="#1E3749"/>
<path d="M390.297 77.6022H370.383C369.395 77.6022 368.596 76.7995 368.596 75.8103V58.1457C368.596 57.1555 369.396 56.3538 370.383 56.3538H390.297C391.284 56.3538 392.084 57.1565 392.084 58.1457V75.8103C392.084 76.7995 391.283 77.6022 390.297 77.6022Z" fill="#7FA9B3" stroke="#1E3749" stroke-width="1.5" stroke-miterlimit="10"/>
<path d="M381.105 372.725H379.062C377.37 372.725 375.999 371.349 375.999 369.653V30.1878C375.999 28.491 377.37 27.1155 379.062 27.1155H381.105C382.797 27.1155 384.169 28.491 384.169 30.1878V369.653C384.169 371.349 382.797 372.725 381.105 372.725Z" fill="#BED2DD" stroke="#1E3749" stroke-width="1.5" stroke-miterlimit="10"/>
<path d="M385.414 81.6986H374.755C373.962 81.6986 373.318 81.054 373.318 80.258V53.697C373.318 52.902 373.961 52.2565 374.755 52.2565H385.414C386.207 52.2565 386.851 52.901 386.851 53.697V80.258C386.85 81.053 386.207 81.6986 385.414 81.6986Z" fill="#A0BBCA" stroke="#1E3749" stroke-width="1.5" stroke-miterlimit="10"/>
<path d="M371.015 61.4411C371.623 61.4411 372.116 60.947 372.116 60.3375C372.116 59.7279 371.623 59.2338 371.015 59.2338C370.407 59.2338 369.914 59.7279 369.914 60.3375C369.914 60.947 370.407 61.4411 371.015 61.4411Z" fill="#1E3749"/>
<path d="M371.015 74.6892C371.623 74.6892 372.116 74.195 372.116 73.5855C372.116 72.9759 371.623 72.4818 371.015 72.4818C370.407 72.4818 369.914 72.9759 369.914 73.5855C369.914 74.195 370.407 74.6892 371.015 74.6892Z" fill="#1E3749"/>
<path d="M389.43 61.4411C390.037 61.4411 390.53 60.947 390.53 60.3375C390.53 59.7279 390.037 59.2338 389.43 59.2338C388.822 59.2338 388.329 59.7279 388.329 60.3375C388.329 60.947 388.822 61.4411 389.43 61.4411Z" fill="#1E3749"/>
<path d="M389.43 74.6892C390.037 74.6892 390.53 74.195 390.53 73.5855C390.53 72.9759 390.037 72.4818 389.43 72.4818C388.822 72.4818 388.329 72.9759 388.329 73.5855C388.329 74.195 388.822 74.6892 389.43 74.6892Z" fill="#1E3749"/>
<path d="M390.297 338.783H370.383C369.395 338.783 368.596 337.98 368.596 336.991V319.326C368.596 318.336 369.396 317.534 370.383 317.534H390.297C391.284 317.534 392.084 318.337 392.084 319.326V336.991C392.084 337.98 391.283 338.783 390.297 338.783Z" fill="#7FA9B3" stroke="#1E3749" stroke-width="1.5" stroke-miterlimit="10"/>
<path d="M385.414 342.879H374.755C373.962 342.879 373.318 342.234 373.318 341.438V314.877C373.318 314.082 373.961 313.437 374.755 313.437H385.414C386.207 313.437 386.851 314.081 386.851 314.877V341.438C386.85 342.233 386.207 342.879 385.414 342.879Z" fill="#A0BBCA" stroke="#1E3749" stroke-width="1.5" stroke-miterlimit="10"/>
<path d="M371.015 322.622C371.623 322.622 372.116 322.127 372.116 321.518C372.116 320.908 371.623 320.414 371.015 320.414C370.407 320.414 369.914 320.908 369.914 321.518C369.914 322.127 370.407 322.622 371.015 322.622Z" fill="#1E3749"/>
<path d="M371.015 335.87C371.623 335.87 372.116 335.375 372.116 334.766C372.116 334.156 371.623 333.662 371.015 333.662C370.407 333.662 369.914 334.156 369.914 334.766C369.914 335.375 370.407 335.87 371.015 335.87Z" fill="#1E3749"/>
<path d="M389.43 322.622C390.037 322.622 390.53 322.127 390.53 321.518C390.53 320.908 390.037 320.414 389.43 320.414C388.822 320.414 388.329 320.908 388.329 321.518C388.329 322.127 388.822 322.622 389.43 322.622Z" fill="#1E3749"/>
<path d="M389.43 335.87C390.037 335.87 390.53 335.375 390.53 334.766C390.53 334.156 390.037 333.662 389.43 333.662C388.822 333.662 388.329 334.156 388.329 334.766C388.329 335.375 388.822 335.87 389.43 335.87Z" fill="#1E3749"/>
<path d="M312.681 43.7561V351.988" stroke="#1E3749" stroke-width="1.5" stroke-miterlimit="10"/>
<path d="M184.853 83.5652H167.066C166.532 83.5652 166.098 83.1303 166.098 82.5945V73.7835C166.098 73.2477 166.532 72.8128 167.066 72.8128H184.853C185.388 72.8128 185.821 73.2477 185.821 73.7835V82.5945C185.821 83.1303 185.388 83.5652 184.853 83.5652Z" fill="#71A2AE" stroke="#1E3749" stroke-width="1.5" stroke-miterlimit="10"/>
<path d="M184.853 149.102H167.066C166.532 149.102 166.098 148.668 166.098 148.132V139.321C166.098 138.785 166.532 138.35 167.066 138.35H184.853C185.388 138.35 185.821 138.785 185.821 139.321V148.132C185.821 148.668 185.388 149.102 184.853 149.102Z" fill="#71A2AE" stroke="#1E3749" stroke-width="1.5" stroke-miterlimit="10"/>
<path d="M184.853 257.991H167.066C166.532 257.991 166.098 257.556 166.098 257.02V248.209C166.098 247.673 166.532 247.239 167.066 247.239H184.853C185.388 247.239 185.821 247.673 185.821 248.209V257.02C185.821 257.556 185.388 257.991 184.853 257.991Z" fill="#71A2AE" stroke="#1E3749" stroke-width="1.5" stroke-miterlimit="10"/>
<path d="M184.853 323.528H167.066C166.532 323.528 166.098 323.093 166.098 322.557V313.747C166.098 313.211 166.532 312.776 167.066 312.776H184.853C185.388 312.776 185.821 313.211 185.821 313.747V322.557C185.821 323.094 185.388 323.528 184.853 323.528Z" fill="#71A2AE" stroke="#1E3749" stroke-width="1.5" stroke-miterlimit="10"/>
<path d="M458.796 83.5652H441.008C440.474 83.5652 440.04 83.1303 440.04 82.5945V73.7835C440.04 73.2477 440.474 72.8128 441.008 72.8128H458.796C459.33 72.8128 459.764 73.2477 459.764 73.7835V82.5945C459.764 83.1303 459.33 83.5652 458.796 83.5652Z" fill="#71A2AE" stroke="#1E3749" stroke-width="1.5" stroke-miterlimit="10"/>
<path d="M458.796 149.102H441.008C440.474 149.102 440.04 148.668 440.04 148.132V139.321C440.04 138.785 440.474 138.35 441.008 138.35H458.796C459.33 138.35 459.764 138.785 459.764 139.321V148.132C459.764 148.668 459.33 149.102 458.796 149.102Z" fill="#71A2AE" stroke="#1E3749" stroke-width="1.5" stroke-miterlimit="10"/>
<path d="M458.796 257.991H441.008C440.474 257.991 440.04 257.556 440.04 257.02V248.209C440.04 247.673 440.474 247.239 441.008 247.239H458.796C459.33 247.239 459.764 247.673 459.764 248.209V257.02C459.764 257.556 459.33 257.991 458.796 257.991Z" fill="#71A2AE" stroke="#1E3749" stroke-width="1.5" stroke-miterlimit="10"/>
<path d="M458.796 323.528H441.008C440.474 323.528 440.04 323.093 440.04 322.557V313.747C440.04 313.211 440.474 312.776 441.008 312.776H458.796C459.33 312.776 459.764 313.211 459.764 313.747V322.557C459.764 323.094 459.33 323.528 458.796 323.528Z" fill="#71A2AE" stroke="#1E3749" stroke-width="1.5" stroke-miterlimit="10"/>
<path d="M435.072 26.0274H465.902V27.7552H437.596C436.479 27.7552 435.476 27.069 435.072 26.0274Z" fill="#7EA4B0"/>
<path d="M190.246 26.0274H159.417V27.7552H187.723C188.84 27.7552 189.843 27.0689 190.246 26.0274Z" fill="#7EA4B0"/>
<path d="M85.1977 55.9695L91.5986 64.1589C91.5986 64.1589 93.1345 66.7816 92.1102 68.829C92.1102 68.829 91.7899 70.2369 88.1413 70.8123L85.1977 55.9695Z" fill="#F3BBA3" stroke="#203749" stroke-width="1.5" stroke-miterlimit="10" stroke-linejoin="round"/>
<path d="M83.4054 49.7644C83.4054 49.7644 90.319 68.829 89.0384 78.2982C89.0384 78.2982 89.2947 85.7191 75.9793 86.7428L76.1074 103.121L48.0697 89.0453L48.1979 81.7525L39.8766 62.3037L83.4054 49.7644Z" fill="#F3EBE0" stroke="#203749" stroke-width="1.5" stroke-miterlimit="10" stroke-linejoin="round"/>
<path d="M106.023 45.7405L82.7356 51.5371L82.1763 49.2918L105.688 44.4403C105.937 44.3782 106.19 44.5296 106.252 44.7789L106.355 45.1913C106.414 45.4329 106.266 45.6794 106.023 45.7405Z" fill="#627885" stroke="#203749" stroke-width="1.5" stroke-miterlimit="10" stroke-linejoin="round"/>
<path d="M39.3737 62.2697C38.7805 62.4356 38.4086 63.0217 38.5174 63.6271C38.9824 66.2082 40.4183 72.9324 43.461 77.8499C43.461 77.8499 45.5998 81.3139 47.3251 82.9624C47.8377 83.4524 48.6649 83.3758 49.0959 82.812L52.3542 78.5466C52.694 78.1022 52.6794 77.4812 52.3202 77.0523C50.9221 75.3843 49.5552 73.5126 49.2998 71.2547C49.0707 69.2365 49.594 66.8825 51.6454 66.0122C52.9406 65.463 54.4493 65.8637 55.4804 66.7651C57.2639 68.3254 57.7978 70.9423 59.8803 72.1726C60.3959 72.4773 60.9765 72.6956 61.5755 72.7092C63.3133 72.749 64.3939 70.9966 64.5852 69.4684V56.7797C64.5852 55.987 63.8279 55.4135 63.0648 55.6279L39.3737 62.2697Z" fill="#B69883" stroke="#203749" stroke-width="1.5" stroke-miterlimit="10" stroke-linejoin="round"/>
<path d="M100.092 120.724C99.6782 121.639 112.747 125.614 114.066 125.762C119.443 126.362 123.767 123.85 127.938 120.724C127.938 120.724 141.765 109.784 146.182 101.531C146.182 101.531 150.983 80.2271 156.552 74.4693C156.552 74.4693 159.432 71.9747 159.24 77.7325L158.472 92.3191C158.472 92.3191 161.16 87.1367 161.928 86.1771C161.928 86.1771 164.424 83.4903 164.233 88.0963C164.103 91.2139 163.737 94.2675 162.763 97.2521C162.265 98.7784 161.625 100.265 160.799 101.643C160.373 102.353 159.897 103.035 159.368 103.674C158.705 104.473 157.876 105.06 157.368 105.981C157.163 106.352 156.955 106.72 156.745 107.089C156.057 108.299 155.355 109.5 154.641 110.695C152.421 114.409 150.09 118.059 147.636 121.624C144.683 125.913 141.552 130.095 138.108 134.006C134.964 137.577 131.528 141.051 127.506 143.635C127.024 143.945 126.532 144.267 126.019 144.524C126.017 144.524 111.806 151.624 91.0675 140.685C91.0656 140.685 100.08 120.75 100.092 120.724Z" fill="#EAD9CA" stroke="#203749" stroke-width="1.5" stroke-miterlimit="10" stroke-linejoin="round"/>
<path d="M38.0203 63.9561C38.0203 63.9561 84.1588 51.1645 84.1734 51.1606C84.3938 51.0995 82.32 46.4013 82.186 46.1461C80.2919 42.5288 77.5793 39.3316 74.1861 37.0378C64.9036 30.76 50.9474 31.1219 43.1261 39.5684C39.0106 44.0134 37.1669 49.9206 37.1494 55.9093C37.1407 58.6136 37.4708 61.312 38.0203 63.9561Z" fill="#627885" stroke="#203749" stroke-width="1.5" stroke-miterlimit="10" stroke-linejoin="round"/>
<path d="M90.518 291.072L97.6141 357.515L85.6617 359.009C85.6617 359.009 68.1075 322.054 63.2522 303.016L59.1434 289.578L90.518 291.072Z" fill="#EADBCA" stroke="#203749" stroke-width="1.5" stroke-miterlimit="10" stroke-linejoin="round"/>
<path d="M84.5559 357.88L99.8927 355.651C101.582 355.405 103.306 355.598 104.899 356.212L125.293 364.076C126.069 364.376 126.793 364.8 127.404 365.364C128.364 366.25 129.549 367.719 129.59 369.604C129.64 371.971 127.773 373.949 125.431 374.311C120.701 375.04 108.553 376.68 89.3976 377.673C89.3976 377.673 83.9821 378.606 82.3016 372.633L81.9967 360.915C81.9569 359.403 83.0569 358.099 84.5559 357.88Z" fill="#2C97C8" stroke="#1F3749" stroke-width="1.5" stroke-miterlimit="10" stroke-linejoin="round"/>
<path d="M88.1423 204.074C88.1423 204.074 90.0627 223.651 91.5986 231.712C91.5986 231.712 95.8238 259.351 98.1277 291.211C98.1277 291.211 83.1482 294.665 61.6405 295.049L51.6542 203.691L87.7578 200.62L88.1423 204.074Z" fill="#4B5B65" stroke="#203749" stroke-width="1.5" stroke-miterlimit="10" stroke-linejoin="round"/>
<path d="M40.5377 359.249L28.6096 355.794L43.2047 285.165L72.3948 292.842L40.5377 359.249Z" fill="#F3EBE0" stroke="#203749" stroke-width="1.5" stroke-miterlimit="10" stroke-linejoin="round"/>
<path d="M30.998 206.94C29.4456 207.055 28.2728 208.384 28.3592 209.938C28.7427 216.828 30.1087 235.589 34.3708 256.28C34.3708 256.28 37.2698 268.957 36.3795 291.847C36.331 293.086 37.0756 294.216 38.2387 294.646C43.7795 296.7 60.3629 302.313 77.8521 303.043C79.1734 303.099 80.3637 302.27 80.7356 301.002C82.9724 293.385 89.8268 265.796 84.3006 229.408L80.4938 205.888C80.2569 204.426 78.9424 203.389 77.4657 203.499L30.998 206.94Z" fill="#51636E" stroke="#203749" stroke-width="1.5" stroke-miterlimit="10" stroke-linejoin="round"/>
<path d="M77.0045 105.423L106.77 120.202C106.77 120.202 106.963 131.334 98.7044 149.95L70.8589 135.556L77.0045 105.423Z" fill="#405059" stroke="#203749" stroke-width="1.5" stroke-miterlimit="10" stroke-linejoin="round"/>
<path d="M42.4368 91.9882C42.4368 91.9882 30.7223 102.736 28.4174 140.354C28.4174 140.354 26.1572 192.317 26.6 209.752C26.6339 211.073 27.7271 212.112 29.0485 212.068C37.4834 211.783 66.7055 210.44 86.6773 205.035C87.8802 204.709 88.7316 203.641 88.753 202.396L89.486 159.547C89.486 159.547 88.9103 117.323 78.156 107.918L42.4368 91.9882Z" fill="#5B6D78" stroke="#203749" stroke-width="1.5" stroke-miterlimit="10" stroke-linejoin="round"/>
<path d="M66.3259 378.729C66.1745 381.175 64.5114 382.139 63.5094 382.508C63.1502 382.64 62.7726 382.706 62.3852 382.735C51.4027 383.415 33.5776 378.862 24.4009 376.245C21.2252 375.338 19.5243 371.91 20.7243 368.84L20.9699 368.217C25.6009 371.419 29.9485 372.222 29.9485 372.222C44.3047 375.472 55.9775 375.085 64.0483 373.904C65.5318 375.064 66.4386 376.85 66.3259 378.729Z" fill="#208EB5"/>
<path d="M88.6986 160.76L88.3015 183.875C82.7132 181 66.4318 171.437 54.5677 152.3C56.1755 153.8 57.8124 155.233 59.4396 156.626C63.8366 160.392 68.4764 163.993 73.3482 167.148C74.1424 167.661 75.2074 167.516 75.8375 166.8C78.2492 164.08 80.4482 161.408 82.4433 158.853C84.4753 159.618 86.5773 160.246 88.6986 160.76Z" fill="#51636E" fill-opacity="0.3" style="mix-blend-mode:multiply"/>
<path d="M50.3357 209.96C50.3357 209.96 47.3115 172.937 57.8959 154.048" stroke="white" stroke-width="1.5" stroke-miterlimit="10" stroke-linecap="round" stroke-linejoin="round"/>
<path d="M46.727 85.7259C45.7775 86.964 43.562 89.8536 42.5047 91.2314C42.1911 91.6409 42.2969 92.226 42.7348 92.4996C46.2561 94.7022 60.8658 103.629 78.8249 111.664C79.4647 111.95 80.1676 111.402 80.0453 110.712L78.6802 103.009C78.4715 101.834 77.7268 100.83 76.6589 100.295C72.9502 98.4398 63.1823 93.5126 47.8319 85.4872C47.4552 85.2902 46.9853 85.3882 46.727 85.7259Z" fill="#627885" stroke="#203749" stroke-width="1.5" stroke-miterlimit="10" stroke-linejoin="round"/>
<path d="M87.552 135.731C87.5967 135.694 87.6413 135.657 87.686 135.62C88.6083 134.859 92.3928 137.826 93.2005 138.366C95.6772 140.02 98.2879 141.433 101.059 142.532C108.821 145.612 116.809 145.472 125.01 145.352C133.714 145.225 142.457 144.597 150.982 142.764C154.071 142.096 154.631 137.436 155.787 134.869C157.298 131.51 159.164 127.567 162.269 125.384C162.269 125.384 165.918 124.04 163.805 128.839C163.805 128.839 162.269 132.102 163.229 133.252C163.229 133.252 165.15 133.252 168.798 131.141C168.798 131.141 174.367 127.878 176.864 125.959C176.864 125.959 180.32 122.696 181.089 127.302C182.037 132.985 179.187 137.918 174.718 141.079C165.12 147.869 154.347 153.563 143.147 157.209C129.075 161.789 114.167 163.517 99.4442 161.819C89.0491 160.62 77.4492 157.837 69.7065 150.334C75.6599 145.472 81.622 140.622 87.552 135.731Z" fill="#F3EBE0" stroke="#203749" stroke-width="1.5" stroke-miterlimit="10" stroke-linejoin="round"/>
<path d="M24.7825 357.026L20.1252 368.93C18.8913 372.085 20.6408 375.61 23.899 376.539C33.332 379.229 51.6416 383.899 62.925 383.201C63.3201 383.177 63.7046 383.103 64.0774 382.969C65.1046 382.596 66.8114 381.601 66.9657 379.085C67.092 377.033 66.0269 375.088 64.3347 373.918L43.7212 359.655C43.2105 359.302 42.6397 359.043 42.0377 358.891L28.0155 355.362C26.6728 355.024 25.2873 355.738 24.7825 357.026Z" fill="#369AC7" stroke="#1F3749" stroke-width="1.5" stroke-miterlimit="10" stroke-linejoin="round"/>
<path d="M72.3016 116.485C74.8395 118.437 77.2278 120.535 79.4472 122.452C80.5521 123.406 92.0326 132.568 95.452 135.912C96.0723 136.519 96.2102 137.461 95.7879 138.218C93.7986 141.784 87.0015 153.339 75.8026 165.993C75.1734 166.703 74.1074 166.855 73.3113 166.339C68.4259 163.171 63.7735 159.568 59.3658 155.789C51.9212 149.406 44.1076 142.077 41.0193 132.48C38.4572 124.519 40.5591 113.318 49.3503 110.187C57.8085 107.175 65.5793 111.315 72.3016 116.485Z" fill="#51636E" stroke="#203749" stroke-width="1.5" stroke-miterlimit="10" stroke-linejoin="round"/>
<path d="M79.7763 57.5288L74.6715 59.6246C74.2628 59.7925 73.7948 59.5975 73.6269 59.189C73.4589 58.7805 73.654 58.3128 74.0628 58.1449L79.1676 56.0491C79.5763 55.8812 80.0443 56.0762 80.2123 56.4847C80.3802 56.8932 80.1851 57.3609 79.7763 57.5288Z" fill="#875B4D"/>
<path d="M79.4123 64.0356C80.4332 64.0356 81.2608 63.2341 81.2608 62.2454C81.2608 61.2567 80.4332 60.4552 79.4123 60.4552C78.3913 60.4552 77.5637 61.2567 77.5637 62.2454C77.5637 63.2341 78.3913 64.0356 79.4123 64.0356Z" fill="#1F3749"/>
<path d="M83.6773 74.9225C80.4122 76.2178 74.2035 76.1489 72.8754 71.1315" stroke="#CC4B62" stroke-width="1.5" stroke-miterlimit="10" stroke-linecap="round" stroke-linejoin="round"/>
<path d="M75.1793 86.049L69.7385 86.3692C69.7385 86.3692 72.4269 92.8945 75.3074 93.0866L75.1793 86.049Z" fill="#E9C2B5"/>
<path d="M49.0629 296.912L38.7523 294.642L38.228 294.38C37.364 293.846 36.8494 292.885 36.8882 291.847C37.7814 268.958 34.8785 256.276 34.8785 256.276C31.063 237.772 29.5776 220.801 29.0242 212.495L29.5582 212.068C27.2378 213.924 35.8941 232.846 36.7562 234.746C44.8338 252.569 64.5036 277.08 49.0629 296.912Z" fill="#65808E" fill-opacity="0.3" style="mix-blend-mode:multiply"/>
<path d="M552.202 297.945C552.202 297.945 555.777 318.297 559.607 359.641L559.991 363.865L576.971 364.377C576.971 364.377 579.652 340.569 578.12 296.024L552.202 297.945Z" fill="#D5BDAB" stroke="#203749" stroke-width="1.5" stroke-miterlimit="10" stroke-linejoin="round"/>
<path d="M572.375 359.258L555.88 359.376C554.92 359.383 553.969 359.548 553.066 359.875C549.259 361.253 538.486 365.667 528.225 374.654C527.754 375.068 527.381 375.59 527.163 376.179C526.722 377.374 526.591 379.183 529.73 379.353C529.73 379.353 557.607 379.242 575.034 378.5C577.033 378.415 578.587 376.737 578.533 374.733L578.165 361.086C578.139 360.134 577.373 359.369 576.422 359.348L572.375 359.258Z" fill="#3192BD" stroke="#1F3749" stroke-width="1.5" stroke-miterlimit="10"/>
<path d="M565.226 299.929C565.226 299.929 573.27 345.241 574.227 364.633L588.591 364.825C588.591 364.825 593.57 355.033 595.868 298.009L565.226 299.929Z" fill="#EADBCA" stroke="#203749" stroke-width="1.5" stroke-miterlimit="10" stroke-linejoin="round"/>
<path d="M590.696 361.77L572.377 361.928C571.072 361.939 569.795 362.268 568.647 362.892C563.865 365.49 550.566 372.791 545.116 376.537C545.116 376.537 544.96 376.645 544.748 376.87C542.82 378.913 544.395 382.294 547.199 382.272L589.046 381.944C591.219 381.926 592.961 380.134 592.92 377.954L592.648 363.673C592.628 362.609 591.758 361.761 590.696 361.77Z" fill="#369AC7" stroke="#1F3749" stroke-width="1.5" stroke-miterlimit="10"/>
<path d="M545.308 215.833C545.308 215.833 545.499 239.257 546.457 261.721L547.205 299.965C547.216 300.488 547.625 300.912 548.146 300.935C551.769 301.096 565.606 301.519 581.696 299.545L587.441 212.953L545.308 215.833Z" fill="#4B5B65" stroke="#203749" stroke-width="1.5" stroke-miterlimit="10" stroke-linejoin="round"/>
<path d="M550.287 213.337L607.742 208.729C607.732 208.73 606.568 235.468 606.377 238.004C605.647 247.686 604.308 257.385 604.487 267.097L605.232 301.107C605.244 301.637 604.856 302.086 604.33 302.141C599.766 302.628 578.931 304.711 556.699 304.728C556.541 304.728 556.409 304.611 556.399 304.453C555.67 292.629 554.686 280.815 553.463 269.033C552.392 258.712 550.45 248.5 549.533 238.16C549.179 234.176 549.035 230.157 549.079 226.158C549.09 225.041 549.429 213.337 550.287 213.337Z" fill="#51636E" stroke="#203749" stroke-width="1.5" stroke-miterlimit="10" stroke-linejoin="round"/>
<path d="M547.926 59.3535C547.926 59.3535 543.538 62.414 543.521 62.4257C542.058 63.4458 541.371 65.3814 542.749 66.7704C543.899 67.9313 545.742 68.141 547.288 68.1215L547.926 59.3535Z" fill="#F3BFBA" stroke="#203749" stroke-width="1.5" stroke-miterlimit="10" stroke-linejoin="round"/>
<path d="M550.031 46.5533C550.031 46.5533 545.818 64.9853 544.542 73.8174C544.542 73.8174 543.265 83.0339 551.309 85.081C551.309 85.081 554.373 85.4654 557.692 85.4654L558.458 101.593L585.142 88.5366L585.014 81.1129L590.504 49.113L550.031 46.5533Z" fill="#F3E8DC" stroke="#203749" stroke-width="1.5" stroke-miterlimit="10" stroke-linejoin="round"/>
<path d="M552.522 53.8489C552.522 53.8489 556.352 51.033 559.033 55.001" stroke="#8C622C" stroke-width="2" stroke-miterlimit="10" stroke-linecap="round" stroke-linejoin="round"/>
<path d="M553.479 62.3606C554.431 62.3606 555.203 61.5871 555.203 60.6328C555.203 59.6786 554.431 58.9051 553.479 58.9051C552.527 58.9051 551.756 59.6786 551.756 60.6328C551.756 61.5871 552.527 62.3606 553.479 62.3606Z" fill="#1F3749"/>
<path d="M524.369 124.378C524.542 124.878 517.814 127.478 517.353 127.637C514.756 128.532 511.897 129.312 509.131 129.333C506.24 129.354 503.521 127.899 501.132 126.408C492.606 121.089 485.996 113.408 479.312 106.027C478.71 105.362 478.102 104.689 477.668 103.902C476.784 102.298 477.115 100.248 476.815 98.4821C476.434 96.2379 475.993 94.0015 475.461 91.7884C474.529 87.9018 473.458 83.1737 470.743 80.0899C470.743 80.0899 466.913 75.7384 465.892 78.8096L466.657 95.4497C466.657 95.4497 464.678 93.1453 463.625 89.7859C463.625 89.7859 463.051 87.2903 461.422 88.2503C461.422 88.2503 460.561 88.6346 460.752 92.4746C460.888 95.1925 461.128 97.9307 461.987 100.53C462.425 101.858 463.022 103.163 463.9 104.259C464.275 104.726 464.718 105.237 465.204 105.594C466.426 106.491 466.901 106.932 467.569 108.335C468.594 110.494 469.579 112.616 470.862 114.633C472.103 116.581 473.421 118.996 475.055 120.634C478.803 125.782 482.799 130.799 486.785 135.775C489.981 139.765 493.691 143.464 498.371 145.65C503.03 147.825 508.214 148.624 513.324 148.251L531.902 146.139C531.902 146.137 524.37 124.378 524.369 124.378Z" fill="#EBD2C0" stroke="#203749" stroke-width="1.5" stroke-miterlimit="10" stroke-linejoin="round"/>
<path d="M555.051 70.655C553.855 70.9432 551.745 71.3325 548.517 71.5383C548.13 71.5625 547.804 71.8557 547.761 72.243C547.623 73.501 547.601 76.1188 549.777 76.312C549.777 76.312 554.844 76.5818 556.062 71.7091C556.218 71.085 555.676 70.5045 555.051 70.655Z" fill="#D36770"/>
<path d="M567.523 67.545C567.523 67.545 567.332 55.1389 567.332 55.1292C567.203 46.8135 553.925 47.9045 548.615 47.0008C546.163 46.5834 541.265 45.9496 541.095 42.6493C541.095 42.6493 539.435 37.2738 552.139 31.641C556.716 29.6123 561.716 28.6125 566.725 28.7387C574.377 28.9318 582.605 32.136 588.194 37.4465C594.362 43.3074 596.094 51.6212 595.043 59.8185C594.132 66.9208 591.768 74.0688 587.251 79.7055L585.964 81.2993C585.468 81.9128 584.58 82.0312 583.942 81.5672L581.956 80.3296C581.175 79.8423 580.597 79.0881 580.325 78.2077C580.14 77.6088 580.002 77.0177 579.967 76.7838C579.807 75.7073 579.819 74.5551 580.245 73.5379C580.544 72.8244 581.127 72.3158 581.537 71.6674C582.605 69.9794 582.9 67.9546 582.041 66.1249C581.981 65.9958 581.903 65.8793 581.811 65.7716C581.2 65.0571 578.703 62.5538 576.207 65.9463C576.207 65.9463 573.744 69.3019 573.718 69.3378C573.03 70.2745 572.211 71.052 570.985 71.116C568.943 71.2228 567.568 69.4436 567.523 67.545Z" fill="#F1C07C" stroke="#1F3749" stroke-width="1.5" stroke-miterlimit="10" stroke-linecap="round" stroke-linejoin="round"/>
<path d="M555.011 106.329L523.942 120.308C523.139 120.67 522.676 121.52 522.813 122.392C523.505 126.804 525.608 140.315 527.182 151.502C527.317 152.466 528.256 153.095 529.196 152.854L565.992 143.449L555.011 106.329Z" fill="#405059" stroke="#203749" stroke-width="1.5" stroke-miterlimit="10" stroke-linejoin="round"/>
<path d="M590.285 91.6835C590.285 91.6835 607.168 106.393 609.465 144.025C609.465 144.025 611.572 168.217 608.983 212.404C608.906 213.723 607.814 214.374 606.541 214.72C596.857 217.359 573.46 220.634 546.165 218.362C544.926 218.259 544.117 216.968 544.095 215.722L543.364 159.268C543.364 159.268 543.938 117.029 554.663 107.62L590.285 91.6835Z" fill="#5B6D78" stroke="#203749" stroke-width="1.5" stroke-miterlimit="10" stroke-linejoin="round"/>
<path d="M566.566 181.028C554.658 189.885 544.733 193.315 544.733 193.315L544.35 176.995C547.528 175.538 550.278 174.116 553.273 172.329C555.467 171.031 557.615 169.618 559.634 168.046C560.797 169.494 561.76 170.636 563.054 172.131C563.646 172.823 565.225 173.22 566.374 172.452C571.045 169.33 574.979 166.383 579.265 162.771C582.862 159.734 586.556 156.455 589.739 152.803C589.739 152.803 584.377 167.78 566.566 181.028Z" fill="#414E56"/>
<path d="M586.006 85.4188C586.953 86.6574 589.163 89.548 590.217 90.9264C590.53 91.336 590.424 91.9213 589.988 92.195C586.476 94.3985 571.906 103.329 553.996 111.367C553.358 111.653 552.657 111.105 552.779 110.414L554.141 102.708C554.349 101.533 555.091 100.528 556.156 99.9934C559.855 98.1375 569.596 93.2084 584.905 85.18C585.28 84.983 585.749 85.082 586.006 85.4188Z" fill="#627885" stroke="#203749" stroke-width="1.5" stroke-miterlimit="10" stroke-linejoin="round"/>
<path d="M583.262 218.169C583.262 218.169 586.76 175.211 574.517 153.295" stroke="#F4FCFF" stroke-width="1.5" stroke-miterlimit="10" stroke-linecap="round" stroke-linejoin="round"/>
<path d="M547.032 146.714C547.408 147.194 539.096 154.349 538.627 154.747C530.074 162.006 520.639 168.218 510.887 173.727C508.398 175.134 505.87 176.472 503.36 177.838C502.816 178.134 502.265 178.432 501.661 178.57C500.481 178.839 499.506 178.111 498.416 177.787C497.14 177.41 495.847 177.079 494.539 176.833C492.005 176.359 489.444 176.228 486.896 176.665C486.896 176.665 480.193 177.818 476.363 178.585C476.363 178.585 473.874 179.545 475.788 181.464C476.358 182.036 478.148 181.876 478.866 181.911C479.756 181.955 485.556 181.102 485.747 182.231C485.911 183.199 485.332 183.701 484.417 183.968C481.673 184.766 478.884 185.207 476.171 186.211C473.564 187.176 471.949 187.417 470.043 189.474C467.276 192.462 471.675 194.871 474.062 195.864C486.194 200.909 498.373 191.465 509.774 188.464C513.923 187.372 518.042 186.159 522.126 184.843C532.814 181.399 543.502 177.3 553.131 171.446C556.103 169.639 558.978 167.643 561.587 165.336C561.587 165.337 547.032 146.714 547.032 146.714Z" fill="#EADBCA" stroke="#203749" stroke-width="1.5" stroke-miterlimit="10" stroke-linejoin="round"/>
<path d="M567.014 121.95C564.483 123.903 562.101 126.001 559.888 127.919C558.786 128.874 547.337 138.04 543.927 141.385C543.308 141.991 543.171 142.934 543.592 143.692C545.576 147.259 552.354 158.818 563.523 171.476C564.15 172.187 565.213 172.339 566.007 171.823C570.879 168.653 575.519 165.049 579.914 161.269C587.339 154.884 595.131 147.552 598.211 137.951C600.766 129.987 598.67 118.782 589.903 115.65C581.467 112.636 573.718 116.777 567.014 121.95Z" fill="#51636E" stroke="#203749" stroke-width="1.5" stroke-miterlimit="10" stroke-linejoin="round"/>
<path d="M558.331 84.7073L565.034 84.1958C565.034 84.1958 564.396 88.6113 558.651 90.212L558.331 84.7073Z" fill="#E9AF9C"/>
<path d="M603.717 266.072L604.463 300.084C604.472 300.608 604.085 301.064 603.562 301.122C600.212 301.481 588.08 302.695 573.054 303.326C574.68 298.307 576.694 293.425 579.115 288.727C585.195 276.914 595.148 267.693 601.316 255.899C602.41 253.802 603.465 251.686 604.492 249.551C604.008 255.054 603.62 260.568 603.717 266.072Z" fill="#65808E" fill-opacity="0.3" style="mix-blend-mode:multiply"/>
<circle cx="313" cy="398" r="26" fill="#1E3749" fill-opacity="0.8"/>
<path d="M313.5 402L312.827 402.74C313.209 403.087 313.791 403.087 314.173 402.74L313.5 402ZM308.673 396.26C308.264 395.889 307.632 395.919 307.26 396.327C306.889 396.736 306.919 397.368 307.327 397.74L308.673 396.26ZM319.673 397.74C320.081 397.368 320.111 396.736 319.74 396.327C319.368 395.919 318.736 395.889 318.327 396.26L319.673 397.74ZM314.173 401.26L308.673 396.26L307.327 397.74L312.827 402.74L314.173 401.26ZM318.327 396.26L312.827 401.26L314.173 402.74L319.673 397.74L318.327 396.26Z" fill="white"/>
</svg>
