<svg width="665" height="397" viewBox="0 0 665 397" fill="none" xmlns="http://www.w3.org/2000/svg">
<path d="M466.657 13.1667V377.972C466.657 382.004 463.398 385.272 459.377 385.272H436.163C435.896 385.272 435.679 385.055 435.679 384.787V376.458C435.679 375.615 434.991 374.924 434.15 374.924H416.908C416.067 374.924 415.379 375.615 415.379 376.458V384.787C415.379 385.055 415.162 385.272 414.895 385.272H210.467C210.2 385.272 209.983 385.055 209.983 384.787V376.458C209.983 375.614 209.296 374.924 208.444 374.924H191.213C190.371 374.924 189.683 375.615 189.683 376.458V384.787C189.683 385.055 189.466 385.272 189.199 385.272H165.985C161.958 385.272 158.705 382.001 158.705 377.972V13.1667C158.705 9.13539 161.964 5.86707 165.985 5.86707H459.377C463.395 5.86707 466.657 9.12859 466.657 13.1667Z" fill="#AFCFDC" stroke="#1E3749" stroke-width="1.5" stroke-miterlimit="10"/>
<path d="M189.337 25.2809H158.37C156.91 25.2809 155.726 24.0938 155.726 22.63V9.79254C155.726 5.339 159.326 1.72803 163.769 1.72803H189.337C190.797 1.72803 191.981 2.91518 191.981 4.37899V22.63C191.981 24.0938 190.797 25.2809 189.337 25.2809Z" fill="#91BFD2" stroke="#1E3749" stroke-width="1.5" stroke-miterlimit="10"/>
<path d="M436.376 25.2809H467.918C469.219 25.2809 470.274 24.2229 470.274 22.9182V9.79254C470.274 5.339 466.674 1.72803 462.231 1.72803H436.375C435.074 1.72803 434.019 2.78608 434.019 4.09069V22.9182C434.02 24.2229 435.074 25.2809 436.376 25.2809Z" fill="#91BFD2" stroke="#1E3749" stroke-width="1.5" stroke-miterlimit="10"/>
<path d="M452.339 362.74H173.024C170.908 362.74 169.194 361.021 169.194 358.9V37.8679C169.194 35.7469 170.908 34.0278 173.024 34.0278H452.338C454.453 34.0278 456.167 35.7469 456.167 37.8679V358.9C456.168 361.021 454.453 362.74 452.339 362.74Z" fill="white" stroke="#1E3749" stroke-width="1.5" stroke-miterlimit="10"/>
<path d="M456.774 358.901V362.745C456.774 364.861 455.052 366.579 452.92 366.579H172.122C169.991 366.579 168.268 364.861 168.268 362.745V358.901C168.268 361.017 169.991 362.745 172.122 362.745H452.92C455.052 362.745 456.774 361.017 456.774 358.901Z" fill="#7EA4B0"/>
<path d="M452.339 362.74H173.024C170.908 362.74 169.194 361.021 169.194 358.9V37.8679C169.194 35.7469 170.908 34.0278 173.024 34.0278H452.338C454.453 34.0278 456.167 35.7469 456.167 37.8679V358.9C456.168 361.021 454.453 362.74 452.339 362.74Z" fill="#8DB6C7" stroke="#1E3749" stroke-width="1.5" stroke-miterlimit="10"/>
<path d="M444.168 352.522H181.194C179.913 352.522 178.875 351.48 178.875 350.196V45.5479C178.875 44.2637 179.913 43.2222 181.194 43.2222H444.168C445.449 43.2222 446.488 44.2637 446.488 45.5479V350.196C446.488 351.48 445.449 352.522 444.168 352.522Z" fill="#C1D7DF" stroke="#1E3749" stroke-width="1.5" stroke-miterlimit="10"/>
<path d="M445.763 45.5684V49.6473C445.763 48.3563 444.732 47.3176 443.461 47.3176H181.846C180.565 47.3176 179.534 48.3563 179.534 49.6473V44.8501C179.534 44.3745 179.918 43.9882 180.393 43.9882H444.188C445.055 43.9882 445.763 44.6987 445.763 45.5684Z" fill="#7EA4B0"/>
<path d="M259.518 61.4771V78.1633C259.518 79.1534 258.724 79.9591 257.736 79.9591H253.322V82.6188C253.322 83.4147 252.673 84.0554 251.88 84.0554H241.221C240.427 84.0554 239.788 83.4147 239.788 82.6188V81.1142H250.35C251.144 81.1142 251.792 80.4638 251.792 79.6679V77.0179H255.239C256.226 77.0179 257.02 76.2122 257.02 75.2221V58.7397C257.891 58.8562 259.671 59.2445 259.518 61.4771Z" fill="#6D9FAA"/>
<path d="M238.259 79.6679C238.259 79.7649 238.268 79.862 238.288 79.9591H236.855C235.868 79.9591 235.064 79.1534 235.064 78.1633V76.9888C235.142 77.0082 235.229 77.0179 235.316 77.0179H238.259V79.6679Z" fill="#6D9FAA"/>
<path d="M394.835 61.4771V78.1633C394.835 79.1534 394.041 79.9591 393.054 79.9591H388.64V82.6188C388.64 83.4147 387.991 84.0554 387.197 84.0554H376.539C375.745 84.0554 375.106 83.4147 375.106 82.6188V81.1142H385.668C386.461 81.1142 387.11 80.4638 387.11 79.6679V77.0179H390.556C391.544 77.0179 392.338 76.2122 392.338 75.2221V58.7397C393.209 58.8562 394.988 59.2445 394.835 61.4771Z" fill="#6D9FAA"/>
<path d="M373.576 79.6679C373.576 79.7649 373.586 79.862 373.605 79.9591H372.173C371.185 79.9591 370.382 79.1534 370.382 78.1633V76.9888C370.459 77.0082 370.546 77.0179 370.633 77.0179H373.576V79.6679Z" fill="#6D9FAA"/>
<path d="M259.518 322.939V339.625C259.518 340.615 258.724 341.421 257.736 341.421H253.322V344.081C253.322 344.877 252.673 345.517 251.88 345.517H241.221C240.427 345.517 239.788 344.877 239.788 344.081V342.576H250.35C251.144 342.576 251.792 341.926 251.792 341.13V338.48H255.239C256.226 338.48 257.02 337.674 257.02 336.684V320.202C257.891 320.318 259.671 320.705 259.518 322.939Z" fill="#6D9FAA"/>
<path d="M238.259 341.13C238.259 341.227 238.268 341.324 238.288 341.421H236.855C235.868 341.421 235.064 340.615 235.064 339.625V338.451C235.142 338.47 235.229 338.48 235.316 338.48H238.259V341.13Z" fill="#6D9FAA"/>
<path d="M415.282 114.791C415.282 115.617 415.069 116.403 414.701 117.092C413.878 115.578 412.271 114.539 410.441 114.539H214.853C213.023 114.539 211.416 115.578 210.593 117.092C210.225 116.403 210.012 115.617 210.012 114.791C210.012 113.462 210.555 112.239 211.436 111.365C212.307 110.482 213.527 109.938 214.853 109.938H410.441C413.104 109.938 415.282 112.122 415.282 114.791Z" fill="#D2E8F0"/>
<path d="M210.012 162.458C210.012 161.633 210.225 160.847 210.593 160.158C211.416 161.672 213.023 162.711 214.853 162.711H410.441C412.271 162.711 413.878 161.672 414.701 160.158C415.069 160.847 415.282 161.633 415.282 162.458C415.282 163.788 414.74 165.011 413.859 165.885C412.988 166.768 411.768 167.312 410.441 167.312H214.853C212.191 167.312 210.012 165.128 210.012 162.458Z" fill="#9DBECA"/>
<path d="M415.282 217.706C415.282 218.531 415.069 219.317 414.701 220.007C413.878 218.492 412.271 217.454 410.441 217.454H214.853C213.023 217.454 211.416 218.492 210.593 220.007C210.225 219.317 210.012 218.531 210.012 217.706C210.012 216.376 210.555 215.153 211.436 214.28C212.307 213.396 213.527 212.853 214.853 212.853H410.441C413.104 212.853 415.282 215.037 415.282 217.706Z" fill="#D2E8F0"/>
<path d="M210.012 265.373C210.012 264.548 210.225 263.762 210.593 263.073C211.416 264.587 213.023 265.625 214.853 265.625H410.441C412.271 265.625 413.878 264.587 414.701 263.073C415.069 263.762 415.282 264.548 415.282 265.373C415.282 266.703 414.74 267.926 413.859 268.8C412.988 269.683 411.768 270.227 410.441 270.227H214.853C212.191 270.227 210.012 268.042 210.012 265.373Z" fill="#9DBECA"/>
<path d="M394.835 322.939V339.625C394.835 340.615 394.041 341.421 393.054 341.421H388.64V344.081C388.64 344.877 387.991 345.517 387.197 345.517H376.539C375.745 345.517 375.106 344.877 375.106 344.081V342.576H385.668C386.461 342.576 387.11 341.926 387.11 341.13V338.48H390.556C391.544 338.48 392.338 337.674 392.338 336.684V320.202C393.209 320.318 394.988 320.705 394.835 322.939Z" fill="#6D9FAA"/>
<path d="M373.576 341.13C373.576 341.227 373.586 341.324 373.605 341.421H372.173C371.185 341.421 370.382 340.615 370.382 339.625V338.451C370.459 338.47 370.546 338.48 370.633 338.48H373.576V341.13Z" fill="#6D9FAA"/>
<path d="M254.979 77.6022H235.065C234.078 77.6022 233.278 76.7995 233.278 75.8103V58.1457C233.278 57.1555 234.079 56.3538 235.065 56.3538H254.979C255.967 56.3538 256.766 57.1565 256.766 58.1457V75.8103C256.767 76.7995 255.967 77.6022 254.979 77.6022Z" fill="#7FA9B3" stroke="#1E3749" stroke-width="1.5" stroke-miterlimit="10"/>
<path opacity="0.3" d="M251.913 32.1272V371.598C251.913 373.287 250.548 374.665 248.854 374.665H246.812C245.514 374.665 244.411 373.86 243.956 372.724H245.989C247.683 372.724 249.058 371.345 249.058 369.656V30.1858C249.058 29.7878 248.98 29.4093 248.845 29.0598H248.854C250.548 29.0598 251.913 30.4285 251.913 32.1272Z" fill="#558693"/>
<path opacity="0.3" d="M387.869 32.1272V371.598C387.869 373.287 386.504 374.665 384.81 374.665H382.767C381.47 374.665 380.366 373.86 379.911 372.724H381.944C383.639 372.724 385.013 371.345 385.013 369.656V30.1858C385.013 29.7878 384.936 29.4093 384.8 29.0598H384.81C386.504 29.0598 387.869 30.4285 387.869 32.1272Z" fill="#558693"/>
<path d="M445.221 38.3047H179.439C178.912 38.3047 178.482 37.8727 178.482 37.3447C178.482 36.8166 178.912 36.3846 179.439 36.3846H445.221C445.748 36.3846 446.179 36.8166 446.179 37.3447C446.179 37.8727 445.748 38.3047 445.221 38.3047Z" fill="#AECFDD"/>
<path d="M444.456 357.034H179.439C178.912 357.034 178.482 356.602 178.482 356.074C178.482 355.546 178.912 355.114 179.439 355.114H444.456C444.982 355.114 445.413 355.546 445.413 356.074C445.413 356.602 444.982 357.034 444.456 357.034Z" fill="#AECFDD"/>
<path d="M175.556 351.956V44.4599C175.556 43.9318 175.987 43.4999 176.513 43.4999H176.577C177.104 43.4999 177.535 43.9318 177.535 44.4599V351.956C177.535 352.484 177.104 352.916 176.577 352.916H176.513C175.987 352.916 175.556 352.484 175.556 351.956Z" fill="#AECFDD"/>
<path d="M452.865 349.596V45.8809C452.865 45.4868 453.188 45.1636 453.581 45.1636C453.974 45.1636 454.296 45.4868 454.296 45.8809V349.596C454.296 349.99 453.974 350.313 453.581 350.313C453.187 350.313 452.865 349.99 452.865 349.596Z" fill="#AECFDD"/>
<path d="M238.288 80.9298H239.788V82.0849H239.692C238.995 82.0849 238.423 81.5899 238.288 80.9298Z" fill="#618087"/>
<path d="M245.788 372.725H243.746C242.054 372.725 240.682 371.349 240.682 369.653V30.1877C240.682 28.491 242.054 27.1155 243.746 27.1155H245.788C247.481 27.1155 248.852 28.491 248.852 30.1877V369.653C248.852 371.349 247.481 372.725 245.788 372.725Z" fill="#BED2DD" stroke="#1E3749" stroke-width="1.5" stroke-miterlimit="10"/>
<path d="M250.097 81.6986H239.438C238.645 81.6986 238.001 81.054 238.001 80.258V53.697C238.001 52.902 238.644 52.2565 239.438 52.2565H250.097C250.89 52.2565 251.534 52.901 251.534 53.697V80.258C251.533 81.053 250.89 81.6986 250.097 81.6986Z" fill="#A0BBCA" stroke="#1E3749" stroke-width="1.5" stroke-miterlimit="10"/>
<path d="M235.698 61.4411C236.306 61.4411 236.799 60.947 236.799 60.3374C236.799 59.7279 236.306 59.2338 235.698 59.2338C235.09 59.2338 234.598 59.7279 234.598 60.3374C234.598 60.947 235.09 61.4411 235.698 61.4411Z" fill="#1E3749"/>
<path d="M235.698 74.6892C236.306 74.6892 236.799 74.195 236.799 73.5855C236.799 72.9759 236.306 72.4818 235.698 72.4818C235.09 72.4818 234.598 72.9759 234.598 73.5855C234.598 74.195 235.09 74.6892 235.698 74.6892Z" fill="#1E3749"/>
<path d="M254.113 61.4411C254.721 61.4411 255.214 60.947 255.214 60.3374C255.214 59.7279 254.721 59.2338 254.113 59.2338C253.505 59.2338 253.012 59.7279 253.012 60.3374C253.012 60.947 253.505 61.4411 254.113 61.4411Z" fill="#1E3749"/>
<path d="M254.113 74.6892C254.721 74.6892 255.214 74.195 255.214 73.5855C255.214 72.9759 254.721 72.4818 254.113 72.4818C253.505 72.4818 253.012 72.9759 253.012 73.5855C253.012 74.195 253.505 74.6892 254.113 74.6892Z" fill="#1E3749"/>
<path d="M254.979 338.783H235.065C234.078 338.783 233.278 337.98 233.278 336.991V319.326C233.278 318.336 234.079 317.534 235.065 317.534H254.979C255.967 317.534 256.766 318.337 256.766 319.326V336.991C256.767 337.98 255.967 338.783 254.979 338.783Z" fill="#7FA9B3" stroke="#1E3749" stroke-width="1.5" stroke-miterlimit="10"/>
<path d="M250.097 342.879H239.438C238.645 342.879 238.001 342.234 238.001 341.438V314.877C238.001 314.082 238.644 313.437 239.438 313.437H250.097C250.89 313.437 251.534 314.081 251.534 314.877V341.438C251.533 342.233 250.89 342.879 250.097 342.879Z" fill="#A0BBCA" stroke="#1E3749" stroke-width="1.5" stroke-miterlimit="10"/>
<path d="M235.698 322.622C236.306 322.622 236.799 322.127 236.799 321.518C236.799 320.908 236.306 320.414 235.698 320.414C235.09 320.414 234.598 320.908 234.598 321.518C234.598 322.127 235.09 322.622 235.698 322.622Z" fill="#1E3749"/>
<path d="M235.698 335.87C236.306 335.87 236.799 335.375 236.799 334.766C236.799 334.156 236.306 333.662 235.698 333.662C235.09 333.662 234.598 334.156 234.598 334.766C234.598 335.375 235.09 335.87 235.698 335.87Z" fill="#1E3749"/>
<path d="M254.113 322.622C254.721 322.622 255.214 322.127 255.214 321.518C255.214 320.908 254.721 320.414 254.113 320.414C253.505 320.414 253.012 320.908 253.012 321.518C253.012 322.127 253.505 322.622 254.113 322.622Z" fill="#1E3749"/>
<g opacity="0.5">
<path opacity="0.5" d="M459.76 82.4867V84.5349C459.76 85.0687 459.334 85.5056 458.792 85.5056H441.008C440.476 85.5056 440.04 85.0687 440.04 84.5349V82.4867C440.04 83.0206 440.476 83.4574 441.008 83.4574H458.792C459.334 83.4574 459.76 83.0206 459.76 82.4867Z" fill="#618087"/>
<path opacity="0.5" d="M459.76 148.028V150.076C459.76 150.61 459.334 151.047 458.792 151.047H441.008C440.476 151.047 440.04 150.61 440.04 150.076V148.028C440.04 148.562 440.476 148.999 441.008 148.999H458.792C459.334 148.999 459.76 148.562 459.76 148.028Z" fill="#618087"/>
</g>
<g opacity="0.5">
<path opacity="0.5" d="M459.76 256.828V258.876C459.76 259.41 459.334 259.847 458.792 259.847H441.008C440.476 259.847 440.04 259.41 440.04 258.876V256.828C440.04 257.362 440.476 257.799 441.008 257.799H458.792C459.334 257.799 459.76 257.362 459.76 256.828Z" fill="#618087"/>
<path opacity="0.5" d="M459.76 322.369V324.417C459.76 324.951 459.334 325.388 458.792 325.388H441.008C440.476 325.388 440.04 324.951 440.04 324.417V322.369C440.04 322.903 440.476 323.34 441.008 323.34H458.792C459.334 323.34 459.76 322.903 459.76 322.369Z" fill="#618087"/>
</g>
<g opacity="0.5">
<path opacity="0.5" d="M185.757 82.4867V84.5349C185.757 85.0687 185.314 85.5056 184.751 85.5056H166.254C165.7 85.5056 165.247 85.0687 165.247 84.5349V82.4867C165.247 83.0206 165.7 83.4574 166.254 83.4574H184.751C185.314 83.4574 185.757 83.0206 185.757 82.4867Z" fill="#618087"/>
<path opacity="0.5" d="M185.757 148.028V150.076C185.757 150.61 185.314 151.047 184.751 151.047H166.254C165.7 151.047 165.247 150.61 165.247 150.076V148.028C165.247 148.562 165.7 148.999 166.254 148.999H184.751C185.314 148.999 185.757 148.562 185.757 148.028Z" fill="#618087"/>
</g>
<g opacity="0.5">
<path opacity="0.5" d="M185.757 256.828V258.876C185.757 259.41 185.314 259.847 184.751 259.847H166.254C165.7 259.847 165.247 259.41 165.247 258.876V256.828C165.247 257.362 165.7 257.799 166.254 257.799H184.751C185.314 257.799 185.757 257.362 185.757 256.828Z" fill="#618087"/>
<path opacity="0.5" d="M185.757 322.369V324.417C185.757 324.951 185.314 325.388 184.751 325.388H166.254C165.7 325.388 165.247 324.951 165.247 324.417V322.369C165.247 322.903 165.7 323.34 166.254 323.34H184.751C185.314 323.34 185.757 322.903 185.757 322.369Z" fill="#618087"/>
</g>
<path d="M254.113 335.87C254.721 335.87 255.214 335.375 255.214 334.766C255.214 334.156 254.721 333.662 254.113 333.662C253.505 333.662 253.012 334.156 253.012 334.766C253.012 335.375 253.505 335.87 254.113 335.87Z" fill="#1E3749"/>
<path d="M390.297 77.6022H370.383C369.395 77.6022 368.596 76.7995 368.596 75.8103V58.1457C368.596 57.1555 369.396 56.3538 370.383 56.3538H390.297C391.284 56.3538 392.084 57.1565 392.084 58.1457V75.8103C392.084 76.7995 391.283 77.6022 390.297 77.6022Z" fill="#7FA9B3" stroke="#1E3749" stroke-width="1.5" stroke-miterlimit="10"/>
<path d="M381.105 372.725H379.062C377.37 372.725 375.999 371.349 375.999 369.653V30.1877C375.999 28.491 377.37 27.1155 379.062 27.1155H381.105C382.797 27.1155 384.169 28.491 384.169 30.1877V369.653C384.169 371.349 382.797 372.725 381.105 372.725Z" fill="#BED2DD" stroke="#1E3749" stroke-width="1.5" stroke-miterlimit="10"/>
<path d="M385.414 81.6986H374.755C373.962 81.6986 373.318 81.054 373.318 80.258V53.697C373.318 52.902 373.961 52.2565 374.755 52.2565H385.414C386.207 52.2565 386.851 52.901 386.851 53.697V80.258C386.85 81.053 386.207 81.6986 385.414 81.6986Z" fill="#A0BBCA" stroke="#1E3749" stroke-width="1.5" stroke-miterlimit="10"/>
<path d="M371.015 61.4411C371.623 61.4411 372.116 60.947 372.116 60.3374C372.116 59.7279 371.623 59.2338 371.015 59.2338C370.407 59.2338 369.914 59.7279 369.914 60.3374C369.914 60.947 370.407 61.4411 371.015 61.4411Z" fill="#1E3749"/>
<path d="M371.015 74.6892C371.623 74.6892 372.116 74.195 372.116 73.5855C372.116 72.9759 371.623 72.4818 371.015 72.4818C370.407 72.4818 369.914 72.9759 369.914 73.5855C369.914 74.195 370.407 74.6892 371.015 74.6892Z" fill="#1E3749"/>
<path d="M389.43 61.4411C390.037 61.4411 390.53 60.947 390.53 60.3374C390.53 59.7279 390.037 59.2338 389.43 59.2338C388.822 59.2338 388.329 59.7279 388.329 60.3374C388.329 60.947 388.822 61.4411 389.43 61.4411Z" fill="#1E3749"/>
<path d="M389.43 74.6892C390.037 74.6892 390.53 74.195 390.53 73.5855C390.53 72.9759 390.037 72.4818 389.43 72.4818C388.822 72.4818 388.329 72.9759 388.329 73.5855C388.329 74.195 388.822 74.6892 389.43 74.6892Z" fill="#1E3749"/>
<path d="M390.297 338.783H370.383C369.395 338.783 368.596 337.98 368.596 336.991V319.326C368.596 318.336 369.396 317.534 370.383 317.534H390.297C391.284 317.534 392.084 318.337 392.084 319.326V336.991C392.084 337.98 391.283 338.783 390.297 338.783Z" fill="#7FA9B3" stroke="#1E3749" stroke-width="1.5" stroke-miterlimit="10"/>
<path d="M385.414 342.879H374.755C373.962 342.879 373.318 342.234 373.318 341.438V314.877C373.318 314.082 373.961 313.437 374.755 313.437H385.414C386.207 313.437 386.851 314.081 386.851 314.877V341.438C386.85 342.233 386.207 342.879 385.414 342.879Z" fill="#A0BBCA" stroke="#1E3749" stroke-width="1.5" stroke-miterlimit="10"/>
<path d="M371.015 322.622C371.623 322.622 372.116 322.127 372.116 321.518C372.116 320.908 371.623 320.414 371.015 320.414C370.407 320.414 369.914 320.908 369.914 321.518C369.914 322.127 370.407 322.622 371.015 322.622Z" fill="#1E3749"/>
<path d="M371.015 335.87C371.623 335.87 372.116 335.375 372.116 334.766C372.116 334.156 371.623 333.662 371.015 333.662C370.407 333.662 369.914 334.156 369.914 334.766C369.914 335.375 370.407 335.87 371.015 335.87Z" fill="#1E3749"/>
<path d="M389.43 322.622C390.037 322.622 390.53 322.127 390.53 321.518C390.53 320.908 390.037 320.414 389.43 320.414C388.822 320.414 388.329 320.908 388.329 321.518C388.329 322.127 388.822 322.622 389.43 322.622Z" fill="#1E3749"/>
<path d="M389.43 335.87C390.037 335.87 390.53 335.375 390.53 334.766C390.53 334.156 390.037 333.662 389.43 333.662C388.822 333.662 388.329 334.156 388.329 334.766C388.329 335.375 388.822 335.87 389.43 335.87Z" fill="#1E3749"/>
<path d="M312.681 43.7561V351.988" stroke="#1E3749" stroke-width="1.5" stroke-miterlimit="10"/>
<path d="M184.853 83.5652H167.066C166.532 83.5652 166.098 83.1304 166.098 82.5945V73.7836C166.098 73.2477 166.532 72.8129 167.066 72.8129H184.853C185.388 72.8129 185.821 73.2477 185.821 73.7836V82.5945C185.821 83.1304 185.388 83.5652 184.853 83.5652Z" fill="#71A2AE" stroke="#1E3749" stroke-width="1.5" stroke-miterlimit="10"/>
<path d="M184.853 149.102H167.066C166.532 149.102 166.098 148.668 166.098 148.132V139.321C166.098 138.785 166.532 138.35 167.066 138.35H184.853C185.388 138.35 185.821 138.785 185.821 139.321V148.132C185.821 148.668 185.388 149.102 184.853 149.102Z" fill="#71A2AE" stroke="#1E3749" stroke-width="1.5" stroke-miterlimit="10"/>
<path d="M184.853 257.991H167.066C166.532 257.991 166.098 257.556 166.098 257.02V248.209C166.098 247.673 166.532 247.239 167.066 247.239H184.853C185.388 247.239 185.821 247.673 185.821 248.209V257.02C185.821 257.556 185.388 257.991 184.853 257.991Z" fill="#71A2AE" stroke="#1E3749" stroke-width="1.5" stroke-miterlimit="10"/>
<path d="M184.853 323.528H167.066C166.532 323.528 166.098 323.093 166.098 322.558V313.747C166.098 313.211 166.532 312.776 167.066 312.776H184.853C185.388 312.776 185.821 313.211 185.821 313.747V322.558C185.821 323.094 185.388 323.528 184.853 323.528Z" fill="#71A2AE" stroke="#1E3749" stroke-width="1.5" stroke-miterlimit="10"/>
<path d="M458.796 83.5652H441.008C440.474 83.5652 440.04 83.1304 440.04 82.5945V73.7836C440.04 73.2477 440.474 72.8129 441.008 72.8129H458.796C459.33 72.8129 459.764 73.2477 459.764 73.7836V82.5945C459.764 83.1304 459.33 83.5652 458.796 83.5652Z" fill="#71A2AE" stroke="#1E3749" stroke-width="1.5" stroke-miterlimit="10"/>
<path d="M458.796 149.102H441.008C440.474 149.102 440.04 148.668 440.04 148.132V139.321C440.04 138.785 440.474 138.35 441.008 138.35H458.796C459.33 138.35 459.764 138.785 459.764 139.321V148.132C459.764 148.668 459.33 149.102 458.796 149.102Z" fill="#71A2AE" stroke="#1E3749" stroke-width="1.5" stroke-miterlimit="10"/>
<path d="M458.796 257.991H441.008C440.474 257.991 440.04 257.556 440.04 257.02V248.209C440.04 247.673 440.474 247.239 441.008 247.239H458.796C459.33 247.239 459.764 247.673 459.764 248.209V257.02C459.764 257.556 459.33 257.991 458.796 257.991Z" fill="#71A2AE" stroke="#1E3749" stroke-width="1.5" stroke-miterlimit="10"/>
<path d="M458.796 323.528H441.008C440.474 323.528 440.04 323.093 440.04 322.558V313.747C440.04 313.211 440.474 312.776 441.008 312.776H458.796C459.33 312.776 459.764 313.211 459.764 313.747V322.558C459.764 323.094 459.33 323.528 458.796 323.528Z" fill="#71A2AE" stroke="#1E3749" stroke-width="1.5" stroke-miterlimit="10"/>
<path d="M435.072 26.0273H465.902V27.7552H437.596C436.479 27.7552 435.476 27.0689 435.072 26.0273Z" fill="#7EA4B0"/>
<path d="M190.246 26.0273H159.417V27.7552H187.723C188.84 27.7552 189.843 27.0688 190.246 26.0273Z" fill="#7EA4B0"/>
<path d="M141 378.538C141 382.15 123.494 385.077 101.899 385.077C80.3044 385.077 62.7983 382.15 62.7983 378.538C62.7983 374.927 80.3044 372 101.899 372C123.494 372 141 374.927 141 378.538Z" fill="#CEE9F3"/>
<path d="M78.2017 382.462C78.2017 386.073 60.6956 389 39.1008 389C17.506 389 0 386.073 0 382.462C0 378.85 17.506 375.923 39.1008 375.923C60.6956 375.923 78.2017 378.85 78.2017 382.462Z" fill="#CEE9F3"/>
<path d="M85.1977 55.9695L91.5986 64.1589C91.5986 64.1589 93.1345 66.7816 92.1102 68.829C92.1102 68.829 91.7899 70.2369 88.1413 70.8123L85.1977 55.9695Z" fill="#F3BBA3" stroke="#203749" stroke-width="1.5" stroke-miterlimit="10" stroke-linejoin="round"/>
<path d="M83.4054 49.7643C83.4054 49.7643 90.319 68.8289 89.0384 78.2981C89.0384 78.2981 89.2947 85.719 75.9793 86.7427L76.1074 103.121L48.0697 89.0453L48.1979 81.7524L39.8766 62.3036L83.4054 49.7643Z" fill="#F3EBE0" stroke="#203749" stroke-width="1.5" stroke-miterlimit="10" stroke-linejoin="round"/>
<path d="M106.023 45.7405L82.7356 51.5371L82.1763 49.2918L105.688 44.4403C105.937 44.3782 106.19 44.5296 106.252 44.779L106.355 45.1913C106.414 45.4329 106.266 45.6794 106.023 45.7405Z" fill="#627885" stroke="#203749" stroke-width="1.5" stroke-miterlimit="10" stroke-linejoin="round"/>
<path d="M39.3737 62.2696C38.7805 62.4356 38.4086 63.0216 38.5174 63.6271C38.9824 66.2081 40.4183 72.9323 43.461 77.8499C43.461 77.8499 45.5998 81.3139 47.3251 82.9624C47.8377 83.4524 48.6649 83.3758 49.0959 82.812L52.3542 78.5465C52.694 78.1021 52.6794 77.4811 52.3202 77.0523C50.9221 75.3843 49.5552 73.5126 49.2998 71.2547C49.0707 69.2365 49.594 66.8825 51.6454 66.0121C52.9406 65.4629 54.4493 65.8637 55.4804 66.7651C57.2639 68.3253 57.7978 70.9423 59.8803 72.1726C60.3959 72.4773 60.9765 72.6956 61.5755 72.7092C63.3133 72.749 64.3939 70.9966 64.5852 69.4684V56.7797C64.5852 55.9869 63.8279 55.4135 63.0648 55.6279L39.3737 62.2696Z" fill="#B69883" stroke="#203749" stroke-width="1.5" stroke-miterlimit="10" stroke-linejoin="round"/>
<path d="M100.092 120.724C99.6782 121.639 112.747 125.614 114.066 125.762C119.443 126.362 123.767 123.85 127.938 120.724C127.938 120.724 141.765 109.784 146.182 101.531C146.182 101.531 150.983 80.2272 156.552 74.4694C156.552 74.4694 159.432 71.9747 159.24 77.7325L158.472 92.3191C158.472 92.3191 161.16 87.1367 161.928 86.1771C161.928 86.1771 164.424 83.4903 164.233 88.0963C164.103 91.2139 163.737 94.2675 162.763 97.2522C162.265 98.7784 161.625 100.265 160.799 101.643C160.373 102.353 159.897 103.035 159.368 103.674C158.705 104.473 157.876 105.06 157.368 105.981C157.163 106.352 156.955 106.72 156.745 107.089C156.057 108.299 155.355 109.5 154.641 110.695C152.421 114.409 150.09 118.059 147.636 121.624C144.683 125.913 141.552 130.095 138.108 134.006C134.964 137.577 131.528 141.051 127.506 143.635C127.024 143.945 126.532 144.267 126.019 144.524C126.017 144.525 111.806 151.624 91.0675 140.685C91.0656 140.685 100.08 120.75 100.092 120.724Z" fill="#EAD9CA" stroke="#203749" stroke-width="1.5" stroke-miterlimit="10" stroke-linejoin="round"/>
<path d="M38.0203 63.9561C38.0203 63.9561 84.1588 51.1645 84.1734 51.1606C84.3938 51.0995 82.32 46.4013 82.186 46.1461C80.2919 42.5288 77.5793 39.3316 74.1861 37.0378C64.9036 30.76 50.9474 31.1219 43.1261 39.5684C39.0106 44.0134 37.1669 49.9206 37.1494 55.9093C37.1407 58.6136 37.4708 61.312 38.0203 63.9561Z" fill="#627885" stroke="#203749" stroke-width="1.5" stroke-miterlimit="10" stroke-linejoin="round"/>
<path d="M90.518 291.072L97.6141 357.515L85.6617 359.009C85.6617 359.009 68.1075 322.054 63.2522 303.016L59.1434 289.578L90.518 291.072Z" fill="#EADBCA" stroke="#203749" stroke-width="1.5" stroke-miterlimit="10" stroke-linejoin="round"/>
<path d="M84.5559 357.88L99.8927 355.651C101.582 355.405 103.306 355.598 104.899 356.212L125.293 364.076C126.069 364.376 126.793 364.8 127.404 365.364C128.364 366.25 129.549 367.719 129.59 369.604C129.64 371.971 127.773 373.949 125.431 374.311C120.701 375.04 108.553 376.68 89.3976 377.673C89.3976 377.673 83.9821 378.606 82.3016 372.633L81.9967 360.915C81.9569 359.403 83.0569 358.099 84.5559 357.88Z" fill="#2C97C8" stroke="#1F3749" stroke-width="1.5" stroke-miterlimit="10" stroke-linejoin="round"/>
<path d="M88.1423 204.074C88.1423 204.074 90.0627 223.651 91.5986 231.712C91.5986 231.712 95.8238 259.351 98.1277 291.211C98.1277 291.211 83.1482 294.665 61.6405 295.049L51.6542 203.691L87.7578 200.62L88.1423 204.074Z" fill="#4B5B65" stroke="#203749" stroke-width="1.5" stroke-miterlimit="10" stroke-linejoin="round"/>
<path d="M40.5377 359.249L28.6096 355.794L43.2047 285.165L72.3948 292.842L40.5377 359.249Z" fill="#F3EBE0" stroke="#203749" stroke-width="1.5" stroke-miterlimit="10" stroke-linejoin="round"/>
<path d="M30.998 206.94C29.4456 207.055 28.2728 208.384 28.3592 209.938C28.7427 216.828 30.1087 235.589 34.3708 256.28C34.3708 256.28 37.2698 268.957 36.3795 291.847C36.331 293.086 37.0756 294.216 38.2387 294.646C43.7795 296.7 60.3629 302.313 77.8521 303.044C79.1734 303.099 80.3637 302.27 80.7356 301.002C82.9724 293.385 89.8268 265.796 84.3006 229.408L80.4938 205.888C80.2569 204.426 78.9424 203.389 77.4657 203.499L30.998 206.94Z" fill="#51636E" stroke="#203749" stroke-width="1.5" stroke-miterlimit="10" stroke-linejoin="round"/>
<path d="M77.0045 105.423L106.77 120.202C106.77 120.202 106.963 131.334 98.7044 149.95L70.8589 135.556L77.0045 105.423Z" fill="#405059" stroke="#203749" stroke-width="1.5" stroke-miterlimit="10" stroke-linejoin="round"/>
<path d="M42.4368 91.9882C42.4368 91.9882 30.7223 102.736 28.4174 140.354C28.4174 140.354 26.1572 192.317 26.6 209.752C26.6339 211.073 27.7271 212.112 29.0485 212.068C37.4834 211.783 66.7055 210.44 86.6773 205.035C87.8802 204.709 88.7316 203.641 88.753 202.396L89.486 159.547C89.486 159.547 88.9103 117.323 78.156 107.918L42.4368 91.9882Z" fill="#5B6D78" stroke="#203749" stroke-width="1.5" stroke-miterlimit="10" stroke-linejoin="round"/>
<path d="M66.3259 378.729C66.1745 381.175 64.5114 382.139 63.5094 382.508C63.1502 382.64 62.7726 382.706 62.3852 382.735C51.4027 383.415 33.5776 378.862 24.4009 376.245C21.2252 375.338 19.5243 371.91 20.7243 368.84L20.9699 368.217C25.6009 371.419 29.9485 372.222 29.9485 372.222C44.3047 375.472 55.9775 375.085 64.0483 373.904C65.5318 375.064 66.4386 376.85 66.3259 378.729Z" fill="#208EB5"/>
<path d="M88.6986 160.76L88.3015 183.875C82.7132 181 66.4318 171.437 54.5677 152.3C56.1755 153.8 57.8124 155.233 59.4396 156.626C63.8366 160.392 68.4764 163.993 73.3482 167.148C74.1424 167.661 75.2074 167.516 75.8375 166.8C78.2492 164.08 80.4482 161.408 82.4433 158.853C84.4753 159.618 86.5773 160.246 88.6986 160.76Z" fill="#51636E" fill-opacity="0.3" style="mix-blend-mode:multiply"/>
<path d="M50.3357 209.96C50.3357 209.96 47.3115 172.937 57.8959 154.048" stroke="white" stroke-width="1.5" stroke-miterlimit="10" stroke-linecap="round" stroke-linejoin="round"/>
<path d="M46.727 85.7259C45.7775 86.964 43.562 89.8535 42.5047 91.2314C42.1911 91.6408 42.2969 92.2259 42.7348 92.4996C46.2561 94.7022 60.8658 103.629 78.8249 111.664C79.4647 111.95 80.1676 111.402 80.0453 110.712L78.6802 103.009C78.4715 101.834 77.7268 100.83 76.6589 100.295C72.9502 98.4398 63.1823 93.5126 47.8319 85.4872C47.4552 85.2902 46.9853 85.3882 46.727 85.7259Z" fill="#627885" stroke="#203749" stroke-width="1.5" stroke-miterlimit="10" stroke-linejoin="round"/>
<path d="M87.552 135.731C87.5967 135.694 87.6413 135.657 87.686 135.62C88.6083 134.859 92.3928 137.826 93.2005 138.366C95.6772 140.02 98.2879 141.433 101.059 142.532C108.821 145.612 116.809 145.472 125.01 145.352C133.714 145.225 142.457 144.597 150.982 142.764C154.071 142.096 154.631 137.436 155.787 134.869C157.298 131.51 159.164 127.567 162.269 125.384C162.269 125.384 165.918 124.04 163.805 128.839C163.805 128.839 162.269 132.102 163.229 133.252C163.229 133.252 165.15 133.252 168.798 131.141C168.798 131.141 174.367 127.878 176.864 125.959C176.864 125.959 180.32 122.696 181.089 127.302C182.037 132.985 179.187 137.918 174.718 141.079C165.12 147.869 154.347 153.563 143.147 157.209C129.075 161.789 114.167 163.517 99.4442 161.819C89.0491 160.62 77.4492 157.837 69.7065 150.334C75.6599 145.472 81.622 140.622 87.552 135.731Z" fill="#F3EBE0" stroke="#203749" stroke-width="1.5" stroke-miterlimit="10" stroke-linejoin="round"/>
<path d="M24.7825 357.026L20.1252 368.93C18.8913 372.085 20.6408 375.61 23.899 376.539C33.332 379.229 51.6416 383.899 62.925 383.201C63.3201 383.177 63.7046 383.103 64.0774 382.969C65.1046 382.596 66.8114 381.601 66.9657 379.085C67.092 377.033 66.0269 375.088 64.3347 373.918L43.7212 359.655C43.2105 359.302 42.6397 359.043 42.0377 358.891L28.0155 355.362C26.6728 355.024 25.2873 355.738 24.7825 357.026Z" fill="#369AC7" stroke="#1F3749" stroke-width="1.5" stroke-miterlimit="10" stroke-linejoin="round"/>
<path d="M72.3016 116.485C74.8395 118.437 77.2278 120.535 79.4472 122.452C80.5521 123.406 92.0326 132.568 95.452 135.912C96.0723 136.518 96.2102 137.461 95.7879 138.218C93.7986 141.784 87.0015 153.339 75.8026 165.993C75.1734 166.703 74.1074 166.855 73.3113 166.339C68.4259 163.171 63.7735 159.568 59.3658 155.789C51.9212 149.406 44.1076 142.077 41.0193 132.48C38.4572 124.519 40.5591 113.317 49.3503 110.187C57.8085 107.175 65.5793 111.315 72.3016 116.485Z" fill="#51636E" stroke="#203749" stroke-width="1.5" stroke-miterlimit="10" stroke-linejoin="round"/>
<path d="M79.7763 57.5288L74.6715 59.6246C74.2628 59.7925 73.7948 59.5975 73.6269 59.189C73.4589 58.7805 73.654 58.3128 74.0628 58.1449L79.1676 56.0491C79.5763 55.8812 80.0443 56.0762 80.2123 56.4847C80.3802 56.8932 80.1851 57.3609 79.7763 57.5288Z" fill="#875B4D"/>
<path d="M79.4123 64.0356C80.4332 64.0356 81.2608 63.2341 81.2608 62.2454C81.2608 61.2567 80.4332 60.4552 79.4123 60.4552C78.3913 60.4552 77.5637 61.2567 77.5637 62.2454C77.5637 63.2341 78.3913 64.0356 79.4123 64.0356Z" fill="#1F3749"/>
<path d="M83.6773 74.9225C80.4122 76.2178 74.2035 76.1489 72.8754 71.1315" stroke="#CC4B62" stroke-width="1.5" stroke-miterlimit="10" stroke-linecap="round" stroke-linejoin="round"/>
<path d="M75.1793 86.049L69.7385 86.3692C69.7385 86.3692 72.4269 92.8945 75.3074 93.0866L75.1793 86.049Z" fill="#E9C2B5"/>
<path d="M49.0629 296.912L38.7523 294.642L38.228 294.38C37.364 293.846 36.8494 292.885 36.8882 291.847C37.7814 268.958 34.8785 256.276 34.8785 256.276C31.063 237.772 29.5776 220.801 29.0242 212.495L29.5582 212.068C27.2378 213.924 35.8941 232.846 36.7562 234.746C44.8338 252.569 64.5036 277.08 49.0629 296.912Z" fill="#65808E" fill-opacity="0.3" style="mix-blend-mode:multiply"/>
<ellipse cx="531.5" cy="381" rx="40.5" ry="9" fill="#CEE9F3"/>
<ellipse cx="608" cy="386.5" rx="39" ry="6.5" fill="#CEE9F3"/>
<ellipse cx="622" cy="390.5" rx="39" ry="6.5" fill="#CEE9F3"/>
<path d="M643.118 329.667L641.311 369.694L624.688 368.94L619.63 323.248L643.118 329.667Z" fill="#F3E8E3" stroke="#1E3749" stroke-width="1.5" stroke-miterlimit="10"/>
<path d="M617.316 328.712L615.635 368.74L600.167 367.985L595.46 322.293L617.316 328.712Z" fill="#F3E8E3" stroke="#1E3749" stroke-width="1.5" stroke-miterlimit="10"/>
<path d="M589.609 220.536C589.609 220.536 588.667 222.235 588.479 226.201L587.554 325.165C587.544 326.202 587.631 327.308 589.515 327.779C594.13 328.439 608.827 327.967 608.827 327.967L608.907 329.8C608.972 331.301 610.051 332.561 611.523 332.84C617.128 333.907 631.431 335.978 647.277 333.189C648.263 333.016 648.991 332.172 649.035 331.17C649.599 318.223 653.085 235.486 650.655 218.268L589.609 220.536Z" fill="#8CC6CA" stroke="#1E3749" stroke-width="1.5" stroke-miterlimit="10"/>
<path d="M533.437 360.813C533.437 360.813 534.305 366.42 535.463 369.223C535.463 369.223 536.621 372.51 535.753 374.057C535.753 374.057 534.21 375.797 528.806 377.151C518.838 379.902 508.425 382.005 498.225 379.084C497.669 378.925 497.35 378.073 497.443 377.578C497.664 376.402 499.105 375.858 500.069 375.465C503.582 374.033 506.716 371.953 509.961 370.031C513.6 367.875 518.947 365.119 520.51 360.908C521.024 359.523 533.437 360.813 533.437 360.813Z" fill="#F59AAD" stroke="#1E3749" stroke-width="1.5" stroke-miterlimit="10"/>
<path d="M661.486 144.46C665.613 166.15 661.42 200.946 660.406 208.526C660.289 209.402 659.591 210.087 658.714 210.18C652.454 210.852 647.91 210.978 644.693 210.879L644.877 221.594L637.089 222.349C600.915 225.874 590.363 220.839 590.363 220.839C587.097 219.58 587.851 216.056 587.851 216.056L586.344 176.029C579.31 182.575 566.247 185.092 566.247 185.092L559.465 166.462C563.928 163.676 568.248 160.592 571.984 156.865C577.401 151.462 580.698 144.263 585.294 138.2C587.472 135.326 589.872 132.939 592.593 130.57C596.458 127.208 600.634 124.104 605.213 121.785C606.95 120.906 608.796 120.047 610.712 119.637L622.519 111.329C627.081 112.2 631.466 113.837 635.66 115.811C639.863 117.788 644.08 119.881 647.746 122.772C651.289 125.564 654.318 129.023 656.734 132.831C657.231 133.615 657.702 134.416 658.144 135.232C659.709 138.12 660.871 141.23 661.486 144.46Z" fill="#E8A2A2" stroke="#1E3749" stroke-width="1.5" stroke-miterlimit="10"/>
<path d="M575.285 180.628C575.285 180.628 577.085 183.593 576.571 206.924C576.571 206.924 576.185 223.424 567.825 222.006L558.691 209.503L555.09 182.691L575.285 180.628Z" fill="#FDEDEB" stroke="#1E3749" stroke-width="1.5" stroke-miterlimit="10"/>
<path d="M555.508 362.768C555.508 362.768 556.377 368.375 557.535 371.178C557.535 371.178 558.692 374.465 557.824 376.012C557.824 376.012 556.281 377.752 550.878 379.106C540.91 381.857 530.497 383.96 520.297 381.039C519.741 380.88 519.422 380.028 519.514 379.533C519.736 378.357 521.177 377.813 522.14 377.42C525.654 375.988 528.788 373.908 532.032 371.986C535.672 369.83 541.018 367.074 542.582 362.863C543.095 361.478 555.508 362.768 555.508 362.768Z" fill="#F59AAD" stroke="#1E3749" stroke-width="1.5" stroke-miterlimit="10"/>
<path d="M518.687 217.269C518.687 217.269 511.483 232.995 512.256 253.878C512.256 253.878 513.799 279.659 517.144 315.235L520.745 360.866C520.745 360.866 527.177 362.413 533.609 361.124L538.239 308.791C538.239 308.791 542.098 355.969 541.584 363.961C541.584 363.961 550.073 364.992 555.476 363.188C555.476 363.188 556.505 357 558.564 352.36C558.564 352.36 566.024 330.446 566.796 301.831C566.796 301.831 568.34 289.972 571.17 275.535C571.17 275.535 576.058 257.746 569.37 233.771L564.224 216.755L518.687 217.269Z" fill="#86A3DB" stroke="#1E3749" stroke-width="1.5" stroke-miterlimit="10"/>
<path d="M531.952 150.104C531.952 150.104 515.922 153.945 510.52 164.773C510.52 164.773 506.985 170.833 505.213 182.585C505.163 182.923 505.429 183.233 505.769 183.227L514.829 183.045C514.829 183.045 514.186 189.683 514.251 193.679C514.251 193.679 515.73 200.64 516.694 205.861L517.466 217.655C517.466 218.129 517.836 218.517 518.308 218.529C523.317 218.67 547.546 219.489 560.841 217.019C561.226 216.948 561.486 216.595 561.457 216.205L558.08 194.356L556.922 188.071C556.922 188.071 570.592 185.066 575.333 183.028C575.695 182.872 575.912 182.506 575.873 182.112C575.596 179.301 574.026 167.857 566.376 159.938C566.376 159.938 558.851 152.011 547.95 149.884L531.952 150.104Z" fill="#8ACDC1" stroke="#1E3749" stroke-width="1.5" stroke-miterlimit="10"/>
<path d="M563.515 216.689L541.809 197.16L526.084 187.88L515.665 211.372L527.049 200.157C531.583 203.831 536.021 208.472 540.835 212.545C547.338 218.047 556.661 226.755 565.927 223.456C576.249 219.782 563.515 216.689 563.515 216.689Z" fill="#849B97" fill-opacity="0.3" style="mix-blend-mode:multiply"/>
<path d="M530.52 160.291C532.75 163.482 538.112 163.439 541.455 162.743C547.495 161.487 550.708 154.159 551.363 152.504C551.446 152.293 551.493 152.075 551.5 151.849L551.746 144.954C551.746 143.69 552.625 142.447 553.539 141.65C554.452 140.855 555.754 140.737 556.894 140.459L558.889 139.972C559.014 139.942 559.14 139.899 559.257 139.847C565.09 137.224 564.834 132.327 564.75 131.53C564.742 131.452 564.736 131.374 564.736 131.294C564.737 130.108 564.753 128.919 564.748 127.732C564.745 127.049 565.062 126.37 565.664 126.048C566.334 125.689 566.863 124.967 567.18 124.33C568.081 122.748 566.629 121.655 565.569 120.748C564.951 120.218 564.247 119.665 563.986 118.891C563.699 118.037 563.508 117.144 563.237 116.283C562.388 113.59 561.316 110.962 559.855 108.531C559.329 107.656 558.712 106.843 558.054 106.063C557.171 105.015 556.005 103.824 554.702 103.448L536.758 98.2752C536.227 98.1217 535.656 98.2009 535.187 98.4932L519.212 108.425C518.645 108.778 518.296 109.395 518.287 110.064L518.044 128.584C518.041 128.833 519.375 129.713 519.555 129.866C520.77 130.897 521.984 131.928 523.199 132.958C524.914 134.415 526.631 135.871 528.347 137.327C529.06 137.932 529.774 138.538 530.487 139.143C530.936 139.524 532.107 140.224 532.29 140.762C532.327 140.871 532.327 140.99 532.327 141.106C532.318 143.764 532.323 146.421 532.323 149.079C532.323 149.273 531.648 149.906 531.503 150.104C531.182 150.54 530.882 150.992 530.612 151.462C530.098 152.358 529.684 153.319 529.453 154.328C529.001 156.301 529.346 158.61 530.52 160.291Z" fill="#FDEEED" stroke="#1E3749" stroke-width="1.5" stroke-miterlimit="10"/>
<path d="M519.523 175.633C519.523 175.633 517.851 174.344 519.523 172.41L524.54 167.254C524.54 167.254 525.826 165.063 529.685 166.739L534.445 170.219C534.445 170.219 535.602 170.992 535.087 174.988L534.83 182.078C534.83 182.078 535.087 185.43 537.146 187.621C537.146 187.621 547.179 196.773 560.17 202.315C560.17 202.315 571.36 205.538 573.676 213.143C574.7 216.508 573.825 222.101 569.707 222.763C562.453 223.928 555.246 220.743 549.623 216.366C549.623 216.366 538.046 204.249 532.129 197.031C532.129 197.031 528.141 192.133 526.598 191.746L522.353 187.75L519.523 175.633Z" fill="#FDEEED" stroke="#1E3749" stroke-width="1.5" stroke-miterlimit="10"/>
<path d="M635.209 156.936C635.306 158.151 637.118 187.718 636.977 208.415C636.97 209.352 637.623 209.994 638.549 210.317C638.549 210.317 640.013 210.922 645.347 210.938" stroke="#1E3749" stroke-width="1.5" stroke-miterlimit="10" stroke-linecap="round"/>
<path d="M532.324 140.576C532.324 140.576 527.369 144.506 520.745 140.312C513.703 135.855 508.855 127.683 508.572 119.168C508.338 112.218 510.884 105.552 514.785 99.892C515.263 99.2078 515.761 98.543 516.297 97.8979C517.565 102.795 519.019 107.458 522.228 111.554C525.203 115.337 528.266 118.836 531.153 122.482C530.471 122.072 529.739 121.769 528.881 121.798C527.505 121.847 526.813 122.883 526.208 124.076C524.735 127.008 528.842 128.777 528.851 128.777C532.704 130.908 533.329 131.065 534.207 133.352C535.221 135.991 534.216 138.611 532.324 140.576Z" fill="#E06C77"/>
<path d="M556.487 104.893C555.335 104.652 554.211 104.152 553.069 103.959C548.962 103.266 544.688 103.771 541.333 106.412C538.756 108.442 537.606 111.596 537.417 114.811C537.381 115.427 537.378 116.044 537.404 116.661C537.404 116.661 537.662 120.013 540.041 121.817C540.041 121.817 542.484 123.171 542.035 124.589C541.584 126.007 540.041 126.716 538.111 126.135C537.352 125.907 536.62 125.731 535.885 125.4C534.897 124.953 533.954 124.409 533.042 123.823C531.823 123.04 530.685 121.996 529.141 122.051C527.763 122.1 527.07 123.141 526.47 124.331C524.992 127.263 529.098 129.031 529.107 129.035C532.966 131.162 533.588 131.321 534.465 133.608C535.478 136.251 534.47 138.867 532.581 140.83C532.581 140.83 527.628 144.762 521.004 140.572C513.957 136.116 509.117 127.941 508.828 119.427C508.593 112.473 511.145 105.807 515.046 100.148C520.068 92.8608 528.717 88.1628 537.619 88.4796C540.057 88.5666 542.48 89.0416 544.76 89.9175C549.975 91.9204 554.615 95.502 558.196 99.7659C558.499 100.127 558.793 100.494 559.078 100.869C559.745 101.747 560.047 103.495 559.282 104.397C558.928 104.814 558.365 105.003 557.82 105.023C557.37 105.039 556.926 104.985 556.487 104.893Z" fill="#F38087" stroke="#1E3749" stroke-width="1.5" stroke-miterlimit="10"/>
<path d="M507.175 118.031C504.493 122.141 498.332 124.71 494.437 120.559C490.524 116.388 490.981 109.517 494.994 105.627C497.055 103.63 499.853 102.476 502.738 103.317C504.55 103.846 506.019 105.164 506.998 106.753C507.209 107.095 507.414 107.455 507.561 107.831L509.25 111.65L507.175 118.031Z" fill="#F38087" stroke="#1E3749" stroke-width="1.5" stroke-miterlimit="10"/>
<path d="M505.486 119.423C502.62 122.313 497.912 123.626 494.771 120.276C491.09 116.357 491.52 109.906 495.293 106.253C495.696 105.858 496.126 105.51 496.584 105.188C496.639 105.757 497.409 112.787 504.012 117.403L505.486 119.423Z" fill="#E06C77"/>
<path d="M515.472 178.856C515.472 178.856 515.161 181.196 514.931 183.34L515.472 178.856Z" fill="#FDEEED"/>
<path d="M515.472 178.856C515.472 178.856 515.161 181.196 514.931 183.34" stroke="#1E3749" stroke-width="1.5" stroke-miterlimit="10" stroke-linecap="round"/>
<path d="M525.633 124.331C524.476 127.618 528.519 129.681 528.528 129.681C532.034 131.62 532.583 131.377 533.383 133.459C534.307 135.861 533.606 138.441 531.883 140.229C531.883 140.229 527.589 144.235 521.268 140.174C514.886 136.074 510.327 128.328 509.555 120.013C508.936 113.344 509.74 110.623 514.185 102.805C514.185 102.804 514.686 113.633 525.633 124.331Z" fill="#E06C77"/>
<path d="M532.042 140.271C532.042 140.271 527.703 144.322 521.316 140.215C515.495 136.481 510.928 129.325 510.005 123.106C516.003 126.775 522.302 127.636 526.585 128.203C527.466 129.038 528.824 129.704 528.833 129.704C532.383 131.664 532.943 131.716 533.75 133.824C534.687 136.249 533.785 138.46 532.042 140.271Z" fill="#C9576D"/>
<path d="M504.618 116.145C503.245 118.565 500.362 119.804 497.816 119.561C495.744 119.363 493.475 118.152 492.125 116.145" stroke="#1E3749" stroke-width="1.5" stroke-miterlimit="10" stroke-linecap="round" stroke-linejoin="round"/>
<path d="M510.23 108.331C510.23 108.331 509.796 107.654 508.445 108.04C508.445 108.04 507.191 108.088 507.143 110.554C507.143 110.554 505.02 110.022 504.249 111.859C504.249 111.859 503.525 115.291 504.104 118.046C504.104 118.046 504.779 119.689 506.564 119.738C506.564 119.738 506.805 121.913 508.687 121.575C508.687 113.647 509.41 110.893 510.23 108.331Z" fill="#EFD686" stroke="#1E3749" stroke-width="1.5" stroke-miterlimit="10" stroke-linecap="round" stroke-linejoin="round"/>
<path d="M534.429 137.898C534.429 137.898 528.335 144.069 513.929 133.886" stroke="#1E3749" stroke-miterlimit="10" stroke-linecap="round"/>
<path d="M531.872 130.646C531.872 130.646 528.389 136.525 515.857 135.222" stroke="#1E3749" stroke-miterlimit="10" stroke-linecap="round"/>
<path d="M533.931 132.838C533.931 132.838 531.872 139.09 526.02 139.347" stroke="#1E3749" stroke-miterlimit="10" stroke-linecap="round"/>
<path d="M514.489 193.551C514.489 193.551 514.443 186.848 515.01 183.039L505.823 183.264C505.823 183.264 504.539 195.279 502.075 204.59C502.075 204.59 500.149 215.827 502.137 220.832C502.137 220.832 504.63 225.057 510.27 223.315C510.27 223.315 516.028 220.669 517.107 213.954C517.107 213.953 517.046 203.254 514.489 193.551Z" fill="#F7DFDE" stroke="#1E3749" stroke-width="1.5" stroke-miterlimit="10"/>
<path d="M526.121 194.08C525.699 195.289 525.008 196.461 524.512 197.575C523.786 199.208 523.065 200.842 522.352 202.481C520.644 206.404 519.222 210.407 517.62 214.374C516.165 217.978 514.014 221.419 510.52 223.328C510.52 223.328 505.374 225.648 502.03 219.976C502.03 219.976 499.972 212.757 504.346 207.473C504.346 207.473 509.492 200.254 516.694 192.005L517.981 189.556L518.881 187.107L518.238 179.373C518.238 179.373 517.209 176.537 520.939 174.475H524.027C524.027 174.475 525.827 174.475 525.699 176.796C525.784 179.448 525.867 182.101 525.952 184.754C526.01 186.555 526.03 188.301 526.321 190.077C526.434 190.77 526.51 191.476 526.498 192.18C526.486 192.82 526.339 193.455 526.121 194.08Z" fill="#FDEEED" stroke="#1E3749" stroke-width="1.5" stroke-miterlimit="10"/>
<path d="M554.384 112.912C554.066 113.011 553.629 112.963 553.362 112.994C551.557 113.202 550.34 114.603 549.322 115.983C549.041 116.364 548.827 116.837 548.451 117.139C548.024 117.482 547.228 117.447 547.487 116.691C548.082 114.958 549.23 113.357 550.783 112.366C551.504 111.906 554.987 110.492 554.773 112.471C554.747 112.722 554.591 112.848 554.384 112.912Z" fill="#EE6F81"/>
<path d="M555.435 119.808C556.434 119.808 557.244 118.985 557.244 117.971C557.244 116.957 556.434 116.134 555.435 116.134C554.437 116.134 553.627 116.957 553.627 117.971C553.627 118.985 554.437 119.808 555.435 119.808Z" fill="#1E3749"/>
<path d="M560.429 130.388C560.429 130.388 558.744 133.112 553.418 131.042L560.429 130.388Z" fill="#FDEEED"/>
<path d="M560.429 130.388C560.429 130.388 558.744 133.112 553.418 131.042" stroke="#E2597A" stroke-width="1.5" stroke-miterlimit="10" stroke-linecap="round"/>
<path d="M554.897 179.371L556.633 188.266" stroke="#1E3749" stroke-width="1.5" stroke-miterlimit="10" stroke-linecap="round"/>
<path d="M522.29 243.823C522.29 243.823 527.435 249.495 530.779 250.011L538.239 309.113" stroke="#1E3749" stroke-width="1.5" stroke-miterlimit="10" stroke-linecap="round" stroke-linejoin="round"/>
<path d="M555 140L554.94 140.149C554.34 140.317 553.805 140.622 553.325 141.027C552.385 141.829 551.505 143.082 551.439 144.304L551.052 150C550.529 149.901 550.172 149.788 549.68 149.572C548.112 148.884 547.161 147.333 547.017 145.671C547 145.459 546.995 145.247 547.006 145.036C547.187 141.92 552.539 140.683 555 140Z" fill="#F6D6D2" style="mix-blend-mode:multiply"/>
<path d="M550.504 127.669C552.31 127.024 553.407 125.468 552.954 124.194C552.501 122.92 550.669 122.411 548.863 123.056C547.056 123.702 545.959 125.258 546.413 126.531C546.866 127.805 548.698 128.315 550.504 127.669Z" fill="#FCDCE3"/>
<path d="M584.667 76.5246C584.696 76.7055 584.716 76.8325 584.726 76.8922C585.746 83.6868 587.613 90.3427 587.809 97.2449C587.983 103.589 590.176 109.952 595.387 113.92C595.387 113.92 601.164 118.074 607.571 117.319L607.32 125.123C607.32 125.123 606.566 130.913 612.47 130.913C612.47 130.913 620.634 132.172 626.79 121.851C626.79 121.851 629.679 117.068 629.553 113.543L628.674 112.033C628.674 112.033 628.046 104.984 628.422 95.7952L631.94 88.3691L633.699 70.4953L628.298 62.9431L605.563 59.6704C605.563 59.6704 583.729 68.2207 583.707 68.2295C583.327 68.3781 584.39 74.8238 584.667 76.5246Z" fill="#F3E8E3" stroke="#1E3749" stroke-width="1.5" stroke-miterlimit="10"/>
<path d="M598.778 72.6351C598.778 72.6351 587.851 80.1874 580.566 79.0544C580.566 79.0544 574.537 77.9215 574.913 70.7466C574.913 70.7466 574.913 68.2295 577.802 65.3341C577.802 65.3341 571.647 66.5931 569.136 62.3136C568.266 60.8327 568.217 58.688 568.721 57.1015C569.684 54.0742 572.725 52.0625 575.643 51.2287C575.885 51.1592 576.129 51.0967 576.373 51.041C579.371 50.3508 582.423 50.5043 585.459 50.6597C588.064 50.7937 590.675 50.8494 593.284 50.7849C595.958 50.7184 598.673 50.562 601.291 49.9784C603.069 49.5825 604.595 48.5659 606.16 47.6881C607.868 46.7302 609.541 45.7106 611.174 44.6314C612.569 43.7106 613.864 42.9824 615.545 42.7937C617.335 42.5933 619.14 42.8895 620.76 43.6842C622.701 44.6373 624.247 46.3108 625.195 48.2433C626.05 49.9872 626.136 51.7301 626.287 53.6284C626.285 53.5991 629.313 54.3117 629.509 54.3831C631.49 55.1045 633.005 56.3127 633.997 58.1944C635.673 61.3713 635.811 64.7398 635.811 68.2578C635.811 74.8873 636.234 81.6057 634.074 87.9908C634.074 87.9908 631.06 95.9204 628.297 96.8021L627.292 95.4179C627.292 95.4179 626.161 94.1589 627.04 92.7747C628.392 91.0211 630.186 89.4062 630.571 87.1247C630.806 85.7347 630.816 83.3496 629.028 83.0075C627.639 82.7416 626.024 83.8266 625.356 84.9811C624.715 86.0886 624.381 87.3711 624.151 88.6203C624.151 88.6203 623.523 91.6408 620.759 92.7738C620.759 92.7738 619.378 93.4033 619.88 90.0045C620.758 84.0661 620.996 75.0398 615.054 71.5198C610.227 68.6615 603.282 69.5227 598.778 72.6351Z" fill="#A28B76" stroke="#1E3749" stroke-width="1.5" stroke-miterlimit="10" stroke-linejoin="round"/>
<path d="M621.011 82.6428C621.062 84.7552 620.708 87.5998 620.348 89.9869C620.069 91.9067 620.457 92.2244 620.473 92.2361C620.48 92.2371 620.558 92.243 620.579 92.243C620.581 92.243 620.583 92.243 620.584 92.242C623.082 91.2146 623.683 88.4619 623.689 88.4346C623.889 87.3417 624.213 85.9116 624.942 84.6467C625.611 83.4884 627.124 82.4014 628.592 82.4014C628.77 82.4014 628.946 82.417 629.122 82.4512C630.754 82.7562 631.475 84.4981 631.044 87.111C630.718 89.0182 629.513 90.4512 628.348 91.8363C628.03 92.2156 627.713 92.5919 627.417 92.9761C626.775 93.9937 627.608 94.9722 627.645 95.0132L628.459 96.1276C630.483 95.0425 632.849 89.7728 633.625 87.7337C635.78 81.3672 635.205 75.8873 635.205 69.3653C635.205 65.5579 635.19 61.686 633.698 58.8552C633.355 58.2041 632.799 57.5228 632.316 57.0302C632.315 57.0272 633.751 74.5207 621.011 82.6428Z" fill="#896B52"/>
<path d="M593.991 91.4355C594.132 93.848 593.526 96.2332 593.461 98.6388C593.437 99.5616 593.558 100.519 594.027 101.312C595.276 103.424 598.524 103.517 600.484 102.467" stroke="#1E3749" stroke-width="1.5" stroke-miterlimit="10" stroke-linecap="round" stroke-linejoin="round"/>
<path d="M602.657 83.3663C602.657 83.3663 607.226 79.9675 613.161 85.0652" stroke="#74573C" stroke-width="2" stroke-miterlimit="10" stroke-linecap="round" stroke-linejoin="round"/>
<path d="M591.562 84.6409C591.562 84.6409 589.254 83.6028 588.219 85.3486" stroke="#74573C" stroke-width="2" stroke-miterlimit="10" stroke-linecap="round" stroke-linejoin="round"/>
<path d="M606.748 92.2777C607.705 92.0655 608.296 91.0587 608.068 90.0288C607.841 88.9989 606.881 88.336 605.924 88.5481C604.968 88.7603 604.377 89.7671 604.604 90.797C604.832 91.8269 605.792 92.4898 606.748 92.2777Z" fill="#1E3749"/>
<path d="M585.213 61.1807C586.064 60.5913 586.966 59.7262 587.344 58.7311C587.4 58.5834 587.442 58.4261 587.428 58.2687C587.398 57.9285 587.29 57.428 586.942 57.2892C586.19 56.9882 585.252 57.6128 584.549 57.8337C583.49 58.1661 582.406 58.4095 581.333 58.692C580.35 58.951 579.37 59.213 578.387 59.4681C571.076 61.3654 569.505 57.9608 569.262 57.6568C569.152 58.5062 569.017 60.644 569.514 61.6215C571.817 66.1591 578.181 64.7681 578.181 64.7681C578.181 64.7681 581.084 64.037 585.213 61.1807Z" fill="#896B52"/>
<path d="M590.397 94.0595C591.206 93.8801 591.705 93.0288 591.513 92.158C591.321 91.2872 590.509 90.7267 589.7 90.9061C588.892 91.0855 588.392 91.9368 588.584 92.8076C588.777 93.6784 589.588 94.2389 590.397 94.0595Z" fill="#1E3749"/>
<path d="M599.532 108.939C599.532 108.939 604.683 111.708 608.199 104.533" stroke="#D84E65" stroke-width="1.5" stroke-miterlimit="10" stroke-linecap="round"/>
<path d="M586.783 60.7721C586.783 60.7721 583.486 63.9822 577.316 65.776" stroke="#1E3749" stroke-width="1.5" stroke-miterlimit="10" stroke-linecap="round"/>
<path d="M622.502 109.658C622.134 114.347 620.664 118.512 617.336 122.028C614.968 124.53 611.394 125.643 608.003 125.211C608.003 125.211 608.003 125.211 608.098 123.04L608.278 116.55C608.278 116.55 617.516 115.076 621.522 106.251C621.721 105.813 622.376 105.947 622.392 106.429L622.502 109.658Z" fill="#EACBC2"/>
<path d="M588.5 155.5C586.5 166 586.5 177.5 586.5 177.5" stroke="#1E3749" stroke-width="1.5" stroke-miterlimit="10" stroke-linecap="round"/>
<path d="M640.354 210.654C640.354 210.654 642.741 238.661 642.929 250.367C642.929 250.367 642.929 257.919 641.045 261.318C641.045 261.318 635.11 267.076 634.639 271.513V274.912L635.581 277.178L635.52 279.877C635.495 280.969 635.869 282.039 636.609 282.84C638.107 284.458 641.214 286.738 646.604 286.241C646.604 286.241 650.758 286.3 654.786 279.394C655.29 278.529 655.487 277.512 655.364 276.518L654.234 264.906C654.234 264.906 658.756 211.851 658.85 210.152C647.593 211.284 640.354 210.654 640.354 210.654Z" fill="#F3E8E3" stroke="#1E3749" stroke-width="1.5" stroke-miterlimit="10"/>
<path d="M635.581 277.178L637.842 278.028" stroke="#1E3749" stroke-width="1.5" stroke-miterlimit="10"/>
<path d="M639.349 270.759L638.031 280.388" stroke="#1E3749" stroke-width="1.5" stroke-miterlimit="10" stroke-linecap="round"/>
<path d="M608.828 327.967L607.697 265.85L605.425 257.311" stroke="#1E3749" stroke-width="1.5" stroke-miterlimit="10" stroke-linecap="round"/>
<path d="M615.227 366.647L600.365 366.354C599.631 366.339 598.908 366.54 598.287 366.931L579.995 378.417C578.975 379.059 578.322 380.151 578.24 381.355L578.1 383.424C577.994 384.986 579.242 386.306 580.805 386.282L614.791 385.776C616.221 385.755 617.429 384.697 617.613 383.276C617.973 380.512 618.156 375.393 616.568 367.758C616.436 367.121 615.875 366.66 615.227 366.647Z" fill="#79B5E2" stroke="#1E3749" stroke-width="1.5" stroke-miterlimit="10"/>
<path d="M640.278 368.546L623.853 368.211C623.043 368.195 622.245 368.406 621.558 368.818L601.362 380.943C600.236 381.62 599.516 382.774 599.428 384.048L599.276 386.238C599.161 387.891 600.543 389.288 602.27 389.267L639.827 388.785C641.408 388.764 642.74 387.647 642.942 386.144C643.335 383.22 643.529 377.804 641.762 369.723C641.613 369.049 640.994 368.56 640.278 368.546Z" fill="#80B9E4" stroke="#1E3749" stroke-width="1.5" stroke-miterlimit="10"/>
<g opacity="0.5">
<path d="M601.232 306.889C601.075 313.662 601.124 320.613 601.281 327.386C604.421 327.386 604.937 327.359 608.091 327.268C607.812 313.396 607.415 285.313 607.089 271.63C607.033 269.231 607.009 267.267 606.983 265.907C606.842 265.356 605.339 259.771 604.777 257.637C604.777 257.637 602.156 267.119 601.232 306.889Z" fill="#1B8273" fill-opacity="0.5" style="mix-blend-mode:multiply"/>
</g>
<g opacity="0.6">
<path d="M525.601 247.867C529.086 268.685 530.56 287.235 531.717 308.354C532.278 318.585 532.172 328.827 532.432 339.054C532.61 346.024 532.787 352.994 532.965 359.964L536.824 316.267L537.595 309.177L530.135 250.623C530.136 250.623 528.688 250.574 525.601 247.867Z" fill="#789DE6" fill-opacity="0.8" style="mix-blend-mode:multiply"/>
</g>
</svg>
