<svg width="771" height="499" viewBox="0 0 771 499" fill="none" xmlns="http://www.w3.org/2000/svg">
<path d="M555.014 12.916V377.323C555.014 381.35 551.758 384.615 547.742 384.615H524.554C524.287 384.615 524.07 384.398 524.07 384.13V375.811C524.07 374.968 523.383 374.278 522.542 374.278H505.319C504.479 374.278 503.792 374.968 503.792 375.811V384.13C503.792 384.398 503.575 384.615 503.309 384.615H299.101C298.834 384.615 298.618 384.398 298.618 384.13V375.811C298.618 374.968 297.931 374.278 297.08 374.278H279.867C279.027 374.278 278.339 374.968 278.339 375.811V384.13C278.339 384.398 278.122 384.615 277.856 384.615H254.667C250.644 384.615 247.395 381.347 247.395 377.323V12.916C247.395 8.88936 250.651 5.62402 254.667 5.62402H547.742C551.756 5.62402 555.014 8.88217 555.014 12.916Z" fill="#AFCFDC" stroke="#1E3749" stroke-width="1.5" stroke-miterlimit="10"/>
<path d="M277.994 25.0169H247.06C245.602 25.0169 244.419 23.8312 244.419 22.3686V9.54494C244.419 5.09648 248.016 1.48901 252.453 1.48901H277.994C279.452 1.48901 280.635 2.67474 280.635 4.13732V22.3686C280.635 23.8312 279.453 25.0169 277.994 25.0169Z" fill="#91BFD2" stroke="#1E3749" stroke-width="1.5" stroke-miterlimit="10"/>
<path d="M524.766 25.0169H556.274C557.573 25.0169 558.627 23.9598 558.627 22.6565V9.54555C558.627 5.0971 555.03 1.48962 550.592 1.48962H524.764C523.465 1.48962 522.411 2.54673 522.411 3.84999V22.6571C522.413 23.9598 523.465 25.0169 524.766 25.0169Z" fill="#91BFD2" stroke="#1E3749" stroke-width="1.5" stroke-miterlimit="10"/>
<path d="M540.711 362.107H261.698C259.585 362.107 257.872 360.39 257.872 358.271V37.5899C257.872 35.4711 259.585 33.7539 261.698 33.7539H540.711C542.824 33.7539 544.536 35.4711 544.536 37.5899V358.271C544.536 360.39 542.824 362.107 540.711 362.107Z" fill="white" stroke="#1E3749" stroke-width="1.5" stroke-miterlimit="10"/>
<path d="M545.142 358.272V362.112C545.142 364.225 543.422 365.942 541.292 365.942H260.798C258.668 365.942 256.948 364.226 256.948 362.112V358.272C256.948 360.386 258.668 362.112 260.798 362.112H541.292C543.422 362.112 545.142 360.386 545.142 358.272Z" fill="#7FA4B0" fill-opacity="0.6" style="mix-blend-mode:multiply"/>
<path d="M540.78 362.107H261.699C259.585 362.107 257.872 360.39 257.872 358.271V37.5899C257.872 35.4711 259.586 33.7539 261.699 33.7539H540.779C542.891 33.7539 544.604 35.4711 544.604 37.5899V358.271C544.605 360.39 542.892 362.107 540.78 362.107Z" fill="#82A8B5" stroke="#1E3749" stroke-width="1.5" stroke-miterlimit="10"/>
<path d="M523.784 25.1586H554.472V28.4233H527.784C525.845 28.4233 524.173 27.0588 523.784 25.1586Z" fill="#628187" fill-opacity="0.5" style="mix-blend-mode:multiply"/>
<path d="M278.277 25.1586H247.589V28.4233H274.278C276.217 28.4233 277.889 27.0586 278.277 25.1586Z" fill="#628187" fill-opacity="0.5" style="mix-blend-mode:multiply"/>
<path d="M540.953 362.877H261.361C259.243 362.877 257.527 361.156 257.527 359.033V37.6859C257.527 35.5625 259.243 33.842 261.361 33.842H540.952C543.069 33.842 544.785 35.5625 544.785 37.6859V359.033C544.786 361.156 543.07 362.877 540.953 362.877Z" fill="#8DB6C7" stroke="#1E3749" stroke-width="1.5" stroke-miterlimit="10"/>
<g opacity="0.3">
<path d="M263.022 42.6155V359.224C263.022 360.321 262.213 361.248 261.129 361.392L247.887 364.474V38.0841L261.22 40.4673C262.266 40.6501 263.022 41.5577 263.022 42.6155Z" fill="#3A5356" fill-opacity="0.5" style="mix-blend-mode:multiply"/>
</g>
<path d="M532.774 352.649H269.539C268.258 352.649 267.217 351.606 267.217 350.321V45.3735C267.217 44.0879 268.258 43.0452 269.539 43.0452H532.775C534.057 43.0452 535.097 44.0879 535.097 45.3735V350.321C535.097 351.606 534.056 352.649 532.774 352.649Z" fill="#C1D7E0" stroke="#1E3749" stroke-width="1.5" stroke-miterlimit="10"/>
<path d="M481.278 292.082H321.035C320.255 292.082 319.621 291.447 319.621 290.664V105.029C319.621 104.247 320.254 103.611 321.035 103.611H481.278C482.059 103.611 482.692 104.246 482.692 105.029V290.664C482.692 291.447 482.059 292.082 481.278 292.082Z" fill="#AFC7D1" stroke="#1E3749" stroke-width="1.5" stroke-miterlimit="10"/>
<path d="M534.431 43.745L482.268 104.024C482.013 103.769 481.66 103.613 481.275 103.613H321.036C320.573 103.613 320.155 103.835 319.894 104.187L267.737 43.9083C268.161 43.3859 268.807 43.0464 269.539 43.0464H532.773C533.426 43.0464 534.013 43.3141 534.431 43.745Z" fill="#A5BEC6" stroke="#1E3749" stroke-width="1.5" stroke-miterlimit="10"/>
<path d="M534.431 352.04L482.268 291.761C482.013 292.016 481.66 292.172 481.275 292.172H321.036C320.573 292.172 320.155 291.95 319.894 291.598L267.737 351.877C268.161 352.399 268.807 352.739 269.539 352.739H532.773C533.426 352.739 534.013 352.471 534.431 352.04Z" fill="#A4BDCB" stroke="#1E3749" stroke-width="1.5" stroke-miterlimit="10" stroke-linejoin="round"/>
<path d="M182.913 386.51H180.872C179.181 386.51 177.812 384.987 177.812 383.109V7.29104C177.812 5.41254 179.181 3.88989 180.872 3.88989H182.913C184.603 3.88989 185.974 5.41254 185.974 7.29104V383.109C185.973 384.987 184.602 386.51 182.913 386.51Z" fill="#BFD2DD" stroke="#1E3749" stroke-width="1.5" stroke-miterlimit="10"/>
<g opacity="0.4">
<path d="M178.296 356.602V383.122C178.296 384.286 178.918 385.33 179.831 385.787C181.245 379.549 183.646 375.677 185.478 373.482V356.155L178.296 356.602Z" fill="#3A5356" style="mix-blend-mode:multiply"/>
</g>
<path d="M117.49 368.611V19.7771C117.49 15.4494 121.495 12.1789 125.843 12.9565L258.772 36.7116C259.815 36.8977 260.574 37.8053 260.574 38.865V355.472C260.574 356.567 259.765 357.492 258.68 357.638L125.535 375.482C121.28 376.053 117.49 372.815 117.49 368.611Z" fill="#86AEBD" stroke="#1E3749" stroke-width="1.5" stroke-miterlimit="10"/>
<g opacity="0.5">
<path d="M253.788 85.849L271.556 84.5432C272.09 84.5432 272.523 84.1089 272.523 83.5735V74.772C272.523 74.2366 272.09 73.8024 271.556 73.8024L253.788 75.1082C253.254 75.1082 252.821 75.5424 252.821 76.0778V84.8794C252.821 85.4148 253.254 85.849 253.788 85.849Z" fill="#72A2AE" style="mix-blend-mode:multiply"/>
</g>
<g opacity="0.5">
<path d="M253.788 151.314L271.556 150.661C272.09 150.661 272.523 150.228 272.523 149.692V140.891C272.523 140.355 272.09 139.92 271.556 139.92L253.788 140.573C253.254 140.573 252.821 141.008 252.821 141.544V150.345C252.821 150.881 253.254 151.314 253.788 151.314Z" fill="#72A2AE" style="mix-blend-mode:multiply"/>
</g>
<g opacity="0.5">
<path d="M271.556 259.431L253.788 262.043C253.254 262.043 252.821 261.609 252.821 261.073V252.271C252.821 251.736 253.254 251.302 253.788 251.302L271.556 248.69C272.09 248.69 272.523 249.124 272.523 249.659V258.461C272.523 258.997 272.09 259.431 271.556 259.431Z" fill="#72A2AE" style="mix-blend-mode:multiply"/>
</g>
<g opacity="0.5">
<path d="M271.556 324.897L253.788 328.161C253.254 328.161 252.821 327.726 252.821 327.191V318.391C252.821 317.855 253.254 317.42 253.788 317.42L271.556 314.156C272.09 314.156 272.523 314.59 272.523 315.126V323.926C272.523 324.463 272.09 324.897 271.556 324.897Z" fill="#72A2AE" style="mix-blend-mode:multiply"/>
</g>
<path d="M127.16 28.6146V360.455C127.16 362.78 129.256 364.57 131.61 364.255L260.574 348.231V45.8227L131.721 24.8315C129.333 24.4423 127.16 26.2451 127.16 28.6146Z" fill="#D4E8EE" stroke="#1E3749" stroke-width="1.5" stroke-miterlimit="10"/>
<path d="M271.556 83.2372L253.788 81.9313C253.254 81.9313 252.821 81.4971 252.821 80.9617V72.1602C252.821 71.6248 253.254 71.1906 253.788 71.1906L271.556 72.4964C272.09 72.4964 272.523 72.9306 272.523 73.466V82.2676C272.523 82.803 272.09 83.2372 271.556 83.2372Z" fill="#72A2AE" stroke="#1E3749" stroke-width="1.5" stroke-miterlimit="10"/>
<path d="M271.556 148.703L253.788 148.05C253.254 148.05 252.821 147.616 252.821 147.081V138.279C252.821 137.744 253.254 137.309 253.788 137.309L271.556 137.962C272.09 137.962 272.523 138.396 272.523 138.932V147.734C272.523 148.269 272.09 148.703 271.556 148.703Z" fill="#72A2AE" stroke="#1E3749" stroke-width="1.5" stroke-miterlimit="10"/>
<path d="M271.556 257.472L253.788 258.125C253.254 258.125 252.821 257.691 252.821 257.155V248.354C252.821 247.818 253.254 247.385 253.788 247.385L271.556 246.732C272.09 246.732 272.523 247.165 272.523 247.701V256.502C272.523 257.038 272.09 257.472 271.556 257.472Z" fill="#72A2AE" stroke="#1E3749" stroke-width="1.5" stroke-miterlimit="10"/>
<path d="M271.556 322.938L253.788 324.244C253.254 324.244 252.821 323.809 252.821 323.273V314.473C252.821 313.938 253.254 313.503 253.788 313.503L271.556 312.197C272.09 312.197 272.523 312.631 272.523 313.167V321.968C272.523 322.504 272.09 322.938 271.556 322.938Z" fill="#72A2AE" stroke="#1E3749" stroke-width="1.5" stroke-miterlimit="10"/>
<g opacity="0.2">
<path d="M127.757 270.95V360.513C127.757 361.461 128.171 362.367 128.894 363.001C129.646 363.659 130.649 363.96 131.655 363.827L260.192 347.851V46.2922L241.834 43.2979C219.479 107.91 181.581 199.694 127.757 270.95Z" fill="#9FB9C1" style="mix-blend-mode:multiply"/>
</g>
<path opacity="0.1" d="M535.068 45.2448V350.192C535.068 350.864 534.781 351.478 534.324 351.896L482.166 291.617C482.473 291.356 482.663 290.964 482.663 290.54V104.904C482.663 104.512 482.506 104.159 482.245 103.898L534.402 43.619C534.813 44.0434 535.068 44.605 535.068 45.2448Z" fill="#A3BDC6" stroke="#1E3749" stroke-width="1.5" stroke-miterlimit="10"/>
<g opacity="0.3">
<path d="M539 42.526V358.757C539 359.852 539.856 360.778 541.002 360.922L555 364V38L540.905 40.3804C539.8 40.563 539 41.4695 539 42.526Z" fill="#3A5356" fill-opacity="0.5" style="mix-blend-mode:multiply"/>
</g>
<path d="M619.087 386.51H621.128C622.819 386.51 624.188 384.987 624.188 383.109V7.29104C624.188 5.41254 622.819 3.88989 621.128 3.88989H619.087C617.397 3.88989 616.026 5.41254 616.026 7.29104V383.109C616.026 384.987 617.397 386.51 619.087 386.51Z" fill="#BFD2DD" stroke="#1E3749" stroke-width="1.5" stroke-miterlimit="10"/>
<g opacity="0.4">
<path d="M616.522 356.155V373.482C618.355 375.677 620.755 379.549 622.169 385.787C623.081 385.33 623.704 384.286 623.704 383.122V356.602L616.522 356.155Z" fill="#3A5356" style="mix-blend-mode:multiply"/>
</g>
<path d="M684.51 368.611V19.7771C684.51 15.4494 680.505 12.1789 676.156 12.9565L543.228 36.711C542.185 36.8971 541.426 37.8046 541.426 38.8644V355.472C541.426 356.566 542.235 357.492 543.32 357.637L676.465 375.483C680.719 376.053 684.51 372.815 684.51 368.611Z" fill="#86AEBD" stroke="#1E3749" stroke-width="1.5" stroke-miterlimit="10"/>
<g opacity="0.5">
<path d="M548.212 85.849L530.444 84.5432C529.91 84.5432 529.477 84.1089 529.477 83.5735V74.772C529.477 74.2366 529.91 73.8024 530.444 73.8024L548.212 75.1082C548.746 75.1082 549.179 75.5424 549.179 76.0778V84.8794C549.179 85.4148 548.745 85.849 548.212 85.849Z" fill="#72A2AE" style="mix-blend-mode:multiply"/>
</g>
<g opacity="0.5">
<path d="M548.212 151.314L530.444 150.661C529.91 150.661 529.477 150.228 529.477 149.692V140.891C529.477 140.356 529.91 139.921 530.444 139.921L548.212 140.574C548.746 140.574 549.179 141.008 549.179 141.544V150.345C549.179 150.881 548.745 151.314 548.212 151.314Z" fill="#72A2AE" style="mix-blend-mode:multiply"/>
</g>
<g opacity="0.5">
<path d="M530.444 259.431L548.212 262.043C548.746 262.043 549.179 261.609 549.179 261.073V252.271C549.179 251.736 548.746 251.302 548.212 251.302L530.444 248.69C529.91 248.69 529.477 249.124 529.477 249.659V258.461C529.477 258.997 529.91 259.431 530.444 259.431Z" fill="#72A2AE" style="mix-blend-mode:multiply"/>
</g>
<g opacity="0.5">
<path d="M530.444 324.897L548.212 328.161C548.746 328.161 549.179 327.726 549.179 327.191V318.391C549.179 317.855 548.746 317.42 548.212 317.42L530.444 314.156C529.91 314.156 529.477 314.59 529.477 315.126V323.926C529.477 324.463 529.91 324.897 530.444 324.897Z" fill="#72A2AE" style="mix-blend-mode:multiply"/>
</g>
<path d="M674.84 28.6146V360.455C674.84 362.78 672.743 364.57 670.39 364.255L541.425 348.231V45.8227L670.278 24.8315C672.667 24.4423 674.84 26.2451 674.84 28.6146Z" fill="#D4E8EE" stroke="#1E3749" stroke-width="1.5" stroke-miterlimit="10"/>
<path d="M530.444 83.2373L548.212 81.9315C548.746 81.9315 549.179 81.4973 549.179 80.9618V72.1603C549.179 71.6249 548.746 71.1907 548.212 71.1907L530.444 72.4965C529.91 72.4965 529.477 72.9307 529.477 73.4662V82.2677C529.477 82.8031 529.91 83.2373 530.444 83.2373Z" fill="#72A2AE" stroke="#1E3749" stroke-width="1.5" stroke-miterlimit="10"/>
<path d="M530.444 148.703L548.212 148.05C548.746 148.05 549.179 147.616 549.179 147.081V138.279C549.179 137.744 548.746 137.309 548.212 137.309L530.444 137.962C529.91 137.962 529.477 138.396 529.477 138.932V147.734C529.477 148.269 529.91 148.703 530.444 148.703Z" fill="#72A2AE" stroke="#1E3749" stroke-width="1.5" stroke-miterlimit="10"/>
<path d="M530.444 257.472L548.212 258.125C548.746 258.125 549.179 257.691 549.179 257.155V248.354C549.179 247.818 548.746 247.385 548.212 247.385L530.444 246.732C529.91 246.732 529.477 247.165 529.477 247.701V256.502C529.477 257.038 529.91 257.472 530.444 257.472Z" fill="#72A2AE" stroke="#1E3749" stroke-width="1.5" stroke-miterlimit="10"/>
<path d="M530.444 322.938L548.212 324.244C548.746 324.244 549.179 323.809 549.179 323.273V314.473C549.179 313.938 548.746 313.503 548.212 313.503L530.444 312.197C529.91 312.197 529.477 312.631 529.477 313.167V321.968C529.477 322.504 529.91 322.938 530.444 322.938Z" fill="#72A2AE" stroke="#1E3749" stroke-width="1.5" stroke-miterlimit="10"/>
<g opacity="0.2">
<path d="M541.806 166.292V347.851L670.343 363.827C671.349 363.961 672.353 363.66 673.105 363.001C673.827 362.367 674.242 361.461 674.242 360.513V323.185C674.242 323.185 581 278 541.806 166.292Z" fill="#9FB9C1" fill-opacity="0.8" style="mix-blend-mode:multiply"/>
</g>
<path d="M505 196H384C382.343 196 381 197.343 381 199V318C381 319.657 382.343 321 384 321H505C506.657 321 508 319.657 508 318V199C508 197.343 506.657 196 505 196Z" fill="#DABEA7" stroke="#1E3749" stroke-width="1.5" stroke-miterlimit="10" stroke-linejoin="round"/>
<path d="M695.426 389.643L683.12 386.463C680.755 385.852 678.322 385.543 675.88 385.543H593.399C591.092 385.543 588.793 385.818 586.551 386.365L573.089 389.643V401.462H694.821L695.426 389.643Z" fill="#D3BDA5" stroke="#203749" stroke-width="1.5" stroke-miterlimit="10" stroke-linejoin="round"/>
<path d="M570.545 392.176V494.684C570.545 496.216 571.792 497.457 573.331 497.457H696.153C697.424 497.457 698.455 496.431 698.455 495.166V392.658C698.455 390.993 697.099 389.643 695.426 389.643H573.089C571.684 389.643 570.545 390.777 570.545 392.176Z" fill="#DDC1A6" stroke="#203749" stroke-width="1.5" stroke-miterlimit="10" stroke-linejoin="round"/>
<path d="M627.959 385.543H640.556L644.675 389.402V435.47H624.083V389.643L627.959 385.543Z" fill="#D3BDA5" fill-opacity="0.6" style="mix-blend-mode:multiply"/>
<path d="M634.682 385.483V389.824" stroke="#203749" stroke-width="1.5" stroke-miterlimit="10" stroke-linejoin="round"/>
<path d="M141 482.538C141 486.15 123.494 489.077 101.899 489.077C80.3044 489.077 62.7983 486.15 62.7983 482.538C62.7983 478.927 80.3044 476 101.899 476C123.494 476 141 478.927 141 482.538Z" fill="#CEE9F3"/>
<path d="M78.2017 486.462C78.2017 490.073 60.6956 493 39.1008 493C17.506 493 0 490.073 0 486.462C0 482.85 17.506 479.923 39.1008 479.923C60.6956 479.923 78.2017 482.85 78.2017 486.462Z" fill="#CEE9F3"/>
<path d="M371 482.538C371 486.15 388.506 489.077 410.101 489.077C431.696 489.077 449.202 486.15 449.202 482.538C449.202 478.927 431.696 476 410.101 476C388.506 476 371 478.927 371 482.538Z" fill="#CEE9F3"/>
<path d="M433.798 486.462C433.798 490.073 451.304 493 472.899 493C494.494 493 512 490.073 512 486.462C512 482.85 494.494 479.923 472.899 479.923C451.304 479.923 433.798 482.85 433.798 486.462Z" fill="#CEE9F3"/>
<path d="M99.3646 262.493L126.504 267.308L124.518 283.507L96.4964 279.786L99.3646 262.493Z" fill="#EADBCA" stroke="#203749" stroke-width="1.5" stroke-miterlimit="10" stroke-linejoin="round"/>
<path d="M413.635 261.493L386.496 266.308L388.482 282.507L416.504 278.786L413.635 261.493Z" fill="#EADBCA" stroke="#203749" stroke-width="1.5" stroke-miterlimit="10" stroke-linejoin="round"/>
<path d="M125.275 210.124C127.337 206.522 131.223 201.01 137.967 195.4C142.277 191.815 147.719 189.853 153.332 189.853H167.869C173.351 189.853 177.965 193.944 178.603 199.372L188.154 280.596C188.488 283.435 187.662 286.288 185.864 288.513L170.43 307.613C169.488 308.778 167.648 308.557 167.01 307.203L124.986 217.899C123.816 215.413 123.91 212.51 125.275 210.124Z" fill="#FBCDCD" stroke="#203749" stroke-width="1.5" stroke-miterlimit="10" stroke-linejoin="round"/>
<path d="M157.548 308.046L160.922 334.645C161.367 338.156 164.122 340.966 167.645 341.397C169.149 341.582 170.894 341.471 172.846 340.815C175.629 339.879 177.625 337.424 178.054 334.528L182.03 307.697L169.789 298.632L157.548 308.046Z" fill="#E5D8BD" stroke="#203749" stroke-width="1.5" stroke-miterlimit="10" stroke-linejoin="round"/>
<path d="M159.763 321.155H163.28C164.246 321.155 166.35 320.656 168.024 319.581L171.732 317.011C173.092 316.002 174.969 315.926 176.404 316.827L179.862 318.997L180.719 313.194L169.766 305.082L158.795 313.519L159.763 321.155Z" fill="#C4B8A3"/>
<path d="M333.119 308.046L336.492 334.645C336.938 338.156 339.692 340.966 343.216 341.397C344.72 341.582 346.464 341.471 348.417 340.815C351.2 339.879 353.195 337.424 353.625 334.528L357.601 307.697L345.36 298.632L333.119 308.046Z" fill="#E5D8BD" stroke="#203749" stroke-width="1.5" stroke-miterlimit="10" stroke-linejoin="round"/>
<path d="M161.34 313.973H138.487C129.119 313.973 121.525 306.402 121.525 297.063V220.709C121.525 214.836 126.301 210.075 132.192 210.075H150.584C157.875 210.075 163.945 215.658 164.53 222.902L171.04 303.492C171.497 309.139 167.023 313.973 161.34 313.973Z" fill="#F8C3C3" stroke="#203749" stroke-width="1.5" stroke-miterlimit="10" stroke-linejoin="round"/>
<path d="M356.202 313.507L345.143 305.082L334.191 313.193L335.048 318.996L338.506 316.825C339.94 315.925 341.818 316 343.178 317.01L346.886 319.58C348.56 320.654 350.664 321.153 351.63 321.153H355.065L356.202 313.507Z" fill="#C4B8A3"/>
<path d="M388.725 210.124C386.663 206.522 382.777 201.01 376.033 195.4C371.723 191.815 366.281 189.853 360.668 189.853H346.131C340.649 189.853 336.035 193.944 335.397 199.372L325.846 280.596C325.512 283.435 326.338 286.288 328.136 288.513L343.57 307.613C344.512 308.778 346.352 308.557 346.99 307.203L389.013 217.899C390.183 215.413 390.09 212.51 388.725 210.124Z" fill="#FBCDCD" stroke="#203749" stroke-width="1.5" stroke-miterlimit="10" stroke-linejoin="round"/>
<path opacity="0.4" d="M331.84 234.557L326.426 280.6C326.109 283.28 326.902 286.023 328.601 288.125L342.525 305.354C342.454 304.71 342.446 304.054 342.497 303.391L349.003 222.803C349.227 220.014 350.242 217.388 351.948 215.17C347.172 212.017 341.425 206.196 337.49 201.838L338.404 217.413C338.742 223.785 336.352 230.022 331.84 234.557Z" fill="#E3A3A3"/>
<path d="M352.66 313.973H375.513C384.881 313.973 392.475 306.402 392.475 297.063V220.709C392.475 214.836 387.699 210.075 381.808 210.075H363.416C356.125 210.075 350.055 215.658 349.47 222.902L342.96 303.492C342.503 309.139 346.977 313.973 352.66 313.973Z" fill="#F8C3C3" stroke="#203749" stroke-width="1.5" stroke-miterlimit="10" stroke-linejoin="round"/>
<path opacity="0.4" d="M163.625 217.438C164.427 219.066 164.907 220.811 165.053 222.631L171.565 303.218C171.617 303.881 171.608 304.537 171.538 305.179L185.455 287.954C187.154 285.85 187.948 283.107 187.629 280.428L182.428 236.168C178.063 232.329 175.677 226.812 175.875 220.995L176.454 204.018C172.291 208.68 167.982 213.187 163.625 217.438Z" fill="#E3A3A3"/>
<path d="M166.641 278.062L168.608 302.17C169.12 308.44 174.511 313.275 180.99 313.275H339.104C345.369 313.275 350.608 308.652 351.204 302.598L354.103 273.181L166.641 278.062Z" fill="#F8B7B7" stroke="#203749" stroke-width="1.5" stroke-miterlimit="10" stroke-linejoin="round"/>
<path d="M306.561 132.285C282.986 129.698 246.697 127.575 209.107 132.45C191.9 134.682 178.854 149.031 178.265 166.32L176.398 221.249C176.035 231.914 184.61 240.756 195.315 240.756H315.701C328.398 240.756 338.496 230.138 337.82 217.499L334.859 162.152C334.029 146.632 322.057 133.986 306.561 132.285Z" fill="#FBD1D1" stroke="#203749" stroke-width="1.5" stroke-miterlimit="10" stroke-linejoin="round"/>
<path d="M199.535 230.42C219.119 229.39 257.49 228.475 322.652 230.949C334.169 231.387 345.078 236.04 353.142 243.972C356.045 246.827 357.67 250.665 357.67 254.661V274.75C357.67 281.2 352.242 286.429 345.545 286.429H172.891C166.194 286.429 160.766 281.2 160.766 274.75V260.083C160.766 252.513 164.413 245.371 170.639 240.75C178.966 234.57 189.039 230.972 199.535 230.42Z" fill="#F8DDDD" stroke="#203749" stroke-width="1.5" stroke-miterlimit="10" stroke-linejoin="round"/>
<path d="M162.745 251.781C161.721 254.434 161.203 257.213 161.203 260.056V274.72C161.203 280.872 166.406 285.877 172.8 285.877H345.454C351.852 285.877 357.058 280.872 357.058 274.72V254.631C357.058 253.213 356.847 251.814 356.431 250.459C354.191 254.22 350.008 256.591 345.455 256.591H172.8C168.82 256.591 165.13 254.81 162.745 251.781Z" fill="#FAC6C6"/>
<g opacity="0.4">
<path d="M160.918 279.592V281.688C160.918 286.017 163.559 289.992 167.645 291.817C169.173 292.499 170.811 292.845 172.516 292.845H345.169C347.493 292.845 349.733 292.188 351.647 290.943C354.858 288.863 356.774 285.403 356.774 281.688V279.6C355.951 281.418 354.667 283.033 352.992 284.301C350.752 286.013 348.046 286.918 345.169 286.918H172.516C170.442 286.918 168.396 286.427 166.601 285.5C164.018 284.181 162.042 282.082 160.918 279.592Z" fill="#EEBED9" style="mix-blend-mode:multiply"/>
</g>
<path d="M428.376 159.76L422.006 167.961C422.006 167.961 420.478 170.587 421.497 172.637C421.497 172.637 421.815 174.046 425.445 174.623L428.376 159.76Z" fill="#F3BBA3" stroke="#203749" stroke-width="1.5" stroke-miterlimit="10" stroke-linejoin="round"/>
<path d="M430.159 153.546C430.159 153.546 423.28 172.637 424.554 182.119C424.554 182.119 424.299 189.55 437.547 190.575L437.42 206.976L465.317 192.881L465.189 185.578L473.469 166.103L430.159 153.546Z" fill="#F3EBE0" stroke="#203749" stroke-width="1.5" stroke-miterlimit="10" stroke-linejoin="round"/>
<path d="M407.655 149.517L430.826 155.321L431.383 153.073L407.99 148.214C407.741 148.152 407.49 148.304 407.428 148.554L407.326 148.966C407.265 149.209 407.413 149.456 407.655 149.517Z" fill="#5A707E" stroke="#203749" stroke-width="1.5" stroke-miterlimit="10" stroke-linejoin="round"/>
<path d="M473.97 166.069C474.561 166.236 474.93 166.822 474.822 167.428C474.359 170.012 472.931 176.746 469.903 181.67C469.903 181.67 467.774 185.139 466.058 186.79C465.547 187.28 464.724 187.204 464.296 186.639L461.055 182.369C460.717 181.923 460.731 181.302 461.088 180.872C462.479 179.202 463.839 177.328 464.094 175.067C464.322 173.046 463.801 170.688 461.76 169.817C460.472 169.267 458.971 169.669 457.945 170.571C456.17 172.133 455.639 174.754 453.567 175.987C453.054 176.292 452.476 176.51 451.88 176.524C450.15 176.563 449.076 174.809 448.886 173.278V160.572C448.886 159.778 449.639 159.204 450.398 159.419L473.97 166.069Z" fill="#B69883" stroke="#203749" stroke-width="1.5" stroke-miterlimit="10" stroke-linejoin="round"/>
<path d="M475.316 167.758C475.316 167.758 429.409 154.949 429.395 154.945C429.175 154.884 431.239 150.179 431.372 149.923C433.256 146.301 435.956 143.1 439.331 140.802C448.568 134.515 462.454 134.878 470.236 143.337C474.331 147.788 476.165 153.703 476.183 159.701C476.192 162.407 475.864 165.11 475.316 167.758Z" fill="#627885" stroke="#203749" stroke-width="1.5" stroke-miterlimit="10" stroke-linejoin="round"/>
<path d="M423.082 395.186L416.021 461.722L427.913 463.217C427.913 463.217 445.379 426.211 450.21 407.148L454.298 393.691L423.082 395.186Z" fill="#EADBCA" stroke="#203749" stroke-width="1.5" stroke-miterlimit="10" stroke-linejoin="round"/>
<path d="M429.014 462.087L413.754 459.854C412.073 459.609 410.357 459.803 408.772 460.418L388.481 468.292C387.708 468.592 386.988 469.017 386.38 469.583C385.425 470.469 384.246 471.941 384.206 473.827C384.155 476.198 386.013 478.178 388.343 478.54C393.05 479.271 405.137 480.913 424.196 481.907C424.196 481.907 429.585 482.842 431.257 476.861L431.56 465.127C431.599 463.611 430.506 462.305 429.014 462.087Z" fill="#2C97C8" stroke="#1F3749" stroke-width="1.5" stroke-miterlimit="10" stroke-linejoin="round"/>
<path d="M425.446 308.069C425.446 308.069 423.535 327.673 422.006 335.745C422.006 335.745 417.802 363.42 415.51 395.325C415.51 395.325 430.414 398.784 451.814 399.169L461.75 307.685L425.828 304.609L425.446 308.069Z" fill="#4B5B65" stroke="#203749" stroke-width="1.5" stroke-miterlimit="10" stroke-linejoin="round"/>
<path d="M472.811 463.457L484.68 459.998L470.157 389.271L441.114 396.959L472.811 463.457Z" fill="#F3EBE0" stroke="#203749" stroke-width="1.5" stroke-miterlimit="10" stroke-linejoin="round"/>
<path d="M482.303 310.939C483.847 311.053 485.015 312.385 484.928 313.94C484.547 320.839 483.188 339.626 478.946 360.346C478.946 360.346 476.062 373.04 476.947 395.962C476.995 397.203 476.255 398.334 475.097 398.765C469.584 400.821 453.084 406.442 435.683 407.174C434.369 407.229 433.184 406.4 432.814 405.13C430.588 397.503 423.768 369.876 429.266 333.438L433.054 309.885C433.289 308.422 434.598 307.384 436.067 307.493L482.303 310.939Z" fill="#51636E" stroke="#203749" stroke-width="1.5" stroke-miterlimit="10" stroke-linejoin="round"/>
<path d="M470.922 195.828C470.922 195.828 482.577 206.591 484.87 244.261C484.87 244.261 487.12 296.295 486.679 313.755C486.645 315.077 485.557 316.118 484.243 316.073C475.85 315.789 446.774 314.443 426.902 309.03C425.705 308.704 424.858 307.635 424.837 306.387L424.108 263.48C424.108 263.48 424.681 221.197 435.381 211.78L470.922 195.828Z" fill="#5B6D78" stroke="#203749" stroke-width="1.5" stroke-miterlimit="10" stroke-linejoin="round"/>
<path d="M447.153 482.965C447.303 485.415 448.959 486.379 449.955 486.749C450.312 486.881 450.688 486.947 451.074 486.976C462.001 487.656 479.736 483.097 488.868 480.478C492.028 479.57 493.72 476.136 492.526 473.062L492.282 472.438C487.674 475.644 483.348 476.448 483.348 476.448C469.064 479.702 457.45 479.314 449.419 478.132C447.943 479.295 447.04 481.083 447.153 482.965Z" fill="#208EB5"/>
<path d="M464.688 241.304C453.946 271.556 430.586 289.016 425.025 291.895C425.025 291.895 424.219 259.441 424.864 254.255L464.688 241.304Z" fill="#40515B"/>
<path d="M463.062 313.963C463.062 313.963 466.071 276.89 455.54 257.974" stroke="white" stroke-width="1.5" stroke-miterlimit="10" stroke-linecap="round" stroke-linejoin="round"/>
<path d="M466.653 189.557C467.598 190.796 469.803 193.691 470.854 195.07C471.166 195.48 471.06 196.066 470.625 196.34C467.121 198.545 452.585 207.485 434.716 215.531C434.079 215.817 433.38 215.269 433.502 214.578L434.86 206.864C435.068 205.687 435.809 204.682 436.872 204.147C440.562 202.289 450.281 197.355 465.554 189.318C465.928 189.121 466.396 189.22 466.653 189.557Z" fill="#627885" stroke="#203749" stroke-width="1.5" stroke-miterlimit="10" stroke-linejoin="round"/>
<path d="M419.783 253.729C419.783 253.729 397.656 284.197 391.533 290.139C391.533 290.139 388.741 293.272 384.229 293.165H381.651C381.651 293.165 379.396 292.625 377.14 294.785C377.14 294.785 374.24 297.918 368.44 301.916C368.44 301.916 366.399 303.212 367.043 304.617C367.043 304.617 369.406 307.426 374.24 304.617C374.24 304.617 376.458 302.973 378.312 302.845C379.364 302.772 379.907 304.053 379.119 304.755C378.93 304.924 378.702 305.096 378.429 305.265L365.821 314.525C365.336 314.881 365.381 315.622 365.907 315.913C367 316.519 368.917 317.165 371.34 316.286L373.97 315.083C374.562 314.813 375.227 314.753 375.858 314.915L382.079 316.516C383.399 316.855 384.796 316.72 386.028 316.133L391.99 313.293C393.518 312.565 394.814 311.424 395.736 309.998L400.805 302.154C401.14 301.636 401.528 301.154 401.963 300.717L435.682 266.801L419.783 253.729Z" fill="#F3EBE0" stroke="#203749" stroke-width="1.5" stroke-miterlimit="10" stroke-linejoin="round"/>
<path d="M488.488 461.232L493.122 473.153C494.349 476.311 492.609 479.842 489.367 480.773C479.981 483.467 461.763 488.142 450.536 487.444C450.142 487.419 449.761 487.346 449.39 487.21C448.368 486.837 446.67 485.842 446.517 483.322C446.392 481.267 447.451 479.319 449.134 478.147L469.644 463.864C470.152 463.51 470.719 463.251 471.319 463.099L485.271 459.565C486.607 459.227 487.986 459.941 488.488 461.232Z" fill="#369AC7" stroke="#1F3749" stroke-width="1.5" stroke-miterlimit="10" stroke-linejoin="round"/>
<path d="M432.911 224.704C430.723 227.033 428.705 229.484 426.824 231.729C425.888 232.847 416.043 243.715 413.207 247.56C412.692 248.257 412.704 249.211 413.238 249.893C415.751 253.107 424.239 263.462 437.226 274.213C437.955 274.816 439.026 274.8 439.728 274.164C444.031 270.262 448.039 265.967 451.779 261.535C458.094 254.051 464.624 245.573 466.155 235.597C467.425 227.321 463.606 216.575 454.477 214.863C445.693 213.216 438.706 218.532 432.911 224.704Z" fill="#51636E" stroke="#203749" stroke-width="1.5" stroke-miterlimit="10" stroke-linejoin="round"/>
<path d="M433.524 161.22L439.094 163.521C439.365 163.634 439.676 163.503 439.788 163.23L439.989 162.737C440.1 162.464 439.971 162.152 439.699 162.04L434.13 159.738C433.858 159.626 433.548 159.756 433.436 160.029L433.235 160.523C433.124 160.796 433.253 161.108 433.524 161.22Z" fill="#875B4D"/>
<path d="M434.132 167.837C433.116 167.837 432.292 167.035 432.292 166.044C432.292 165.054 433.116 164.251 434.132 164.251C435.147 164.251 435.971 165.054 435.971 166.044C435.971 167.035 435.147 167.837 434.132 167.837Z" fill="#1F3749"/>
<path d="M429.888 178.739C433.136 180.036 439.314 179.967 440.636 174.943" stroke="#CC4B62" stroke-width="1.5" stroke-miterlimit="10" stroke-linecap="round" stroke-linejoin="round"/>
<path d="M438.035 190.484L443.674 190.903C443.674 190.903 440.84 197.884 437.974 198.076L438.035 190.484Z" fill="#E9C2B5"/>
<path d="M464.329 401.035L474.588 398.761L475.109 398.499C475.969 397.965 476.48 397.003 476.442 395.963C475.553 373.041 478.442 360.342 478.442 360.342C482.238 341.813 483.716 324.819 484.266 316.502L483.735 316.075C486.045 317.933 477.431 336.88 476.574 338.783C468.537 356.63 448.966 381.174 464.329 401.035Z" fill="#425460"/>
<path d="M82.6243 159.76L88.9937 167.961C88.9937 167.961 90.5224 170.587 89.5035 172.637C89.5035 172.637 89.1851 174.046 85.5548 174.623L82.6243 159.76Z" fill="#F3BBA3" stroke="#203749" stroke-width="1.5" stroke-miterlimit="10" stroke-linejoin="round"/>
<path d="M80.841 153.546C80.841 153.546 87.7196 172.637 86.4461 182.119C86.4461 182.119 86.7006 189.55 73.4527 190.575L73.5803 206.976L45.6833 192.881L45.8109 185.578L37.5306 166.103L80.841 153.546Z" fill="#F3EBE0" stroke="#203749" stroke-width="1.5" stroke-miterlimit="10" stroke-linejoin="round"/>
<path d="M103.345 149.517L80.174 155.321L79.6172 153.073L103.011 148.214C103.259 148.152 103.51 148.304 103.572 148.554L103.674 148.966C103.735 149.209 103.587 149.456 103.345 149.517Z" fill="#5A707E" stroke="#203749" stroke-width="1.5" stroke-miterlimit="10" stroke-linejoin="round"/>
<path d="M37.0298 166.069C36.4395 166.236 36.0696 166.822 36.1778 167.428C36.6406 170.012 38.0687 176.746 41.0972 181.67C41.0972 181.67 43.2259 185.139 44.9421 186.79C45.4526 187.28 46.2756 187.204 46.7035 186.639L49.9452 182.369C50.283 181.923 50.2694 181.302 49.9117 180.872C48.5209 179.202 47.1611 177.328 46.9059 175.067C46.6784 173.046 47.1991 170.688 49.2395 169.817C50.5285 169.267 52.0295 169.669 53.0549 170.571C54.8298 172.133 55.3608 174.754 57.4328 175.987C57.9465 176.292 58.5239 176.51 59.1201 176.524C60.8499 176.563 61.9242 174.809 62.1143 173.278V160.572C62.1143 159.778 61.3609 159.204 60.6017 159.419L37.0298 166.069Z" fill="#B69883" stroke="#203749" stroke-width="1.5" stroke-miterlimit="10" stroke-linejoin="round"/>
<path d="M35.6835 167.758C35.6835 167.758 81.5905 154.949 81.6054 154.945C81.8251 154.884 79.7609 150.179 79.6281 149.923C77.7436 146.301 75.0439 143.1 71.6688 140.802C62.432 134.515 48.5461 134.878 40.7639 143.337C36.6689 147.788 34.8347 153.703 34.8173 159.701C34.8083 162.407 35.1363 165.11 35.6835 167.758Z" fill="#627885" stroke="#203749" stroke-width="1.5" stroke-miterlimit="10" stroke-linejoin="round"/>
<path d="M87.9181 395.186L94.979 461.722L83.087 463.217C83.087 463.217 65.6209 426.211 60.7899 407.148L56.702 393.691L87.9181 395.186Z" fill="#EADBCA" stroke="#203749" stroke-width="1.5" stroke-miterlimit="10" stroke-linejoin="round"/>
<path d="M81.9863 462.087L97.2463 459.854C98.9271 459.609 100.643 459.803 102.228 460.418L122.519 468.292C123.292 468.592 124.012 469.017 124.62 469.583C125.575 470.469 126.754 471.941 126.794 473.827C126.845 476.198 124.987 478.178 122.657 478.54C117.95 479.271 105.863 480.913 86.8038 481.907C86.8038 481.907 81.4153 482.842 79.7428 476.861L79.4399 465.127C79.4006 463.611 80.4943 462.305 81.9863 462.087Z" fill="#2C97C8" stroke="#1F3749" stroke-width="1.5" stroke-miterlimit="10" stroke-linejoin="round"/>
<path d="M85.5541 308.069C85.5541 308.069 87.465 327.673 88.9937 335.745C88.9937 335.745 93.1977 363.42 95.4901 395.325C95.4901 395.325 80.5858 398.784 59.1858 399.169L49.2498 307.685L85.1719 304.609L85.5541 308.069Z" fill="#4B5B65" stroke="#203749" stroke-width="1.5" stroke-miterlimit="10" stroke-linejoin="round"/>
<path d="M38.1886 463.457L26.3205 459.998L40.8426 389.271L69.8861 396.959L38.1886 463.457Z" fill="#F3EBE0" stroke="#203749" stroke-width="1.5" stroke-miterlimit="10" stroke-linejoin="round"/>
<path d="M28.6973 310.939C27.1532 311.053 25.9854 312.385 26.0717 313.94C26.4533 320.839 27.8125 339.626 32.0538 360.346C32.0538 360.346 34.9385 373.04 34.053 395.962C34.0053 397.203 34.7452 398.334 35.9026 398.765C41.4155 400.821 57.9162 406.442 75.3172 407.174C76.6313 407.229 77.8158 406.4 78.1864 405.13C80.4118 397.503 87.2323 369.876 81.7336 333.438L77.946 309.885C77.7108 308.422 76.4025 307.384 74.9331 307.493L28.6973 310.939Z" fill="#51636E" stroke="#203749" stroke-width="1.5" stroke-miterlimit="10" stroke-linejoin="round"/>
<path d="M40.0782 195.828C40.0782 195.828 28.4228 206.591 26.1297 244.261C26.1297 244.261 23.8805 296.295 24.3213 313.755C24.3548 315.077 25.4433 316.118 26.7574 316.073C35.1499 315.789 64.2256 314.443 84.0976 309.03C85.295 308.704 86.1419 307.635 86.1631 306.387L86.8921 263.48C86.8921 263.48 86.3191 221.197 75.6188 211.78L40.0782 195.828Z" fill="#5B6D78" stroke="#203749" stroke-width="1.5" stroke-miterlimit="10" stroke-linejoin="round"/>
<path d="M63.8473 482.965C63.6972 485.415 62.0415 486.379 61.0451 486.749C60.6881 486.881 60.3117 486.947 59.9263 486.976C48.9991 487.656 31.2637 483.097 22.132 480.478C18.9721 479.57 17.2797 476.136 18.4739 473.062L18.7182 472.438C23.3262 475.644 27.652 476.448 27.652 476.448C41.9363 479.702 53.5505 479.314 61.5813 478.132C63.0572 479.295 63.9601 481.083 63.8473 482.965Z" fill="#208EB5"/>
<path d="M46.3123 241.304C57.0539 271.556 80.4144 289.016 85.9749 291.895C85.9749 291.895 86.7806 259.441 86.1361 254.255L46.3123 241.304Z" fill="#40515B"/>
<path d="M47.9377 313.963C47.9377 313.963 44.9286 276.89 55.4601 257.974" stroke="white" stroke-width="1.5" stroke-miterlimit="10" stroke-linecap="round" stroke-linejoin="round"/>
<path d="M44.3466 189.557C43.4025 190.796 41.1971 193.691 40.1459 195.07C39.834 195.48 39.9397 196.066 40.3747 196.34C43.8787 198.545 58.415 207.485 76.2839 215.531C76.9206 215.817 77.6199 215.269 77.4981 214.578L76.1395 206.864C75.932 205.687 75.1909 204.682 74.1281 204.147C70.4378 202.289 60.719 197.355 45.4461 189.318C45.0717 189.121 44.6038 189.22 44.3466 189.557Z" fill="#627885" stroke="#203749" stroke-width="1.5" stroke-miterlimit="10" stroke-linejoin="round"/>
<path d="M91.2172 253.729C91.2172 253.729 113.344 284.197 119.467 290.139C119.467 290.139 122.259 293.272 126.771 293.165H129.349C129.349 293.165 131.604 292.625 133.86 294.785C133.86 294.785 136.76 297.918 142.56 301.916C142.56 301.916 144.601 303.212 143.957 304.617C143.957 304.617 141.594 307.426 136.76 304.617C136.76 304.617 134.542 302.973 132.688 302.845C131.636 302.772 131.093 304.053 131.881 304.755C132.07 304.924 132.298 305.096 132.571 305.265L145.179 314.525C145.664 314.881 145.619 315.622 145.093 315.913C144 316.519 142.083 317.165 139.66 316.286L137.03 315.083C136.438 314.813 135.773 314.753 135.142 314.915L128.921 316.516C127.601 316.855 126.204 316.72 124.972 316.133L119.01 313.293C117.482 312.565 116.186 311.424 115.264 309.998L110.195 302.154C109.86 301.636 109.472 301.154 109.037 300.717L75.3185 266.801L91.2172 253.729Z" fill="#F3EBE0" stroke="#203749" stroke-width="1.5" stroke-miterlimit="10" stroke-linejoin="round"/>
<path d="M22.5122 461.232L17.8784 473.153C16.6507 476.311 18.3908 479.842 21.6332 480.773C31.0188 483.467 49.2369 488.142 60.4638 487.444C60.8576 487.419 61.2391 487.346 61.6097 487.21C62.6318 486.837 64.3301 485.842 64.4834 483.322C64.6085 481.267 63.5489 479.319 61.8662 478.147L41.3562 463.864C40.8477 463.51 40.2806 463.251 39.6806 463.099L25.7289 459.565C24.3928 459.227 23.0143 459.941 22.5122 461.232Z" fill="#369AC7" stroke="#1F3749" stroke-width="1.5" stroke-miterlimit="10" stroke-linejoin="round"/>
<path d="M78.0891 224.704C80.2771 227.033 82.295 229.484 84.1756 231.729C85.112 232.847 94.9571 243.715 97.7934 247.56C98.3084 248.257 98.2961 249.211 97.7619 249.893C95.249 253.107 86.7606 263.462 73.7743 274.213C73.0454 274.816 71.9736 274.8 71.2724 274.164C66.9686 270.262 62.9612 265.967 59.2213 261.535C52.906 254.051 46.3761 245.573 44.8448 235.597C43.5745 227.321 47.3944 216.575 56.5228 214.863C65.3071 213.216 72.2939 218.532 78.0891 224.704Z" fill="#51636E" stroke="#203749" stroke-width="1.5" stroke-miterlimit="10" stroke-linejoin="round"/>
<path d="M77.4755 161.22L71.9059 163.521C71.6346 163.634 71.324 163.503 71.2125 163.23L71.0114 162.737C70.8999 162.464 71.0294 162.152 71.3008 162.04L76.8704 159.738C77.1417 159.626 77.4523 159.756 77.5638 160.029L77.7649 160.523C77.8764 160.796 77.7468 161.108 77.4755 161.22Z" fill="#875B4D"/>
<path d="M76.8684 167.837C77.8843 167.837 78.7078 167.035 78.7078 166.044C78.7078 165.054 77.8843 164.251 76.8684 164.251C75.8526 164.251 75.0291 165.054 75.0291 166.044C75.0291 167.035 75.8526 167.837 76.8684 167.837Z" fill="#1F3749"/>
<path d="M81.1117 178.739C77.8635 180.036 71.6855 179.967 70.3637 174.943" stroke="#CC4B62" stroke-width="1.5" stroke-miterlimit="10" stroke-linecap="round" stroke-linejoin="round"/>
<path d="M72.9648 190.484L67.3256 190.903C67.3256 190.903 70.16 197.884 73.026 198.076L72.9648 190.484Z" fill="#E9C2B5"/>
<path d="M46.6713 401.035L36.4124 398.761L35.891 398.499C35.0313 397.965 34.5196 397.003 34.5582 395.963C35.447 373.041 32.5584 360.342 32.5584 360.342C28.7618 341.813 27.284 324.819 26.7336 316.502L27.2646 316.075C24.9555 317.933 33.5689 336.88 34.4261 338.783C42.4628 356.63 62.0337 381.174 46.6713 401.035Z" fill="#425460"/>
<path d="M764 479.614C764 483.141 750.793 486 734.5 486C718.207 486 705 483.141 705 479.614V473H764V479.614Z" fill="#AAAFB7" stroke="#203749" stroke-width="1.5" stroke-miterlimit="10" stroke-linejoin="round"/>
<path d="M734.5 479C750.792 479 764 476.314 764 473C764 469.686 750.792 467 734.5 467C718.208 467 705 469.686 705 473C705 476.314 718.208 479 734.5 479Z" fill="#CDDAE2" stroke="#203749" stroke-width="1.5" stroke-miterlimit="10" stroke-linejoin="round"/>
<path d="M735.161 471.692H733.84C731.833 471.692 730.207 471.067 730.207 469.062V233.077H738.793V469.062C738.793 471.066 737.167 471.692 735.161 471.692Z" fill="#CDDAE2" stroke="#203749" stroke-width="1.5" stroke-miterlimit="10" stroke-linejoin="round"/>
<path d="M722.612 241.329V285.885" stroke="#203749" stroke-width="1.5" stroke-miterlimit="10" stroke-linejoin="round"/>
<path d="M712.044 173.669C712.044 173.669 740.444 171.028 756.295 173.669L769.505 250.9C769.505 250.9 740.444 256.841 699.495 250.9L712.044 173.669Z" fill="#C3CDF6" stroke="#203749" stroke-width="1.5" stroke-miterlimit="10" stroke-linejoin="round"/>
<path opacity="0.3" d="M700.01 250.537C737.343 255.878 764.979 251.273 768.879 250.559L762.57 213.165C748.7 233.738 732.078 239.679 701.477 241.769L700.01 250.537Z" fill="#9CA3E2"/>
<path opacity="0.5" d="M730.645 253.98V267.402C733.246 266.955 735.798 266.475 738.24 265.973V253.98H730.645Z" fill="#BAC4CC"/>
<path d="M722.612 290.945C721.608 290.945 720.795 290.133 720.795 289.13V286.49C720.795 285.487 721.608 284.675 722.612 284.675C723.615 284.675 724.428 285.487 724.428 286.49V289.13C724.428 290.133 723.615 290.945 722.612 290.945Z" fill="#A5AAD5" stroke="#203749" stroke-width="1.5" stroke-miterlimit="10" stroke-linejoin="round"/>
</svg>
