<svg width="804" height="557" viewBox="0 0 804 557" fill="none" xmlns="http://www.w3.org/2000/svg">
<g opacity="0.5">
<mask id="mask0" mask-type="alpha" maskUnits="userSpaceOnUse" x="71" y="0" width="733" height="457">
<rect x="71" width="733" height="457" fill="url(#paint0_radial)"/>
<rect x="71" width="733" height="457" fill="url(#paint1_linear)"/>
</mask>
<g mask="url(#mask0)">
<path d="M803.463 220.814H71.5368V241.177H803.463V220.814Z" fill="#B4D8E7" stroke="#6B889E" stroke-width="1.5" stroke-miterlimit="10" stroke-linejoin="round"/>
<path d="M803.463 436.175H71.5368V456.537H803.463V436.175Z" fill="#B4D8E7" stroke="#6B889E" stroke-width="1.5" stroke-miterlimit="10" stroke-linejoin="round"/>
<path d="M176.737 0.462646H161.708V445.728H176.737V0.462646Z" fill="#B4D8E7" stroke="#6B889E" stroke-width="1.5" stroke-miterlimit="10" stroke-linejoin="round"/>
<path d="M375.723 436.943H230.201C226.908 436.943 224.238 434.641 224.238 431.801V273.006C224.238 270.167 226.908 267.864 230.201 267.864H375.723C379.017 267.864 381.687 270.167 381.687 273.006V431.801C381.688 434.641 379.018 436.943 375.723 436.943Z" fill="#CAEBF6" stroke="#6B889E" stroke-width="1.5" stroke-miterlimit="10" stroke-linejoin="round"/>
<path d="M550.589 436.943H405.066C401.773 436.943 399.103 434.641 399.103 431.801V273.006C399.103 270.167 401.773 267.864 405.066 267.864H550.588C553.882 267.864 556.552 270.167 556.552 273.006V431.801C556.553 434.641 553.883 436.943 550.589 436.943Z" fill="#CAEBF6" stroke="#6B889E" stroke-width="1.5" stroke-miterlimit="10" stroke-linejoin="round"/>
<path d="M725.454 436.943H579.932C576.638 436.943 573.968 434.641 573.968 431.801V273.006C573.968 270.167 576.638 267.864 579.932 267.864H725.454C728.747 267.864 731.418 270.167 731.418 273.006V431.801C731.418 434.641 728.747 436.943 725.454 436.943Z" fill="#CAEBF6" stroke="#6B889E" stroke-width="1.5" stroke-miterlimit="10" stroke-linejoin="round"/>
<path d="M375.723 221.211H230.201C226.908 221.211 224.238 218.908 224.238 216.068V57.2737C224.238 54.4339 226.908 52.1316 230.201 52.1316H375.723C379.017 52.1316 381.687 54.4339 381.687 57.2737V216.068C381.688 218.908 379.018 221.211 375.723 221.211Z" fill="#CAEBF6" stroke="#6B889E" stroke-width="1.5" stroke-miterlimit="10" stroke-linejoin="round"/>
<path d="M550.589 221.211H405.066C401.773 221.211 399.103 218.908 399.103 216.068V57.2737C399.103 54.4339 401.773 52.1316 405.066 52.1316H550.588C553.882 52.1316 556.552 54.4339 556.552 57.2737V216.068C556.553 218.908 553.883 221.211 550.589 221.211Z" fill="#CAEBF6" stroke="#6B889E" stroke-width="1.5" stroke-miterlimit="10" stroke-linejoin="round"/>
<path d="M725.454 221.211H579.932C576.638 221.211 573.968 218.908 573.968 216.068V57.2737C573.968 54.4339 576.638 52.1316 579.932 52.1316H725.454C728.747 52.1316 731.418 54.4339 731.418 57.2737V216.068C731.418 218.908 728.747 221.211 725.454 221.211Z" fill="#CAEBF6" stroke="#6B889E" stroke-width="1.5" stroke-miterlimit="10" stroke-linejoin="round"/>
<path d="M520.248 0.462646H505.219V456.484H520.248V0.462646Z" fill="#B4D8E7" stroke="#6B889E" stroke-width="1.5" stroke-miterlimit="10" stroke-linejoin="round"/>
</g>
</g>
<path d="M76.6283 269.483C75.1542 269.995 73.8049 270.889 72.6973 272.258C67.7562 278.365 70.3014 288.758 72.2842 295.405L87.8889 338.533C87.8889 338.533 106.814 339.52 106.482 312.524C106.383 304.458 103.17 295.133 100.154 287.791C97.8852 282.266 94.8718 276.485 90.0968 272.674C86.5389 269.836 81.0262 267.957 76.6283 269.483Z" fill="#1D78B5" stroke="#1F3749" stroke-width="1.5" stroke-miterlimit="10" stroke-linejoin="round"/>
<path d="M170.853 169.602L175.607 179.063C175.607 179.063 176.613 181.989 175.164 183.821C175.164 183.821 174.555 185.159 170.771 184.993L170.853 169.602Z" fill="#F3BBA3" stroke="#203749" stroke-width="1.5" stroke-miterlimit="10" stroke-linejoin="round"/>
<path d="M170.464 163.464C171.067 163.443 170.701 187.8 170.549 189.756C170.482 190.628 170.403 191.506 170.15 192.344C169.338 195.028 167.062 197.115 164.556 198.273C163.335 198.837 162.062 199.145 160.727 199.275C160.235 199.323 156.574 199.519 155.548 199.101C155.548 199.101 155.68 211.15 155.68 211.15L130.257 198.151L130.388 189.416L127.169 165.026C169.8 163.488 169.777 163.489 170.464 163.464Z" fill="#F3EBE0" stroke="#203749" stroke-width="1.5" stroke-miterlimit="10" stroke-linejoin="round"/>
<path d="M124.66 164.332C124.052 164.501 123.812 165.087 123.782 165.713C123.663 168.243 123.586 171.19 123.746 173.839C124.12 180.023 125.526 186.256 130.156 190.646C130.682 191.145 131.53 191.067 131.971 190.493L137.303 186.156C137.651 185.703 137.637 185.072 137.269 184.636C135.836 182.94 134.435 181.036 134.172 178.739C133.937 176.686 134.474 174.292 136.576 173.407C137.904 172.848 139.451 173.256 140.507 174.172C142.336 175.759 142.883 178.421 145.018 179.673C145.547 179.983 146.142 180.205 146.756 180.219C148.539 180.259 149.646 178.477 149.842 176.922L150.506 164.016C150.506 163.21 149.729 162.627 148.947 162.845L124.66 164.332Z" fill="#B69883" stroke="#203749" stroke-width="1.5" stroke-miterlimit="10" stroke-linejoin="round"/>
<path d="M96.1893 350.056C96.1893 350.056 101.502 340.508 131.383 339.85C131.383 339.85 163.342 340.17 169.963 362.274C170.152 362.902 170.266 363.552 170.342 364.204L170.703 367.303C170.98 369.69 169.098 371.784 166.675 371.784H103.242C100.376 371.784 97.9821 369.617 97.7232 366.787L96.1893 350.056Z" fill="#1D78B5" stroke="#1F3749" stroke-width="1.5" stroke-miterlimit="10" stroke-linejoin="round"/>
<path d="M194.391 406.931L194.131 420.683C194.075 423.652 196.535 426.083 199.573 426.058L241.507 425.725C243.529 425.709 244.858 423.656 244.006 421.863C241.653 416.907 237.501 412.983 232.355 410.852L215.505 403.871H197.58C195.841 403.871 194.423 405.232 194.391 406.931Z" fill="#369AC7" stroke="#1F3749" stroke-width="1.5" stroke-miterlimit="10" stroke-linejoin="round"/>
<path d="M167.572 307.586L203.762 314.17C203.762 314.17 217.043 314.17 215.051 337.216L160.268 319.109L167.572 307.586Z" fill="#4C5C65" stroke="#203749" stroke-width="1.5" stroke-miterlimit="10" stroke-linejoin="round"/>
<path d="M195.308 163.992L170.706 164.249L170.681 161.896L195.281 162.625C195.545 162.623 195.76 162.832 195.763 163.093L195.768 163.525C195.77 163.78 195.565 163.989 195.308 163.992Z" fill="#5A717F" stroke="#203749" stroke-width="1.5" stroke-miterlimit="10" stroke-linejoin="round"/>
<path d="M123.161 166.02C123.161 166.02 172.213 164.216 172.229 164.216C172.464 164.207 171.51 159.07 171.438 158.786C170.407 154.761 168.46 150.96 165.622 147.891C157.853 139.496 143.849 136.571 134.042 143.09C128.883 146.52 125.642 151.932 124.203 157.854C123.553 160.527 123.241 163.275 123.161 166.02Z" fill="#637885" stroke="#203749" stroke-width="1.5" stroke-miterlimit="10" stroke-linejoin="round"/>
<path d="M166.355 261.495C166.355 261.495 180.742 283.882 213.944 268.299L216.821 266.323L212.394 255.788C212.394 255.788 197.564 259.739 188.268 256.227C188.268 256.227 185.611 255.35 174.987 243.278L166.355 261.495Z" fill="#F3EBE0" stroke="#203749" stroke-width="1.5" stroke-miterlimit="10" stroke-linejoin="round"/>
<path d="M163.34 222.81C165.366 225.183 167.221 227.67 168.951 229.948C169.813 231.082 178.912 242.14 181.501 246.028C181.971 246.734 181.916 247.672 181.365 248.326C178.773 251.402 170.038 261.302 156.905 271.43C156.168 271.999 155.125 271.944 154.47 271.292C150.454 267.296 146.744 262.921 143.302 258.422C137.488 250.825 131.51 242.24 130.468 232.357C129.605 224.159 133.809 213.709 142.778 212.347C151.407 211.037 157.973 216.524 163.34 222.81Z" fill="#495B64" stroke="#203749" stroke-width="1.5" stroke-miterlimit="10" stroke-linejoin="round"/>
<path d="M164.554 311.933C165.232 311.889 165.912 311.971 166.559 312.176L205.09 324.376C205.09 324.376 224.015 329.973 224.015 351.372C224.015 351.372 223.252 384.159 221.726 398.961C221.417 401.954 219.007 404.311 215.985 404.583C211.624 404.976 204.933 405.42 197.938 405.288C194.617 405.226 191.833 402.78 191.386 399.517L187.538 371.4C186.556 364.223 180.464 358.815 173.162 358.64L134.641 357.714C130.636 357.618 126.687 356.715 123.077 354.993C115.735 351.491 109.988 345.431 107.048 337.876C105.849 334.795 104.977 331.538 104.922 328.219C104.879 325.646 105.273 323.025 105.468 320.457C105.669 317.796 107.814 315.686 110.5 315.508L164.554 311.933Z" fill="#52646F" stroke="#203749" stroke-width="1.5" stroke-miterlimit="10" stroke-linejoin="round"/>
<path d="M121.382 202.461C121.382 202.461 109.373 212.971 107.01 249.753C107.01 249.753 104.693 300.562 105.147 317.611C105.182 318.902 106.303 319.918 107.657 319.875C116.304 319.597 146.262 318.284 166.736 312.998C167.97 312.679 168.843 311.636 168.865 310.418L169.616 268.52C169.616 268.52 169.025 227.233 158 218.037L121.382 202.461Z" fill="#62737C" stroke="#203749" stroke-width="1.5" stroke-miterlimit="10" stroke-linejoin="round"/>
<path d="M129.923 317.845C129.923 317.845 126.822 280.847 137.673 261.634" stroke="white" stroke-width="1.5" stroke-miterlimit="10" stroke-linecap="round" stroke-linejoin="round"/>
<path d="M125.78 196.091C124.808 197.35 122.535 200.29 121.452 201.692C121.131 202.108 121.24 202.703 121.688 202.981C125.298 205.221 140.276 214.302 158.686 222.474C159.342 222.765 160.063 222.208 159.937 221.506L158.538 213.671C158.324 212.476 157.56 211.454 156.465 210.911C152.663 209.024 142.649 204.013 126.913 195.849C126.527 195.648 126.045 195.748 125.78 196.091Z" fill="#637885" stroke="#203749" stroke-width="1.5" stroke-miterlimit="10" stroke-linejoin="round"/>
<path d="M165.385 176.043C166.164 175.35 166.247 174.182 165.57 173.433C164.893 172.684 163.712 172.638 162.933 173.331C162.154 174.024 162.071 175.192 162.748 175.941C163.425 176.69 164.606 176.736 165.385 176.043Z" fill="#1F3749"/>
<path d="M155.061 198.7L148.867 195.342C148.867 195.342 148.082 204.614 155.136 206.411L155.061 198.7Z" fill="#E9C2B5"/>
<path d="M166.078 169.477C166.078 169.477 163.754 167.996 159.106 170.3" stroke="#875C4E" stroke-width="2.5" stroke-miterlimit="10" stroke-linecap="round" stroke-linejoin="round"/>
<path d="M165.027 188.627C165.027 188.627 160.378 189.285 156.173 185.993" stroke="#CC4B62" stroke-width="1.5" stroke-miterlimit="10" stroke-linecap="round" stroke-linejoin="round"/>
<path d="M180.189 424.13H281.122V449.48C281.122 449.48 260.42 457.215 256.663 486.259C256.315 488.954 253.978 490.962 251.237 490.962H181.517L180.189 424.13Z" fill="#B0C9D6" stroke="#203749" stroke-width="1.5" stroke-miterlimit="10" stroke-linejoin="round"/>
<path d="M278.133 439.275C278.133 439.275 253.896 447.505 249.117 474.839C248.593 477.838 246.09 480.098 243.019 480.098H173.88" fill="#B0C9D6"/>
<path d="M278.133 439.275C278.133 439.275 253.896 447.505 249.117 474.839C248.593 477.838 246.09 480.098 243.019 480.098H173.88" stroke="#203749" stroke-width="1.5" stroke-miterlimit="10" stroke-linejoin="round"/>
<path d="M249.903 266.685L233.242 252.427L228.89 255.224L240.302 274.161L249.903 266.685Z" fill="#ABB5B7" stroke="#1F3749" stroke-width="1.5" stroke-miterlimit="10" stroke-linejoin="round"/>
<path d="M155.952 260.178C155.952 260.178 167.904 277.297 186.718 293.758L178.75 302.537C178.75 302.537 155.73 291.344 138.465 271.151L155.952 260.178Z" fill="#F3EBE0" stroke="#203749" stroke-width="1.5" stroke-miterlimit="10" stroke-linejoin="round"/>
<path d="M210.402 256.446L213.944 268.298C213.944 268.298 229.437 269.615 236.964 258.202L238.513 257.983C238.513 257.983 237.185 260.288 239.841 262.153C239.841 262.153 242.054 264.568 245.153 260.397L246.722 258.003C247.545 256.747 247.726 255.179 247.21 253.771L245.425 248.903C244.827 247.274 243.58 245.961 241.976 245.273L232.073 242.339C230.323 241.851 228.54 241.791 227.042 242.766C224.119 244.669 218.679 247.555 210.402 256.446Z" fill="#E1E7E9" stroke="#203749" stroke-width="1.5" stroke-miterlimit="10" stroke-linejoin="round"/>
<path d="M150.103 230.195C151.747 232.843 153.205 235.577 154.571 238.087C155.251 239.337 162.576 251.622 164.548 255.851C164.906 256.619 164.709 257.539 164.066 258.103C161.037 260.759 150.905 269.247 136.388 277.308C135.573 277.76 134.55 277.551 134.001 276.81C130.635 272.26 127.629 267.384 124.906 262.424C120.307 254.048 115.695 244.672 116.16 234.746C116.546 226.512 122.284 216.805 131.356 216.793C140.086 216.781 145.748 223.182 150.103 230.195Z" fill="#52646F" stroke="#203749" stroke-width="1.5" stroke-miterlimit="10" stroke-linejoin="round"/>
<path d="M234.978 251.888C234.978 251.901 234.971 251.921 234.971 251.934C231.665 253.086 228.603 254.061 224.745 252.645C224.573 252.013 224.513 251.341 224.599 250.65C224.938 247.806 227.548 245.778 230.41 246.12C233.278 246.462 235.323 249.043 234.978 251.888Z" fill="#369AC7" stroke="#1F3749" stroke-width="1.5" stroke-miterlimit="10" stroke-linejoin="round"/>
<path d="M236.964 258.203C239.62 257.761 241.612 254.035 241.612 254.035C242.94 250.301 239.401 250.518 239.401 250.518C237.827 250.907 236.379 251.434 234.971 251.934C231.665 253.086 228.603 254.061 224.745 252.645C224.613 252.599 224.48 252.546 224.347 252.494" stroke="#203749" stroke-width="1.5" stroke-miterlimit="10" stroke-linecap="round" stroke-linejoin="round"/>
<path d="M185.611 292.002C185.611 292.002 177.448 301.848 177.422 301.879C176.67 302.786 178.445 305.838 178.899 306.499C180.408 308.691 182.797 310.171 185.244 311.142C186.356 311.583 191.239 311.232 191.588 311.536C191.589 311.536 197.122 316.364 197.122 316.364C197.122 316.364 200.22 318.34 204.204 317.243C205.662 316.841 208.538 314.7 209.651 313.643C216.107 307.509 209.54 299.632 203.099 297.928C203.098 297.928 197.343 295.295 185.611 292.002Z" fill="#E1E7E9" stroke="#203749" stroke-width="1.5" stroke-miterlimit="10" stroke-linejoin="round"/>
<path d="M250.022 272.468C250.022 272.468 242.934 276.396 243.932 291.272C243.99 292.139 243.582 292.974 242.859 293.463L226.725 304.371C225.524 305.183 223.889 304.9 223.038 303.732L217.042 295.514L249.137 270.932L250.022 272.468Z" fill="#7492A3" stroke="#203749" stroke-width="1.5" stroke-miterlimit="10" stroke-linejoin="round"/>
<path d="M266.845 327.119L245.974 298.271C245.391 297.466 244.273 297.258 243.436 297.8L229.238 306.998C228.657 307.374 228.291 307.996 228.245 308.683C227.698 317.102 226.12 371.03 275.919 368.602V330.192L266.845 327.119Z" fill="#7492A3" stroke="#203749" stroke-width="1.5" stroke-miterlimit="10" stroke-linejoin="round"/>
<path d="M277.026 374.303C272.644 374.303 259.762 374.776 259.762 365.792V333.876C259.762 324.42 272.644 325.365 277.026 325.365V374.303Z" fill="#369AC7" stroke="#1F3749" stroke-width="1.5" stroke-miterlimit="10" stroke-linejoin="round"/>
<path d="M192.446 313.57C191.147 311.966 191.405 309.621 193.023 308.332L250.157 262.844C251.775 261.557 254.139 261.813 255.439 263.417C256.738 265.021 256.479 267.365 254.862 268.654L197.727 314.142C196.109 315.43 193.744 315.174 192.446 313.57Z" fill="#369AC7" stroke="#1F3749" stroke-width="1.5" stroke-miterlimit="10" stroke-linejoin="round"/>
<path opacity="0.3" d="M193.251 404.614C192.858 404.589 192.545 404.298 192.491 403.907L187.991 371.043C193.615 379.903 196.941 391.241 197.885 404.789C196.318 404.763 194.76 404.704 193.251 404.614Z" fill="#52646F"/>
<path d="M49.0631 112.904H67.8551V344.676H49.2623V113.345L49.0631 112.904Z" fill="#B0C9D6" stroke="#203749" stroke-width="1.5" stroke-miterlimit="10" stroke-linejoin="round"/>
<path d="M62.3105 294.867L85.7229 366.779C87.0164 370.752 90.7257 373.462 94.9363 373.509L111.556 373.696C114.658 373.731 117.055 371.012 116.605 367.969C115.859 362.93 114.003 355.721 109.381 351.06C107.991 349.657 106.235 348.666 104.333 348.109L94.2882 345.167C92.7762 344.723 91.5809 343.571 91.0929 342.084L87.7395 331.873C87.4062 330.857 87.4354 329.759 87.8219 328.762L88.8504 326.11C89.9368 323.309 89.8837 320.199 88.7024 317.436L78.9298 294.577C77.534 291.311 74.8241 288.716 71.4124 287.65C70.2769 287.295 69.0232 287.078 67.6865 287.115C63.7607 287.225 61.104 291.16 62.3105 294.867Z" fill="#B0C9D6" stroke="#203749" stroke-width="1.5" stroke-miterlimit="10" stroke-linejoin="round"/>
<path opacity="0.3" d="M105.984 319.986C105.707 322.346 105.164 326.976 105.486 329.905C105.792 332.687 106.62 335.486 107.664 338.078C109.253 342.022 111.628 345.633 114.689 348.608C117.12 350.97 119.948 352.915 122.998 354.405C124.166 354.975 125.367 355.48 126.593 355.916C128.827 356.707 131.19 357.138 133.615 357.196L175.739 358.21C168.462 353.451 155.625 351.386 147.098 349.835C147.098 349.836 117.327 346.105 105.984 319.986Z" fill="#52646F"/>
<path d="M294.07 397.793H276.646C275.939 381.108 275.232 360.473 274.525 343.788C273.167 311.736 271.809 279.684 270.451 247.632C269.905 234.206 269.304 220.783 268.752 207.357C268.068 190.702 268.006 173.667 263.538 157.473C259.61 143.235 251.953 130.022 241.521 119.491C238.186 116.124 234.605 113.105 230.432 110.798C230.432 110.798 246.746 101.491 246.759 101.493C250.69 102.203 255.408 107.265 258.198 109.904C268.492 119.638 275.574 132.306 279.854 145.673C284.255 159.419 284.932 173.44 285.503 187.691C285.786 194.746 285.934 201.807 286.232 208.861C286.84 223.202 287.448 237.543 288.055 251.885C289.424 284.179 290.792 316.472 292.16 348.766C292.265 351.245 293.775 397.793 294.07 397.793Z" fill="#B0C9D6" stroke="#203749" stroke-width="1.5" stroke-miterlimit="10" stroke-linejoin="round"/>
<path d="M342.894 434.056H322.67V179.952C322.67 178.224 324.082 176.824 325.824 176.824H339.74C341.481 176.824 342.894 178.224 342.894 179.952V434.056Z" fill="#7492A3" stroke="#203749" stroke-width="1.5" stroke-miterlimit="10" stroke-linejoin="round"/>
<path opacity="0.6" d="M269.305 208.853C278.797 227.419 283.612 233.345 287.651 256.885L285.737 209.043C285.576 205.251 285.456 201.395 285.339 197.666C285.237 194.402 285.134 191.138 285.006 187.873C284.484 174.846 283.892 160.08 279.378 145.988C274.816 131.726 267.373 119.429 257.855 110.423C257.472 110.062 257.052 109.654 256.602 109.218C253.829 106.529 250.049 102.863 246.842 102.177C245.569 102.899 236.76 107.92 231.43 110.96C234.925 112.992 238.264 115.664 241.873 119.307C252.395 129.932 260.052 143.142 264.018 157.509C267.941 171.72 268.484 186.713 269.01 201.21C269.087 203.311 269.162 205.41 269.248 207.503L269.305 208.853Z" fill="#B0C9D6"/>
<path d="M275.101 113.564H48.9077C45.6805 113.564 42.8471 111.657 41.9739 108.895L37.7029 95.3983C37.2414 93.9405 38.4745 92.4939 40.1784 92.4939H251.775C255.186 92.4939 258.487 93.5645 261.096 95.5175L277.477 107.778C280.109 109.748 278.542 113.564 275.101 113.564Z" fill="#369AC7" stroke="#1F3749" stroke-width="1.5" stroke-miterlimit="10" stroke-linejoin="round"/>
<path d="M277.57 394.939H293.738C297.341 394.939 300.785 396.409 303.262 399.004L331.673 428.771C333.537 430.723 334.576 433.31 334.576 435.999V437.421C334.576 441.068 331.562 444.002 327.884 443.932C317.895 443.742 298.509 444.893 282.169 454.916C278.404 457.225 273.55 454.51 273.587 450.121C273.712 434.931 273.886 408.722 273.699 398.851C273.658 396.701 275.402 394.939 277.57 394.939Z" fill="#369AC7" stroke="#1F3749" stroke-width="1.5" stroke-miterlimit="10" stroke-linejoin="round"/>
<path d="M13.159 344.459H64.8099C67.4435 344.459 69.8027 346.073 70.737 348.515L77.9424 367.352C78.5334 368.897 80.0268 369.919 81.6935 369.919H146.213C170.173 369.919 189.596 389.179 189.596 412.937V488.658C189.596 492.173 186.722 495.023 183.176 495.023H99.8753C95.8154 495.023 92.2715 492.342 91.1493 488.474C87.7149 476.634 77.1814 452.883 47.9356 452.883H12.3184C6.32485 452.883 1.47345 448.052 1.49802 442.11L1.85128 355.627C1.87651 349.451 6.93177 344.459 13.159 344.459Z" fill="#369AC7" stroke="#1F3749" stroke-width="1.5" stroke-miterlimit="10" stroke-linejoin="round"/>
<path d="M47.0511 528.506C65.3877 528.506 80.2525 513.766 80.2525 495.584C80.2525 477.401 65.3877 462.662 47.0511 462.662C28.7144 462.662 13.8496 477.401 13.8496 495.584C13.8496 513.766 28.7144 528.506 47.0511 528.506Z" fill="#52646F" stroke="#203749" stroke-width="1.5" stroke-miterlimit="10" stroke-linejoin="round"/>
<path d="M357.857 283L376.244 293.752C379.159 295.457 380.952 298.559 380.965 301.917L381.37 455.578C381.383 459.476 384.358 462.735 388.263 463.137L487.044 473.283C490.145 473.599 492.502 476.194 492.502 479.282C492.502 479.67 492.183 479.986 491.791 479.986H377.871C369.969 479.986 363.501 473.757 363.275 465.928L360.274 361.73L357.857 283Z" fill="#52646F" stroke="#203749" stroke-width="1.5" stroke-miterlimit="10" stroke-linejoin="round"/>
<path d="M355.161 492.609H340.552V152.193H354.663C359.339 152.193 363.129 155.951 363.129 160.588V484.707C363.129 489.071 359.561 492.609 355.161 492.609Z" fill="#369AC7" stroke="#1F3749" stroke-width="1.5" stroke-miterlimit="10" stroke-linejoin="round"/>
<path d="M47.0511 518.667C59.9077 518.667 70.33 508.332 70.33 495.584C70.33 482.836 59.9077 472.501 47.0511 472.501C34.1945 472.501 23.7722 482.836 23.7722 495.584C23.7722 508.332 34.1945 518.667 47.0511 518.667Z" fill="#42525B"/>
<path d="M47.0511 510.207C55.1959 510.207 61.7985 503.66 61.7985 495.584C61.7985 487.508 55.1959 480.961 47.0511 480.961C38.9063 480.961 32.3036 487.508 32.3036 495.584C32.3036 503.66 38.9063 510.207 47.0511 510.207Z" fill="#369AC7" stroke="#1F3749" stroke-width="1.5" stroke-miterlimit="10" stroke-linejoin="round"/>
<path d="M306.687 528.506C327.59 528.506 344.536 511.703 344.536 490.975C344.536 470.247 327.59 453.444 306.687 453.444C285.783 453.444 268.837 470.247 268.837 490.975C268.837 511.703 285.783 528.506 306.687 528.506Z" fill="#52646F" stroke="#203749" stroke-width="1.5" stroke-miterlimit="10" stroke-linejoin="round"/>
<path d="M306.687 517.614C321.524 517.614 333.552 505.687 333.552 490.975C333.552 476.262 321.524 464.335 306.687 464.335C291.849 464.335 279.821 476.262 279.821 490.975C279.821 505.687 291.849 517.614 306.687 517.614Z" fill="#42525B"/>
<g opacity="0.3">
<path d="M181.807 494.53H100.205C96.1474 494.53 92.6015 491.85 91.4793 487.979C88.0463 476.14 77.5148 452.39 48.2709 452.39H12.6524C6.6562 452.39 1.80878 447.557 1.8287 441.617L2.0744 355.039C67.968 358.944 92.2051 484.378 181.807 494.53Z" fill="#369AC7" fill-opacity="0.5" style="mix-blend-mode:multiply"/>
</g>
<path d="M306.687 506.643C315.413 506.643 322.488 499.628 322.488 490.975C322.488 482.321 315.413 475.306 306.687 475.306C297.96 475.306 290.885 482.321 290.885 490.975C290.885 499.628 297.96 506.643 306.687 506.643Z" fill="#369AC7" stroke="#1F3749" stroke-width="1.5" stroke-miterlimit="10" stroke-linejoin="round"/>
<g opacity="0.5">
<path d="M244.442 105.2H57.155C54.2392 105.2 51.6455 103.379 50.68 100.657L47.7151 93.0152L40.4108 92.9606C39.6359 92.9329 37.6166 93.3174 38.2806 95.5943L42.4195 108.686C43.2522 111.315 45.9475 113.123 49.0146 113.123H261.331C261.331 113.123 254.412 105.2 244.442 105.2Z" fill="#369AC7" fill-opacity="0.5" style="mix-blend-mode:multiply"/>
</g>
<path d="M663.167 193C663.167 193 663.614 222.972 672.25 225.729L670.613 191.105L663.167 193Z" fill="#CB9866" stroke="#1F3749" stroke-width="1.5" stroke-miterlimit="10" stroke-linejoin="round"/>
<path d="M726.153 193C726.153 193 725.706 222.972 717.069 225.729L718.707 191.105L726.153 193Z" fill="#CB9866" stroke="#1F3749" stroke-width="1.5" stroke-miterlimit="10" stroke-linejoin="round"/>
<path d="M668.973 217.825L665.015 215.985C662.527 214.828 661.44 211.848 662.597 209.362C663.755 206.876 666.737 205.789 669.224 206.946L673.183 208.786C674.965 209.615 675.744 211.75 674.915 213.531L673.721 216.094C672.891 217.875 670.755 218.654 668.973 217.825Z" fill="#F3EBE0" stroke="#203749" stroke-width="1.5" stroke-miterlimit="10" stroke-linejoin="round"/>
<path d="M720.524 217.825L724.482 215.985C726.97 214.828 728.057 211.848 726.9 209.362C725.742 206.876 722.76 205.789 720.273 206.946L716.314 208.786C714.532 209.615 713.753 211.75 714.582 213.531L715.776 216.094C716.605 217.875 718.741 218.654 720.524 217.825Z" fill="#F3EBE0" stroke="#203749" stroke-width="1.5" stroke-miterlimit="10" stroke-linejoin="round"/>
<path d="M716.059 215.655L716.192 215.942C716.542 216.696 717.17 217.27 717.957 217.556C718.745 217.843 719.592 217.808 720.347 217.458L724.304 215.615H724.305C725.4 215.107 726.233 214.198 726.65 213.056C726.913 212.334 726.99 211.576 726.882 210.84C726.435 212.275 725.406 213.484 723.987 214.144L720.029 215.984C719.06 216.436 717.968 216.481 716.957 216.113C716.635 215.996 716.334 215.842 716.059 215.655Z" fill="#EFE0CE"/>
<path d="M672.525 216.114C671.513 216.482 670.422 216.437 669.454 215.985L665.495 214.145C664.076 213.484 663.046 212.276 662.6 210.841C662.492 211.577 662.569 212.335 662.833 213.057C663.25 214.199 664.083 215.108 665.178 215.616C665.178 215.616 665.178 215.616 665.179 215.616L669.136 217.459C669.89 217.809 670.738 217.844 671.525 217.557C672.313 217.269 672.939 216.697 673.29 215.943L673.423 215.656C673.148 215.842 672.847 215.996 672.525 216.114Z" fill="#EFE0CE"/>
<path d="M699.448 267.133H690.216C683.341 267.133 677.716 261.512 677.716 254.641V232.661C677.716 225.791 683.341 220.169 690.216 220.169H699.448C706.323 220.169 711.948 225.791 711.948 232.661V254.641C711.948 261.512 706.323 267.133 699.448 267.133Z" fill="#F2E6D6" stroke="#203749" stroke-width="1.5" stroke-miterlimit="10" stroke-linejoin="round"/>
<path d="M694.757 244.677C687.643 244.677 680.849 241.495 676.236 236.305C671.399 230.865 670.462 222.813 669.6 215.89C668.25 205.044 666.962 193.995 666.962 183.083C666.962 181.452 668.57 180.116 670.536 180.116H719.277C721.242 180.116 722.851 181.451 722.851 183.083C721.72 194.789 720.963 206.53 719.521 218.208C718.887 223.331 718.652 228.417 715.851 232.904C713.547 236.595 710.173 239.664 706.269 241.744C702.754 243.617 698.78 244.677 694.757 244.677Z" fill="#F2E6D6" stroke="#203749" stroke-width="1.5" stroke-miterlimit="10" stroke-linejoin="round"/>
<path opacity="0.33" d="M725.657 196.085C725.622 196.687 725.546 197.657 725.396 198.843H663.875C663.725 197.656 663.649 196.686 663.614 196.085H725.657Z" fill="#E5C87A"/>
<path d="M723.464 194.264H666.347C664.221 194.264 662.483 192.525 662.483 190.401V190.091C662.483 172.269 677.073 157.687 694.907 157.687C712.74 157.687 727.331 172.269 727.331 190.091V190.401C727.33 192.525 725.59 194.264 723.464 194.264Z" fill="#E5C87A" stroke="#1F3749" stroke-width="1.5" stroke-miterlimit="10" stroke-linecap="round" stroke-linejoin="round"/>
<path d="M730.278 196.165H659.534C658.174 196.165 657.062 195.053 657.062 193.694C657.062 192.336 658.174 191.224 659.534 191.224H730.277C731.636 191.224 732.749 192.336 732.749 193.694C732.75 195.053 731.637 196.165 730.278 196.165Z" fill="#E5C87A" stroke="#1F3749" stroke-width="1.5" stroke-miterlimit="10" stroke-linecap="round" stroke-linejoin="round"/>
<path d="M677.534 166.685V161.029C677.534 158.724 679.74 156.836 682.436 156.836H688.514C691.211 156.836 693.416 158.723 693.416 161.029V169.741" fill="#E5C87A"/>
<path d="M677.534 166.685V161.029C677.534 158.724 679.74 156.836 682.436 156.836H688.514C691.211 156.836 693.416 158.723 693.416 161.029V169.741" stroke="#1F3749" stroke-width="1.5" stroke-miterlimit="10" stroke-linecap="round" stroke-linejoin="round"/>
<path d="M711.881 166.685V161.304C711.881 158.847 709.531 156.837 706.658 156.837H701.22C698.348 156.837 695.997 158.847 695.997 161.304V169.742" fill="#E5C87A"/>
<path d="M711.881 166.685V161.304C711.881 158.847 709.531 156.837 706.658 156.837H701.22C698.348 156.837 695.997 158.847 695.997 161.304V169.742" stroke="#1F3749" stroke-width="1.5" stroke-miterlimit="10" stroke-linecap="round" stroke-linejoin="round"/>
<path d="M686.964 171.463V156.871C686.964 155.171 688.572 153.781 690.538 153.781H699.274C701.239 153.781 702.848 155.172 702.848 156.871V171.463" fill="#E5C87A"/>
<path d="M686.964 171.463V156.871C686.964 155.171 688.572 153.781 690.538 153.781H699.274C701.239 153.781 702.848 155.172 702.848 156.871V171.463" stroke="#1F3749" stroke-width="1.5" stroke-miterlimit="10" stroke-linecap="round" stroke-linejoin="round"/>
<g opacity="0.5">
<path opacity="0.5" d="M706.789 222.987C709.878 224.907 713.824 228.727 714.916 232.013C715.044 232.4 715.152 232.772 715.235 233.132C715.33 232.994 715.419 232.855 715.506 232.715C717.895 228.897 718.371 224.667 718.88 220.192C718.954 219.531 719.029 218.868 719.112 218.2C719.181 217.643 719.247 217.091 719.312 216.534C716.052 219.822 710.619 222.168 706.789 222.987ZM670.103 216.055L670.117 216.189C670.829 221.921 671.621 228.296 674.602 233.303C674.667 232.981 674.747 232.659 674.845 232.342C675.912 228.925 680.679 224.837 683.877 222.852C679.707 221.894 673.489 219.588 670.103 216.055Z" fill="#F2E6D6"/>
</g>
<path opacity="0.8" d="M678.171 245.928C688.277 253.621 701.695 253.368 711.492 245.498V242.626C707.44 246.149 701.669 248.005 694.72 248.005C687.848 248.005 682.023 246.227 678.17 242.978V245.928H678.171Z" fill="#F2E6D6"/>
<path d="M714.918 232.013C712.496 224.723 703.728 220.57 694.967 220.57C686.071 220.57 677.174 224.89 674.847 232.34C673.938 235.252 674.534 238.427 676.517 241.125C680.41 246.418 687.538 248.448 694.796 248.448C701.979 248.448 708.747 246.388 713.003 241.163C715.233 238.427 716.226 235.947 714.918 232.013ZM704.618 233.387C703.972 234.86 702.362 235.689 700.813 235.689C700.813 235.689 697.963 235.689 695.041 235.689C694.951 235.689 694.86 235.689 694.769 235.689C691.847 235.689 688.997 235.689 688.997 235.689C687.448 235.689 685.839 234.859 685.192 233.387C684.247 231.236 685.218 228.764 686.596 227.05C690.387 222.335 699.428 222.342 703.213 227.05C704.592 228.763 705.563 231.236 704.618 233.387Z" fill="#CB9866" stroke="#1F3749" stroke-width="1.5" stroke-miterlimit="10" stroke-linejoin="round"/>
<path d="M694.906 224.736C691.606 224.736 689.073 222.01 689.551 218.971L690.857 210.642C691.151 208.771 692.875 207.384 694.906 207.384C696.937 207.384 698.661 208.771 698.955 210.642L700.261 218.971C700.738 222.01 698.206 224.736 694.906 224.736Z" fill="#F4A69D" stroke="#1F3749" stroke-width="1.5" stroke-miterlimit="10" stroke-linejoin="round"/>
<path d="M701.264 227.827C701.264 229.392 698.384 230.66 694.832 230.66C691.28 230.66 688.4 229.391 688.4 227.827" stroke="#CC4B62" stroke-width="1.5" stroke-miterlimit="10" stroke-linecap="round" stroke-linejoin="round"/>
<path d="M681.851 211.673C683.066 211.673 684.051 210.689 684.051 209.474C684.051 208.26 683.066 207.276 681.851 207.276C680.635 207.276 679.651 208.26 679.651 209.474C679.651 210.689 680.635 211.673 681.851 211.673Z" fill="#1F3749"/>
<path d="M707.299 211.673C708.514 211.673 709.499 210.689 709.499 209.474C709.499 208.26 708.514 207.276 707.299 207.276C706.084 207.276 705.099 208.26 705.099 209.474C705.099 210.689 706.084 211.673 707.299 211.673Z" fill="#1F3749"/>
<path d="M702.81 205.738C702.583 205.738 702.354 205.664 702.162 205.512C701.712 205.154 701.637 204.499 701.994 204.048C703.865 201.695 707.163 200.539 710.591 201.029C712.819 201.348 714.656 202.423 715.504 203.907C715.789 204.406 715.615 205.042 715.116 205.328C714.616 205.613 713.98 205.439 713.694 204.94C713.068 203.846 711.529 203.269 710.297 203.092C708.18 202.79 705.315 203.222 703.628 205.344C703.42 205.604 703.116 205.738 702.81 205.738Z" fill="#875C4E"/>
<path d="M687.002 205.738C686.694 205.738 686.391 205.603 686.185 205.344C684.497 203.222 681.634 202.789 679.516 203.092C678.284 203.267 676.744 203.846 676.118 204.94C675.833 205.44 675.195 205.613 674.696 205.328C674.196 205.042 674.022 204.405 674.309 203.907C675.157 202.423 676.993 201.348 679.221 201.029C682.654 200.539 685.947 201.695 687.817 204.048C688.176 204.499 688.101 205.154 687.65 205.512C687.458 205.664 687.23 205.738 687.002 205.738Z" fill="#875C4E"/>
<path opacity="0.5" d="M686.47 171.387L685.407 168.631C684.535 166.371 684.087 163.968 684.087 161.546V157.324H686.469V171.387H686.47Z" fill="#E5C87A"/>
<path opacity="0.5" d="M703.297 171.387L704.36 168.631C705.232 166.371 705.68 163.968 705.68 161.546V157.324H703.298V171.387H703.297Z" fill="#E5C87A"/>
<path opacity="0.5" d="M712.305 170.197L712.33 162.211C712.33 162.211 713.992 163.203 714.638 163.774C714.638 163.773 714.712 167.617 712.305 170.197Z" fill="#E5C87A"/>
<path opacity="0.5" d="M677.114 170.495L677.089 162.509C677.089 162.509 675.427 163.501 674.781 164.071C674.782 164.07 674.708 167.915 677.114 170.495Z" fill="#E5C87A"/>
<path opacity="0.5" d="M674.714 234.797C674.704 236.82 675.391 238.85 676.728 240.665C680.133 245.293 686.531 247.843 694.743 247.843C700.275 247.843 707.879 246.601 712.698 240.687C714.28 238.744 715.255 236.961 715.092 234.543C714.688 235.335 714.135 236.153 713.395 237.065C708.352 243.254 700.468 244.553 694.743 244.553C686.237 244.553 679.582 241.874 676.004 237.01C675.483 236.299 675.052 235.56 674.714 234.797Z" fill="#CB9866"/>
<ellipse cx="657.5" cy="549" rx="45.5" ry="8" fill="#CEE9F3"/>
<ellipse cx="734.5" cy="549" rx="45.5" ry="8" fill="#CEE9F3"/>
<path d="M705.65 526.289L703.695 542.101C703.178 546.289 705.768 549.086 709.97 549.219C722.751 549.219 743.64 549.244 758.117 548.917C758.537 548.908 758.948 548.852 759.356 548.751C759.778 548.647 760.248 548.526 760.518 548.342C761.639 547.579 763.7 545.446 763.116 542.357C762.639 539.837 760.762 537.808 758.371 536.908L729.223 523.71C728.5 523.438 727.735 523.298 726.964 523.297L709.027 523.293C707.309 523.294 705.862 524.578 705.65 526.289Z" fill="#369AC8" stroke="#203749" stroke-width="1.5" stroke-miterlimit="10" stroke-linejoin="round"/>
<path d="M684.792 526.289L686.746 542.101C687.264 546.289 684.673 549.086 680.471 549.219C667.691 549.219 646.801 549.244 632.325 548.917C631.904 548.908 631.494 548.852 631.086 548.751C630.664 548.647 630.194 548.526 629.924 548.342C628.803 547.579 626.742 545.446 627.326 542.357C627.803 539.837 629.679 537.808 632.071 536.908L661.219 523.71C661.942 523.438 662.707 523.298 663.477 523.297L681.415 523.293C683.133 523.294 684.581 524.578 684.792 526.289Z" fill="#369AC8" stroke="#203749" stroke-width="1.5" stroke-miterlimit="10" stroke-linejoin="round"/>
<path d="M747.316 413.05L744.996 523.863C744.944 526.354 742.908 528.346 740.414 528.346H705.618C703.205 528.346 701.205 526.475 701.045 524.068L695.194 435.318L695.093 430.925L694.993 430.88L689.117 524.253C688.972 526.554 687.063 528.345 684.756 528.345H649.622C647.208 528.345 645.237 526.416 645.187 524.004L642.87 413.045C642.335 401.552 643.211 390.037 645.479 378.746L649.165 360.401H694.938V360.415H695.247V360.401H741.022L744.706 378.742C746.975 390.037 747.851 401.554 747.316 413.05Z" fill="#52646F" stroke="#203749" stroke-width="1.5" stroke-miterlimit="10" stroke-linejoin="round"/>
<path d="M699.524 256.22L698.764 256.791L699.524 256.22Z" fill="#62737C"/>
<path d="M699.524 256.22L698.764 256.791" stroke="#203749" stroke-width="1.5" stroke-miterlimit="10" stroke-linejoin="round"/>
<path d="M741.1 300.913C740.618 278.483 739.538 257.028 718.179 253.409L698.723 256.403L697.963 256.975C696.554 258.036 695.549 259.495 695.1 261.136L694.876 261.954L694.652 261.136C694.203 259.495 693.197 258.036 691.788 256.975L691.029 256.403L671.572 253.409C655.52 259.661 648.738 262.099 648.665 285.699C648.559 320.036 649.836 361.751 649.836 361.751H693.678H696.074H741.395C741.396 361.751 741.838 335.242 741.1 300.913Z" fill="#62737C" stroke="#203749" stroke-width="1.5" stroke-miterlimit="10" stroke-linejoin="round"/>
<path d="M674.465 247.422C677.003 249.632 683.468 254.646 690.834 255.57C691.846 255.697 692.476 256.735 692.136 257.696C691.322 260 690.02 264.001 689.246 267.994C689.069 268.907 688.172 269.488 687.27 269.262C682.911 268.173 671.24 264.563 665.807 256.11C665.411 255.493 665.498 254.683 666 254.15L672.235 247.53C672.827 246.901 673.811 246.853 674.465 247.422Z" fill="#637885" stroke="#203749" stroke-width="1.5" stroke-miterlimit="10" stroke-linejoin="round"/>
<path d="M715.348 247.422C712.81 249.632 706.344 254.646 698.979 255.57C697.966 255.697 697.337 256.735 697.677 257.696C698.49 260 699.792 264.001 700.566 267.994C700.743 268.907 701.64 269.488 702.542 269.262C706.902 268.173 718.573 264.563 724.006 256.11C724.402 255.493 724.314 254.683 723.812 254.15L717.578 247.53C716.985 246.901 716.001 246.853 715.348 247.422Z" fill="#637885" stroke="#203749" stroke-width="1.5" stroke-miterlimit="10" stroke-linejoin="round"/>
<path d="M635.906 273.627C636.295 274.892 633.506 276.943 632.776 277.6C630.15 279.964 626.587 280.635 623.796 282.8C613.962 290.422 601.776 300.328 601.781 314.648C601.782 318.25 602.722 321.785 604.257 325.043C609.143 335.41 618.69 341.835 627.423 348.511C628.287 349.171 633.432 352.091 633.564 353.205L635.33 368.209C635.701 371.359 637.217 374.264 639.59 376.371L643.463 379.812C644.776 380.979 646.861 380.269 647.188 378.543L649.959 363.924L651.862 345.785C651.894 343.083 650.946 340.461 649.192 338.404L636.493 321.209L647.926 312.741C647.924 312.742 635.937 273.726 635.906 273.627Z" fill="#F2E6D6" stroke="#203749" stroke-width="1.5" stroke-miterlimit="10" stroke-linejoin="round"/>
<path d="M725.216 255.089C725.216 255.089 757.69 257.918 757.69 298.389V319.162C757.69 320.185 756.772 321.015 755.64 321.015H721.434C720.124 321.015 719.058 320.06 719.048 318.875L718.851 296.634" fill="#62737C"/>
<path d="M725.216 255.089C725.216 255.089 757.69 257.918 757.69 298.389V319.162C757.69 320.185 756.772 321.015 755.64 321.015H721.434C720.124 321.015 719.058 320.06 719.048 318.875L718.851 296.634" stroke="#203749" stroke-width="1.5" stroke-miterlimit="10" stroke-linecap="round" stroke-linejoin="round"/>
<path d="M720.028 343.454H671.241C669.515 343.454 668.116 342.056 668.116 340.331V274.605C668.116 272.88 669.515 271.482 671.241 271.482H720.028C721.754 271.482 723.153 272.88 723.153 274.605V340.331C723.153 342.056 721.754 343.454 720.028 343.454Z" fill="#6183C2" stroke="#203749" stroke-width="1.5" stroke-miterlimit="10" stroke-linejoin="round"/>
<path opacity="0.2" d="M719.432 315.881L719.459 318.725C719.464 319.602 720.284 320.313 721.286 320.313H755.488C756.313 320.313 756.983 319.732 756.983 319.019V298.245C756.983 286.938 754.422 277.552 749.37 270.322C745.671 283.997 737.49 302.575 719.432 315.881Z" fill="#62737C"/>
<path d="M648.64 313.75L637.467 321.795L612.876 289.807C612.876 289.807 634.832 263.865 664.888 256.162" fill="#62737C"/>
<path d="M648.64 313.75L637.467 321.795L612.876 289.807C612.876 289.807 634.832 263.865 664.888 256.162" stroke="#203749" stroke-width="1.5" stroke-miterlimit="10" stroke-linecap="round" stroke-linejoin="round"/>
<path d="M713.701 347.509H664.915C663.189 347.509 661.79 346.11 661.79 344.385V278.659C661.79 276.934 663.189 275.536 664.915 275.536H713.702C715.428 275.536 716.827 276.934 716.827 278.659V344.385C716.826 346.11 715.427 347.509 713.701 347.509Z" fill="#D15D73" stroke="#203749" stroke-width="1.5" stroke-miterlimit="10" stroke-linejoin="round"/>
<path d="M719.422 355.149H670.773C667.473 355.149 664.798 352.475 664.798 349.177V285.93C664.798 282.632 667.473 279.959 670.773 279.959H719.422C722.722 279.959 725.397 282.632 725.397 285.93V349.177C725.398 352.474 722.722 355.149 719.422 355.149Z" fill="#938A7F" stroke="#203749" stroke-width="1.5" stroke-miterlimit="10" stroke-linecap="round" stroke-linejoin="round"/>
<path d="M648.909 313.888L648.616 302.185" stroke="#203749" stroke-width="1.5" stroke-miterlimit="10" stroke-linecap="round" stroke-linejoin="round"/>
<path opacity="0.3" d="M650.249 361.198L665.57 360.999C664.107 311.994 639.637 300.738 623.392 302.738L637.457 321.031L648.039 313.411L648.164 312.975C648.24 312.711 648.502 312.539 648.771 312.578C649.044 312.614 649.249 312.845 649.252 313.121C649.54 336.441 650.143 357.595 650.249 361.198Z" fill="#62737C"/>
<path opacity="0.2" d="M740.905 352.32C740.905 352.852 738.945 353.91 738.599 354.124C736.199 355.605 733.52 356.441 730.828 357.201C718.624 360.647 706.195 356.63 694.397 353.347C691.316 352.489 688.245 351.592 685.186 350.662L670.158 344.81L664.888 335.058L716.022 335.253L740.905 342.08C740.905 342.081 740.905 352.315 740.905 352.32Z" fill="#52646F"/>
<path d="M755.868 321.039C758.087 355.929 722.048 347.859 722.048 347.859L683.778 345.303C682.701 345.101 681.607 344.997 680.51 344.993L662.738 344.191C660.67 344.183 658.76 343.05 657.778 341.231C657.378 340.489 658.072 339.452 657.627 338.432C657.182 337.412 655.718 335.538 655.651 334.922C655.426 332.853 656.083 331.486 656.115 330.021C656.134 329.152 656.069 328.432 655.988 327.887C655.869 327.096 656.087 326.292 656.614 325.691L658.458 323.585L658.269 323.471C657.33 322.908 657.089 321.652 657.755 320.782L659.043 319.099L659.701 318.391C660.88 317.123 662.601 316.509 664.316 316.744L669.949 317.516C670.996 317.66 672.006 318.001 672.925 318.519L681.886 322.227C683.29 323.019 684.851 323.496 686.458 323.625L720.387 322.941C720.387 322.941 725.779 323.357 726.37 321.016L755.868 321.039Z" fill="#F2E6D6" stroke="#203749" stroke-width="1.5" stroke-miterlimit="10" stroke-linejoin="round"/>
<path d="M658.214 323.536L666.405 322.674L668.9 321.852" fill="#F2E6D6"/>
<path d="M658.214 323.536L666.405 322.674L668.9 321.852" stroke="#203749" stroke-width="1.5" stroke-miterlimit="10" stroke-linecap="round" stroke-linejoin="round"/>
<path d="M648.474 337.381L652.727 343.404C653.323 344.247 653.764 345.189 654.03 346.186L656.261 354.56C656.298 354.699 656.321 354.843 656.331 354.986L656.568 358.753C656.636 359.824 655.918 360.787 654.872 361.03C653.897 361.255 652.892 360.794 652.428 359.907L650.669 356.54C650.588 356.383 650.488 356.239 650.372 356.107L645.175 350.193" fill="#F2E6D6"/>
<path d="M648.474 337.381L652.727 343.404C653.323 344.247 653.764 345.189 654.03 346.186L656.261 354.56C656.298 354.699 656.321 354.843 656.331 354.986L656.568 358.753C656.636 359.824 655.918 360.787 654.872 361.03C653.897 361.255 652.892 360.794 652.428 359.907L650.669 356.54C650.588 356.383 650.488 356.239 650.372 356.107L645.175 350.193" stroke="#203749" stroke-width="1.5" stroke-miterlimit="10" stroke-linecap="round" stroke-linejoin="round"/>
<path d="M669.543 384.548L644.63 385.043" stroke="#203749" stroke-width="1.5" stroke-miterlimit="10" stroke-linecap="round" stroke-linejoin="round"/>
<path d="M720.85 384.548L745.763 385.043" stroke="#203749" stroke-width="1.5" stroke-miterlimit="10" stroke-linecap="round" stroke-linejoin="round"/>
<path d="M708.075 284.95H704.308L702.651 278.467C702.333 277.314 701.422 276.537 700.401 276.537H689.878C688.857 276.537 687.946 277.314 687.629 278.467L685.971 284.95H682.123L685.106 275.853C685.535 274.559 686.741 273.687 688.103 273.687H702.096C703.458 273.687 704.664 274.559 705.086 275.853L708.075 284.95Z" fill="#C6D4D3" stroke="#203749" stroke-width="1.5" stroke-miterlimit="10" stroke-linejoin="round"/>
<path d="M701.403 292.539H688.793C682.952 292.539 678.216 287.806 678.216 281.968V280.056H711.98V281.968C711.98 287.806 707.244 292.539 701.403 292.539Z" fill="#B0ABA3" stroke="#203749" stroke-width="1.5" stroke-miterlimit="10" stroke-linecap="round" stroke-linejoin="round"/>
<path opacity="0.3" d="M718.602 527.792H740.345C742.519 527.792 744.325 526.026 744.37 523.854L745.611 464.548C737.635 488.1 728.557 509.357 718.602 527.792Z" fill="#52646F"/>
<defs>
<radialGradient id="paint0_radial" cx="0" cy="0" r="1" gradientUnits="userSpaceOnUse" gradientTransform="translate(467 297) rotate(-90) scale(271 337)">
<stop stop-color="white"/>
<stop offset="1" stop-color="white" stop-opacity="0"/>
</radialGradient>
<linearGradient id="paint1_linear" x1="2" y1="545.813" x2="59.5981" y2="309.381" gradientUnits="userSpaceOnUse">
<stop stop-color="white"/>
<stop offset="0.452125" stop-color="white" stop-opacity="0.582795"/>
<stop offset="1" stop-color="white" stop-opacity="0"/>
<stop offset="1" stop-color="white" stop-opacity="0.0976263"/>
</linearGradient>
</defs>
</svg>
