<svg width="1387" height="451" viewBox="0 0 1387 451" fill="none" xmlns="http://www.w3.org/2000/svg">
<path d="M1184.72 351.339C1168.1 354.504 1161.38 374.238 1162.05 388.492C1162.56 399.436 1168.66 427.466 1183.93 428.086L1280.45 432.042L1369.86 432.833C1369.86 432.833 1392.02 432.042 1385.69 408.306C1385.69 408.306 1379.36 396.438 1365.91 405.141C1365.91 405.141 1374.61 382.987 1362.74 377.449C1362.74 377.449 1392.81 342.636 1373.82 322.064C1373.82 322.064 1360.37 308.613 1335.84 338.679C1311.31 368.745 1317.64 338.679 1317.64 338.679L1324.76 287.25C1324.76 287.25 1330.3 256.393 1304.19 260.349C1275.72 264.663 1267.99 293.683 1265.42 318.107C1265.42 318.107 1239.31 297.536 1219.53 322.854C1219.53 322.854 1203.71 340.261 1213.2 355.294C1213.2 355.295 1201.33 348.174 1184.72 351.339Z" fill="#F2F7FC"/>
<path d="M1171.27 318.488C1172.24 316.599 1174.53 315.823 1176.45 316.733C1185.79 321.163 1211.75 335.619 1220.84 362.938C1229.32 388.428 1219.39 404.466 1214.12 410.704C1212.33 412.826 1209.71 414.054 1206.94 414.074C1199.08 414.129 1181.97 411.116 1168.08 386.757C1152.64 359.675 1166.13 328.48 1171.27 318.488Z" fill="#C2EEEE"/>
<path d="M1215.88 434.09C1215.88 434.09 1198.1 365.208 1180.16 328.693" stroke="#88CACA" stroke-width="2" stroke-miterlimit="10" stroke-linecap="round"/>
<path d="M1197.71 341.61C1197.71 341.61 1193.14 350.47 1191.5 355.792" stroke="#88CACA" stroke-width="2" stroke-miterlimit="10" stroke-linecap="round"/>
<path d="M1171.51 340.872C1171.51 340.872 1181.36 343.234 1188.05 346.782" stroke="#88CACA" stroke-width="2" stroke-miterlimit="10" stroke-linecap="round"/>
<path d="M1204.85 352.421C1204.85 352.421 1199.76 362.855 1197.35 371.226" stroke="#88CACA" stroke-width="2" stroke-miterlimit="10" stroke-linecap="round"/>
<path d="M1171.39 359.58C1171.39 359.58 1185.3 363.367 1195.24 367.224" stroke="#88CACA" stroke-width="2" stroke-miterlimit="10" stroke-linecap="round"/>
<path d="M1219.44 373.536C1219.44 373.536 1210.4 388.506 1205.79 397.585" stroke="#88CACA" stroke-width="2" stroke-miterlimit="10" stroke-linecap="round"/>
<path d="M1202.1 386.502C1202.1 386.502 1183.69 381.154 1171.33 378.671" stroke="#88CACA" stroke-width="2" stroke-miterlimit="10" stroke-linecap="round"/>
<path d="M1263.28 352.27C1262.41 351.132 1260.8 350.89 1259.63 351.723C1253.96 355.775 1238.46 368.461 1235.69 387.669C1233.1 405.59 1241.6 415.047 1245.84 418.558C1247.28 419.752 1249.16 420.255 1251.01 419.937C1256.23 419.037 1267.22 414.998 1273.53 397.181C1280.55 377.374 1267.88 358.286 1263.28 352.27Z" fill="#C2EEEE"/>
<path d="M1247.46 434.282C1247.46 434.282 1251.04 386.464 1258.6 360.1" stroke="#88CACA" stroke-width="2" stroke-miterlimit="10" stroke-linecap="round"/>
<path d="M1248.49 370.761C1248.49 370.761 1252.58 376.095 1254.3 379.43" stroke="#88CACA" stroke-width="2" stroke-miterlimit="10" stroke-linecap="round"/>
<path d="M1265.78 367.149C1265.78 367.149 1259.53 369.891 1255.52 373.042" stroke="#88CACA" stroke-width="2" stroke-miterlimit="10" stroke-linecap="round"/>
<path d="M1245.04 378.785C1245.04 378.785 1249.67 385.1 1252.26 390.367" stroke="#88CACA" stroke-width="2" stroke-miterlimit="10" stroke-linecap="round"/>
<path d="M1268.09 379.546C1268.09 379.546 1259.32 383.717 1253.19 387.46" stroke="#88CACA" stroke-width="2" stroke-miterlimit="10" stroke-linecap="round"/>
<path d="M1237.88 394.533C1237.88 394.533 1245.66 403.387 1249.8 408.861" stroke="#88CACA" stroke-width="2" stroke-miterlimit="10" stroke-linecap="round"/>
<path d="M1250.93 401.067C1250.93 401.067 1262.51 395.326 1270.41 392.204" stroke="#88CACA" stroke-width="2" stroke-miterlimit="10" stroke-linecap="round"/>
<path d="M1101.1 216.09H974.875C969.582 216.09 965.291 211.799 965.291 206.507V137.796C965.291 132.503 969.582 128.212 974.875 128.212H1101.1C1106.39 128.212 1110.68 132.503 1110.68 137.796V206.507C1110.68 211.799 1106.39 216.09 1101.1 216.09Z" fill="#A0E0DC" stroke="#203749" stroke-width="1.5" stroke-miterlimit="10" stroke-linejoin="round"/>
<path d="M1100.5 403.665H975.474C969.85 403.665 965.291 399.107 965.291 393.483V226.159C965.291 220.536 969.85 215.977 975.474 215.977H1100.5C1106.12 215.977 1110.68 220.535 1110.68 226.159V393.483C1110.68 399.107 1106.12 403.665 1100.5 403.665Z" fill="#A0E0DC" stroke="#203749" stroke-width="1.5" stroke-miterlimit="10" stroke-linejoin="round"/>
<path d="M983.5 403C1013.5 403 1017 228.5 1037 217C1014.28 204.319 1030.05 142.313 1020.82 129H995.909H970.993L976 403H983.5Z" fill="#88D7D2" fill-opacity="0.3" style="mix-blend-mode:multiply"/>
<path d="M1097.23 200.024C1097.76 200.018 1098.13 200.907 1097.96 201.773C1097.62 203.544 1096.78 206 1094.67 206H1076.15C1074.45 206 1073.55 204.144 1073.1 202.495C1072.78 201.334 1073.29 199.998 1074.04 200C1078.66 200.018 1093.34 200.07 1097.23 200.024Z" fill="#56ADA7" stroke="#203749" stroke-width="1.5" stroke-miterlimit="10" stroke-linejoin="round"/>
<path d="M862.246 12.9459V377.496C862.246 381.524 858.988 384.791 854.97 384.791H831.771C831.503 384.791 831.287 384.573 831.287 384.305V375.983C831.287 375.139 830.6 374.449 829.758 374.449H812.527C811.686 374.449 810.999 375.139 810.999 375.983V384.305C810.999 384.573 810.782 384.791 810.516 384.791H606.211C605.943 384.791 605.727 384.573 605.727 384.305V375.983C605.727 375.139 605.04 374.449 604.189 374.449H586.968C586.127 374.449 585.439 375.139 585.439 375.983V384.305C585.439 384.573 585.222 384.791 584.956 384.791H561.756C557.731 384.791 554.48 381.522 554.48 377.496V12.9459C554.48 8.91801 557.738 5.65112 561.756 5.65112H854.969C858.986 5.65112 862.246 8.91046 862.246 12.9459Z" fill="#AFCFDC" stroke="#1F3749" stroke-width="1.5" stroke-miterlimit="10"/>
<path d="M585.095 25.0515H554.146C552.688 25.0515 551.504 23.8654 551.504 22.4023V9.57339C551.504 5.12316 555.103 1.51416 559.542 1.51416H585.095C586.553 1.51416 587.737 2.70025 587.737 4.16332V22.4016C587.737 23.8654 586.554 25.0515 585.095 25.0515Z" fill="#93BFD1" stroke="#1F3749" stroke-width="1.5" stroke-miterlimit="10"/>
<path d="M831.983 25.0515H863.506C864.806 25.0515 865.86 23.9943 865.86 22.6903V9.57412C865.86 5.12389 862.261 1.51489 857.822 1.51489H831.981C830.682 1.51489 829.628 2.57209 829.628 3.8761V22.6903C829.629 23.9937 830.681 25.0515 831.983 25.0515Z" fill="#93BFD1" stroke="#1F3749" stroke-width="1.5" stroke-miterlimit="10"/>
<path d="M847.936 362.273H568.791C566.677 362.273 564.964 360.556 564.964 358.436V37.6295C564.964 35.5097 566.677 33.7922 568.791 33.7922H847.936C850.05 33.7922 851.763 35.5103 851.763 37.6295V358.437C851.763 360.556 850.05 362.273 847.936 362.273Z" fill="white" stroke="#1F3749" stroke-width="1.5" stroke-miterlimit="10"/>
<path d="M852.369 358.438V362.279C852.369 364.394 850.648 366.111 848.517 366.111H567.89C565.759 366.111 564.038 364.394 564.038 362.279V358.438C564.038 360.553 565.759 362.279 567.89 362.279H848.517C850.648 362.279 852.369 360.552 852.369 358.438Z" fill="#80A4B0" fill-opacity="0.6"/>
<path d="M848.005 362.273H568.792C566.677 362.273 564.964 360.556 564.964 358.436V37.6295C564.964 35.5097 566.678 33.7922 568.792 33.7922H848.004C850.117 33.7922 851.83 35.5103 851.83 37.6295V358.437C851.832 360.556 850.118 362.273 848.005 362.273Z" fill="#83A8B5" stroke="#1F3749" stroke-width="1.5" stroke-miterlimit="10"/>
<path d="M831.001 25.1926H861.703V28.4588H835.002C833.063 28.4588 831.39 27.0938 831.001 25.1926Z" fill="#638288" fill-opacity="0.5"/>
<path d="M585.378 25.1926H554.676V28.4588H581.377C583.317 28.4588 584.989 27.0938 585.378 25.1926Z" fill="#638288" fill-opacity="0.5"/>
<path d="M848.179 363.044H568.454C566.335 363.044 564.618 361.322 564.618 359.198V37.7254C564.618 35.6014 566.335 33.8799 568.454 33.8799H848.177C850.295 33.8799 852.012 35.6007 852.012 37.7254V359.198C852.013 361.322 850.296 363.044 848.179 363.044Z" fill="#8EB6C7" stroke="#1F3749" stroke-width="1.5" stroke-miterlimit="10"/>
<g opacity="0.3">
<path opacity="0.3" d="M570.115 42.657V359.39C570.115 360.487 569.306 361.414 568.221 361.558L554.973 364.641V38.1238L568.313 40.5076C569.359 40.6907 570.115 41.5984 570.115 42.657Z" fill="#3B5457" fill-opacity="0.5"/>
</g>
<path d="M839.995 352.812H576.636C575.354 352.812 574.313 351.769 574.313 350.483V45.4159C574.313 44.1297 575.354 43.0869 576.636 43.0869H839.997C841.28 43.0869 842.32 44.1297 842.32 45.4159V350.483C842.319 351.769 841.277 352.812 839.995 352.812Z" fill="#C2D8E0" stroke="#1F3749" stroke-width="1.5" stroke-miterlimit="10"/>
<path d="M788.474 292.221H628.156C627.376 292.221 626.741 291.585 626.741 290.802V105.095C626.741 104.312 627.375 103.676 628.156 103.676H788.474C789.256 103.676 789.889 104.312 789.889 105.095V290.802C789.89 291.586 789.256 292.221 788.474 292.221Z" fill="#AFC7D1" stroke="#1F3749" stroke-width="1.5" stroke-miterlimit="10"/>
<path d="M841.653 43.787L789.465 104.09C789.21 103.835 788.857 103.678 788.472 103.678H628.157C627.693 103.678 627.275 103.9 627.014 104.253L574.833 43.9501C575.257 43.4277 575.903 43.0876 576.635 43.0876H839.994C840.647 43.0876 841.235 43.3557 841.653 43.787Z" fill="#A5BEC6" stroke="#1F3749" stroke-width="1.5" stroke-miterlimit="10"/>
<path d="M841.653 352.203L789.465 291.9C789.21 292.154 788.857 292.311 788.472 292.311H628.157C627.693 292.311 627.275 292.089 627.014 291.737L574.833 352.039C575.257 352.562 575.903 352.901 576.635 352.901H839.994C840.647 352.901 841.235 352.634 841.653 352.203Z" fill="#C2D5DF" stroke="#1F3749" stroke-width="1.5" stroke-miterlimit="10" stroke-linejoin="round"/>
<path d="M489.968 386.686H487.926C486.235 386.686 484.865 385.163 484.865 383.284V7.3184C484.865 5.43917 486.235 3.91577 487.926 3.91577H489.968C491.66 3.91577 493.03 5.43917 493.03 7.3184V383.284C493.03 385.163 491.659 386.686 489.968 386.686Z" fill="#C0D3DE" stroke="#1F3749" stroke-width="1.5" stroke-miterlimit="10"/>
<g opacity="0.4">
<path opacity="0.4" d="M485.349 356.766V383.297C485.349 384.461 485.972 385.506 486.886 385.963C488.3 379.723 490.702 375.849 492.535 373.653V356.319L485.349 356.766Z" fill="#3B5457"/>
</g>
<path d="M424.514 368.78V19.8094C424.514 15.4798 428.521 12.2081 432.872 12.9863L565.863 36.7505C566.907 36.937 567.666 37.8448 567.666 38.9047V355.636C567.666 356.732 566.857 357.657 565.771 357.803L432.564 375.653C428.307 376.225 424.514 372.986 424.514 368.78Z" fill="#86AEBD" stroke="#1F3749" stroke-width="1.5" stroke-miterlimit="10"/>
<g opacity="0.5">
<path opacity="0.5" d="M560.877 85.9074L578.654 84.6014C579.188 84.6014 579.621 84.1667 579.621 83.6312V74.8261C579.621 74.2906 579.188 73.856 578.654 73.856L560.877 75.162C560.343 75.162 559.91 75.5967 559.91 76.1321V84.9373C559.91 85.4728 560.343 85.9074 560.877 85.9074Z" fill="#73A2AE"/>
</g>
<g opacity="0.5">
<path opacity="0.5" d="M560.877 151.398L578.654 150.745C579.188 150.745 579.621 150.311 579.621 149.775V140.971C579.621 140.434 579.188 140 578.654 140L560.877 140.652C560.343 140.652 559.91 141.088 559.91 141.624V150.428C559.91 150.965 560.343 151.398 560.877 151.398Z" fill="#73A2AE"/>
</g>
<g opacity="0.5">
<path opacity="0.5" d="M578.654 259.558L560.877 262.17C560.343 262.17 559.91 261.736 559.91 261.2V252.395C559.91 251.86 560.343 251.426 560.877 251.426L578.654 248.813C579.188 248.813 579.621 249.247 579.621 249.783V258.587C579.621 259.124 579.188 259.558 578.654 259.558Z" fill="#73A2AE"/>
</g>
<g opacity="0.5">
<path opacity="0.5" d="M578.654 325.049L560.877 328.314C560.343 328.314 559.91 327.879 559.91 327.344V318.54C559.91 318.004 560.343 317.569 560.877 317.569L578.654 314.303C579.188 314.303 579.621 314.737 579.621 315.273V324.076C579.621 324.615 579.188 325.049 578.654 325.049Z" fill="#73A2AE"/>
</g>
<path d="M434.189 28.6503V360.621C434.189 362.947 436.286 364.737 438.641 364.423L567.666 348.393V45.865L438.752 24.8658C436.363 24.4764 434.189 26.2802 434.189 28.6503Z" fill="#D4E8EE" stroke="#1F3749" stroke-width="1.5" stroke-miterlimit="10"/>
<g opacity="0.2">
<path d="M434.757 271.95V361.513C434.757 362.461 435.171 363.367 435.894 364.001C436.646 364.659 437.649 364.96 438.655 364.827L567.192 348.851V47.2922L548.834 44.2979C526.479 108.91 488.581 200.694 434.757 271.95Z" fill="#9FB9C1" style="mix-blend-mode:multiply"/>
</g>
<path d="M578.654 83.2946L560.877 81.9886C560.343 81.9886 559.91 81.5539 559.91 81.0184V72.2133C559.91 71.6778 560.343 71.2432 560.877 71.2432L578.654 72.5492C579.188 72.5492 579.621 72.9839 579.621 73.5194V82.3245C579.621 82.86 579.188 83.2946 578.654 83.2946Z" fill="#73A2AE" stroke="#1F3749" stroke-width="1.5" stroke-miterlimit="10"/>
<path d="M578.654 148.786L560.877 148.132C560.343 148.132 559.91 147.698 559.91 147.163V138.358C559.91 137.822 560.343 137.388 560.877 137.388L578.654 138.041C579.188 138.041 579.621 138.475 579.621 139.011V147.816C579.621 148.352 579.188 148.786 578.654 148.786Z" fill="#73A2AE" stroke="#1F3749" stroke-width="1.5" stroke-miterlimit="10"/>
<path d="M578.654 257.597L560.877 258.251C560.343 258.251 559.91 257.817 559.91 257.281V248.476C559.91 247.94 560.343 247.507 560.877 247.507L578.654 246.853C579.188 246.853 579.621 247.287 579.621 247.823V256.627C579.621 257.163 579.188 257.597 578.654 257.597Z" fill="#73A2AE" stroke="#1F3749" stroke-width="1.5" stroke-miterlimit="10"/>
<path d="M578.654 323.089L560.877 324.396C560.343 324.396 559.91 323.961 559.91 323.425V314.621C559.91 314.085 560.343 313.651 560.877 313.651L578.654 312.344C579.188 312.344 579.621 312.778 579.621 313.314V322.119C579.621 322.655 579.188 323.089 578.654 323.089Z" fill="#73A2AE" stroke="#1F3749" stroke-width="1.5" stroke-miterlimit="10"/>
<g opacity="0.2">
<path opacity="0.2" d="M434.786 271.081V360.679C434.786 361.628 435.201 362.534 435.924 363.168C436.676 363.826 437.68 364.127 438.687 363.994L567.284 348.012V46.3352L548.917 43.3398C526.552 107.977 488.636 199.797 434.786 271.081Z" fill="#9FB9C1"/>
</g>
<path opacity="0.1" d="M842.29 45.2869V350.354C842.29 351.027 842.003 351.64 841.546 352.059L789.363 291.756C789.67 291.495 789.86 291.103 789.86 290.678V104.97C789.86 104.578 789.703 104.224 789.442 103.963L841.624 43.6606C842.035 44.085 842.29 44.6472 842.29 45.2869Z" fill="#A3BDC6" stroke="#1F3749" stroke-width="1.5" stroke-miterlimit="10"/>
<g opacity="0.3">
<path opacity="0.3" d="M846.224 42.5673V358.922C846.224 360.018 847.08 360.944 848.227 361.088L862.231 364.167V38.0396L848.129 40.4206C847.025 40.6037 846.224 41.5101 846.224 42.5673Z" fill="#3B5457" fill-opacity="0.5"/>
</g>
<path d="M926.349 386.686H928.391C930.082 386.686 931.452 385.163 931.452 383.284V7.3184C931.452 5.43917 930.082 3.91577 928.391 3.91577H926.349C924.658 3.91577 923.287 5.43917 923.287 7.3184V383.284C923.287 385.163 924.658 386.686 926.349 386.686Z" fill="#C0D3DE" stroke="#1F3749" stroke-width="1.5" stroke-miterlimit="10"/>
<g opacity="0.4">
<path opacity="0.4" d="M923.783 356.319V373.653C925.617 375.849 928.018 379.723 929.433 385.963C930.345 385.506 930.969 384.462 930.969 383.297V356.766L923.783 356.319Z" fill="#3B5457"/>
</g>
<path d="M991.803 368.78V19.8094C991.803 15.4798 987.796 12.2081 983.445 12.9863L850.454 36.7499C849.411 36.9363 848.652 37.8441 848.652 38.904V355.636C848.652 356.73 849.461 357.657 850.547 357.802L983.755 375.655C988.011 376.225 991.803 372.986 991.803 368.78Z" fill="#86AEBD" stroke="#1F3749" stroke-width="1.5" stroke-miterlimit="10"/>
<g opacity="0.5">
<path opacity="0.5" d="M855.44 85.9074L837.664 84.6014C837.13 84.6014 836.697 84.1667 836.697 83.6312V74.8261C836.697 74.2906 837.13 73.856 837.664 73.856L855.44 75.162C855.974 75.162 856.408 75.5967 856.408 76.1321V84.9373C856.408 85.4728 855.974 85.9074 855.44 85.9074Z" fill="#73A2AE"/>
</g>
<g opacity="0.5">
<path opacity="0.5" d="M855.44 151.398L837.664 150.745C837.13 150.745 836.697 150.311 836.697 149.775V140.971C836.697 140.434 837.13 140 837.664 140L855.44 140.652C855.974 140.652 856.408 141.088 856.408 141.624V150.428C856.408 150.965 855.974 151.398 855.44 151.398Z" fill="#73A2AE"/>
</g>
<g opacity="0.5">
<path opacity="0.5" d="M837.664 259.558L855.44 262.17C855.974 262.17 856.408 261.736 856.408 261.2V252.395C856.408 251.86 855.974 251.426 855.44 251.426L837.664 248.813C837.13 248.813 836.697 249.247 836.697 249.783V258.587C836.697 259.124 837.13 259.558 837.664 259.558Z" fill="#73A2AE"/>
</g>
<g opacity="0.5">
<path opacity="0.5" d="M837.664 325.049L855.44 328.314C855.974 328.314 856.408 327.879 856.408 327.344V318.54C856.408 318.004 855.974 317.569 855.44 317.569L837.664 314.303C837.13 314.303 836.697 314.737 836.697 315.273V324.076C836.697 324.615 837.13 325.049 837.664 325.049Z" fill="#73A2AE"/>
</g>
<path d="M982.128 28.6503V360.621C982.128 362.947 980.03 364.737 977.676 364.423L848.65 348.393V45.865L977.564 24.8658C979.954 24.4764 982.128 26.2802 982.128 28.6503Z" fill="#D4E8EE" stroke="#1F3749" stroke-width="1.5" stroke-miterlimit="10"/>
<path d="M837.664 83.2946L855.44 81.9886C855.974 81.9886 856.408 81.5539 856.408 81.0184V72.2133C856.408 71.6778 855.974 71.2432 855.44 71.2432L837.664 72.5492C837.13 72.5492 836.697 72.9839 836.697 73.5194V82.3245C836.697 82.86 837.13 83.2946 837.664 83.2946Z" fill="#73A2AE" stroke="#1F3749" stroke-width="1.5" stroke-miterlimit="10"/>
<path d="M837.664 148.786L855.44 148.132C855.974 148.132 856.408 147.698 856.408 147.163V138.358C856.408 137.822 855.974 137.388 855.44 137.388L837.664 138.041C837.13 138.041 836.697 138.475 836.697 139.011V147.816C836.697 148.352 837.13 148.786 837.664 148.786Z" fill="#73A2AE" stroke="#1F3749" stroke-width="1.5" stroke-miterlimit="10"/>
<path d="M837.664 257.597L855.44 258.251C855.974 258.251 856.408 257.817 856.408 257.281V248.476C856.408 247.94 855.974 247.507 855.44 247.507L837.664 246.853C837.13 246.853 836.697 247.287 836.697 247.823V256.627C836.697 257.163 837.13 257.597 837.664 257.597Z" fill="#73A2AE" stroke="#1F3749" stroke-width="1.5" stroke-miterlimit="10"/>
<g opacity="0.2">
<path d="M848.806 167.292V348.851L977.343 364.827C978.349 364.961 979.353 364.66 980.105 364.001C980.827 363.367 981.242 362.461 981.242 361.513V324.185C981.242 324.185 888 279 848.806 167.292Z" fill="#9FB9C1" fill-opacity="0.8" style="mix-blend-mode:multiply"/>
</g>
<path d="M837.664 323.089L855.44 324.396C855.974 324.396 856.408 323.961 856.408 323.425V314.621C856.408 314.085 855.974 313.651 855.44 313.651L837.664 312.344C837.13 312.344 836.697 312.778 836.697 313.314V322.119C836.697 322.655 837.13 323.089 837.664 323.089Z" fill="#73A2AE" stroke="#1F3749" stroke-width="1.5" stroke-miterlimit="10"/>
<path d="M817.433 217.008L807.665 213.995C805.789 213.417 803.857 213.123 801.919 213.123H736.456C734.624 213.123 732.8 213.384 731.021 213.902L720.336 217.009V228.206H816.952L817.433 217.008Z" fill="#D3BDA5" stroke="#203749" stroke-width="1.5" stroke-miterlimit="10" stroke-linejoin="round"/>
<path d="M718.166 219.407V316.534C718.166 317.986 719.162 319.162 720.39 319.162H818.453C819.467 319.162 820.29 318.19 820.29 316.991V219.865C820.29 218.287 819.208 217.008 817.873 217.008H720.197C719.075 217.008 718.166 218.083 718.166 219.407Z" fill="#DDC1A6" stroke="#203749" stroke-width="1.5" stroke-miterlimit="10" stroke-linejoin="round"/>
<path d="M764.066 213.123H775.951L779.836 216.78V260.43H760.409V217.008L764.066 213.123Z" fill="#D3BDA5" fill-opacity="0.6" style="mix-blend-mode:multiply"/>
<path d="M770.408 213.066V217.179" stroke="#203749" stroke-width="1.5" stroke-miterlimit="10" stroke-linejoin="round"/>
<path d="M687.195 248.397L678.765 245.797C677.145 245.297 675.478 245.044 673.805 245.044H617.304C615.723 245.044 614.148 245.27 612.613 245.716L603.391 248.397V258.062H686.78L687.195 248.397Z" fill="#D3BDA5" stroke="#203749" stroke-width="1.5" stroke-miterlimit="10" stroke-linejoin="round"/>
<path d="M601.517 250.469V334.298C601.517 335.551 602.377 336.567 603.437 336.567H688.074C688.949 336.567 689.66 335.728 689.66 334.693V250.863C689.66 249.501 688.725 248.397 687.573 248.397H603.27C602.302 248.397 601.517 249.324 601.517 250.469Z" fill="#DCC9B6" stroke="#203749" stroke-width="1.5" stroke-miterlimit="10" stroke-linejoin="round"/>
<path d="M641.134 245.044H651.391L654.745 248.2V285.874H637.978V248.397L641.134 245.044Z" fill="#D3BDA5" fill-opacity="0.6" style="mix-blend-mode:multiply"/>
<path d="M646.608 244.995V248.545" stroke="#203749" stroke-width="1.5" stroke-miterlimit="10" stroke-linejoin="round"/>
<path d="M1168.02 325.483L1153.92 321.825C1151.22 321.122 1148.43 320.767 1145.63 320.767H1051.17C1048.53 320.767 1045.9 321.084 1043.33 321.712L1027.91 325.483V339.077H1167.32L1168.02 325.483Z" fill="#D3BDA5" stroke="#203749" stroke-width="1.5" stroke-miterlimit="10" stroke-linejoin="round"/>
<path d="M1025 328.395V446.296C1025 448.057 1026.43 449.486 1028.19 449.486H1168.85C1170.31 449.486 1171.49 448.306 1171.49 446.851V328.95C1171.49 327.035 1169.93 325.482 1168.02 325.482H1027.91C1026.3 325.482 1025 326.787 1025 328.395Z" fill="#F1D9C2" stroke="#203749" stroke-width="1.5" stroke-miterlimit="10" stroke-linejoin="round"/>
<path d="M1090.75 320.767H1105.18L1109.9 325.205V378.191H1086.31V325.483L1090.75 320.767Z" fill="#D3BDA5" fill-opacity="0.8" style="mix-blend-mode:multiply"/>
<path d="M1098.45 320.697V325.69" stroke="#203749" stroke-width="1.5" stroke-miterlimit="10" stroke-linejoin="round"/>
<path d="M1151.19 238.177L1141.22 235.588C1139.3 235.091 1137.33 234.839 1135.35 234.839H1068.49C1066.62 234.839 1064.76 235.063 1062.94 235.508L1052.03 238.177V247.798H1150.7L1151.19 238.177Z" fill="#D3BDA5" stroke="#203749" stroke-width="1.5" stroke-miterlimit="10" stroke-linejoin="round"/>
<path d="M1049.97 240.238V323.687C1049.97 324.934 1050.98 325.945 1052.22 325.945H1151.78C1152.81 325.945 1153.65 325.109 1153.65 324.079V240.631C1153.65 239.275 1152.55 238.176 1151.19 238.176H1052.03C1050.89 238.177 1049.97 239.1 1049.97 240.238Z" fill="#DDC1A6" stroke="#203749" stroke-width="1.5" stroke-miterlimit="10" stroke-linejoin="round"/>
<path d="M1096.5 234.839H1106.72L1110.05 237.98V275.483H1093.36V238.177L1096.5 234.839Z" fill="#D3BDA5" fill-opacity="0.6" style="mix-blend-mode:multiply"/>
<path d="M1101.95 234.79V238.324" stroke="#203749" stroke-width="1.5" stroke-miterlimit="10" stroke-linejoin="round"/>
<path d="M735.751 313.601C737.812 309.999 741.698 304.487 748.442 298.877C752.752 295.292 758.194 293.33 763.808 293.33H778.344C783.826 293.33 788.44 297.421 789.079 302.849L798.629 384.073C798.963 386.912 798.138 389.765 796.339 391.991L780.905 411.09C779.964 412.255 778.123 412.034 777.485 410.68L735.462 321.376C734.291 318.89 734.385 315.987 735.751 313.601Z" fill="#FBCDCD" stroke="#203749" stroke-width="1.5" stroke-miterlimit="10" stroke-linejoin="round"/>
<path d="M768.023 411.522L771.397 438.122C771.843 441.633 774.597 444.443 778.12 444.874C779.624 445.058 781.369 444.948 783.322 444.291C786.104 443.356 788.1 440.901 788.53 438.004L792.505 411.174L780.264 402.109L768.023 411.522Z" fill="#E5D8BD" stroke="#203749" stroke-width="1.5" stroke-miterlimit="10" stroke-linejoin="round"/>
<path d="M770.238 424.632H773.756C774.721 424.632 776.826 424.133 778.5 423.058L782.208 420.488C783.567 419.479 785.445 419.403 786.879 420.304L790.337 422.474L791.195 416.671L780.241 408.559L769.271 416.996L770.238 424.632Z" fill="#C4B8A3"/>
<path d="M943.594 411.522L946.968 438.122C947.413 441.633 950.168 444.443 953.691 444.874C955.195 445.058 956.939 444.948 958.892 444.291C961.675 443.356 963.671 440.901 964.1 438.004L968.076 411.174L955.835 402.109L943.594 411.522Z" fill="#E5D8BD" stroke="#203749" stroke-width="1.5" stroke-miterlimit="10" stroke-linejoin="round"/>
<path d="M771.815 417.45H748.962C739.594 417.45 732 409.879 732 400.54V324.186C732 318.313 736.776 313.552 742.667 313.552H761.059C768.351 313.552 774.42 319.135 775.005 326.38L781.516 406.969C781.973 412.616 777.498 417.45 771.815 417.45Z" fill="#F8C3C3" stroke="#203749" stroke-width="1.5" stroke-miterlimit="10" stroke-linejoin="round"/>
<path d="M966.677 416.985L955.619 408.559L944.666 416.67L945.524 422.473L948.981 420.302C950.415 419.402 952.293 419.477 953.653 420.487L957.361 423.057C959.035 424.131 961.139 424.63 962.105 424.63H965.54L966.677 416.985Z" fill="#C4B8A3"/>
<path d="M999.2 313.601C997.139 309.999 993.252 304.487 986.509 298.877C982.198 295.292 976.756 293.33 971.143 293.33H956.606C951.125 293.33 946.511 297.421 945.872 302.849L936.321 384.073C935.988 386.912 936.813 389.765 938.612 391.991L954.046 411.09C954.987 412.255 956.827 412.034 957.465 410.68L999.488 321.376C1000.66 318.89 1000.57 315.987 999.2 313.601Z" fill="#FBCDCD" stroke="#203749" stroke-width="1.5" stroke-miterlimit="10" stroke-linejoin="round"/>
<path opacity="0.4" d="M942.315 338.034L936.901 384.077C936.584 386.757 937.378 389.5 939.076 391.602L953.001 408.831C952.929 408.187 952.921 407.531 952.973 406.868L959.479 326.28C959.702 323.491 960.717 320.865 962.423 318.647C957.647 315.494 951.9 309.673 947.966 305.315L948.879 320.89C949.218 327.262 946.827 333.499 942.315 338.034Z" fill="#E3A3A3"/>
<path d="M963.135 417.45H985.988C995.356 417.45 1002.95 409.879 1002.95 400.54V324.186C1002.95 318.313 998.175 313.552 992.284 313.552H973.891C966.6 313.552 960.531 319.135 959.946 326.38L953.435 406.969C952.978 412.616 957.453 417.45 963.135 417.45Z" fill="#F8C3C3" stroke="#203749" stroke-width="1.5" stroke-miterlimit="10" stroke-linejoin="round"/>
<path opacity="0.4" d="M774.101 320.915C774.902 322.543 775.382 324.288 775.528 326.108L782.04 406.695C782.093 407.358 782.084 408.014 782.013 408.656L795.931 391.431C797.63 389.327 798.423 386.584 798.105 383.905L792.903 339.645C788.538 335.806 786.152 330.289 786.35 324.472L786.93 307.495C782.766 312.157 778.457 316.664 774.101 320.915Z" fill="#E3A3A3"/>
<path d="M777.117 381.539L779.084 405.647C779.595 411.917 784.986 416.752 791.465 416.752H949.579C955.845 416.752 961.083 412.129 961.68 406.075L964.578 376.658L777.117 381.539Z" fill="#F8B7B7" stroke="#203749" stroke-width="1.5" stroke-miterlimit="10" stroke-linejoin="round"/>
<path d="M917.036 235.762C893.461 233.175 857.173 231.052 819.582 235.927C802.375 238.159 789.329 252.508 788.741 269.797L786.873 324.726C786.511 335.391 795.085 344.233 805.79 344.233H926.176C938.873 344.233 948.972 333.615 948.295 320.976L945.334 265.629C944.504 250.109 932.532 237.463 917.036 235.762Z" fill="#FBD1D1" stroke="#203749" stroke-width="1.5" stroke-miterlimit="10" stroke-linejoin="round"/>
<path d="M810.011 333.897C829.594 332.867 867.965 331.952 933.128 334.426C944.644 334.863 955.554 339.517 963.617 347.448C966.52 350.304 968.146 354.142 968.146 358.138V378.226C968.146 384.677 962.717 389.906 956.02 389.906H783.367C776.67 389.906 771.241 384.677 771.241 378.226V363.56C771.241 355.99 774.888 348.848 781.114 344.227C789.442 338.047 799.514 334.449 810.011 333.897Z" fill="#F8DDDD" stroke="#203749" stroke-width="1.5" stroke-miterlimit="10" stroke-linejoin="round"/>
<path d="M773.221 355.258C772.197 357.911 771.678 360.69 771.678 363.533V378.197C771.678 384.349 776.881 389.354 783.276 389.354H955.929C962.328 389.354 967.534 384.349 967.534 378.197V358.108C967.534 356.69 967.323 355.291 966.906 353.936C964.666 357.697 960.483 360.067 955.93 360.067H783.276C779.295 360.067 775.605 358.286 773.221 355.258Z" fill="#FAC6C6"/>
<g opacity="0.4">
<path d="M771.394 383.069V385.166C771.394 389.494 774.034 393.47 778.12 395.294C779.648 395.977 781.286 396.322 782.991 396.322H955.645C957.968 396.322 960.208 395.665 962.122 394.42C965.333 392.34 967.249 388.88 967.249 385.166V383.077C966.427 384.895 965.142 386.511 963.468 387.778C961.227 389.49 958.522 390.395 955.645 390.395H782.991C780.917 390.395 778.872 389.904 777.077 388.977C774.493 387.658 772.518 385.56 771.394 383.069Z" fill="#EEBED9" style="mix-blend-mode:multiply"/>
</g>
<path d="M641.62 441.824H640.206C637.893 441.824 636.001 439.932 636.001 437.619V378.433C636.001 376.12 637.893 374.228 640.206 374.228H641.62C643.933 374.228 645.825 376.12 645.825 378.433V437.619C645.825 439.932 643.933 441.824 641.62 441.824Z" fill="#DDD0B3" stroke="#203749" stroke-width="1.5" stroke-miterlimit="10" stroke-linejoin="round"/>
<path d="M692.715 441.824H690.63C688.501 441.824 686.76 440.083 686.76 437.955V378.097C686.76 375.969 688.501 374.229 690.63 374.229H692.715C694.844 374.229 696.584 375.969 696.584 378.097V437.955C696.584 440.083 694.843 441.824 692.715 441.824Z" fill="#DDD0B3" stroke="#203749" stroke-width="1.5" stroke-miterlimit="10" stroke-linejoin="round"/>
<path d="M687.262 397.557C690.02 397.848 692.909 398.116 696.059 398.373V377.328C696.059 375.479 694.555 373.975 692.706 373.975H690.614C688.766 373.975 687.262 375.479 687.262 377.328V397.557H687.262Z" fill="#BDA784"/>
<path d="M636.403 391.861C639.161 392.152 642.049 392.42 645.2 392.677V371.632C645.2 369.784 643.696 368.279 641.847 368.279H639.755C637.907 368.279 636.402 369.783 636.402 371.632V391.861H636.403Z" fill="#BDA784"/>
<path d="M708.748 376.983C708.748 381.634 689.74 385.404 666.293 385.404C642.846 385.404 623.838 381.634 623.838 376.983V365.055H708.749V376.983H708.748Z" fill="#C4B79E" stroke="#203749" stroke-width="1.5" stroke-miterlimit="10" stroke-linejoin="round"/>
<path d="M666.293 373.117C690.066 373.117 709.338 369.295 709.338 364.58C709.338 359.865 690.066 356.043 666.293 356.043C642.52 356.043 623.247 359.865 623.247 364.58C623.247 369.295 642.52 373.117 666.293 373.117Z" fill="#DDD0B3" stroke="#203749" stroke-width="1.5" stroke-miterlimit="10" stroke-linejoin="round"/>
<path d="M558 438.614C558 442.141 544.793 445 528.5 445C512.207 445 499 442.141 499 438.614V432H558V438.614Z" fill="#AAAFB7" stroke="#203749" stroke-width="1.5" stroke-miterlimit="10" stroke-linejoin="round"/>
<path d="M528.5 438C544.792 438 558 435.314 558 432C558 428.686 544.792 426 528.5 426C512.208 426 499 428.686 499 432C499 435.314 512.208 438 528.5 438Z" fill="#CDDAE2" stroke="#203749" stroke-width="1.5" stroke-miterlimit="10" stroke-linejoin="round"/>
<path d="M529.16 430.692H527.84C525.833 430.692 524.207 430.067 524.207 428.061V192.077H532.793V428.061C532.793 430.066 531.167 430.692 529.16 430.692Z" fill="#CDDAE2" stroke="#203749" stroke-width="1.5" stroke-miterlimit="10" stroke-linejoin="round"/>
<path d="M516.612 200.328V244.885" stroke="#203749" stroke-width="1.5" stroke-miterlimit="10" stroke-linejoin="round"/>
<path d="M506.044 132.669C506.044 132.669 534.444 130.028 550.295 132.669L563.505 209.9C563.505 209.9 534.444 215.841 493.495 209.9L506.044 132.669Z" fill="#C3CDF6" stroke="#203749" stroke-width="1.5" stroke-miterlimit="10" stroke-linejoin="round"/>
<path opacity="0.3" d="M494.01 209.537C531.343 214.878 558.979 210.273 562.879 209.559L556.57 172.165C542.7 192.738 526.078 198.679 495.477 200.769L494.01 209.537Z" fill="#9CA3E2"/>
<path opacity="0.5" d="M524.645 212.98V226.402C527.246 225.955 529.798 225.475 532.24 224.973V212.98H524.645Z" fill="#BAC4CC"/>
<path d="M516.612 249.945C515.608 249.945 514.795 249.133 514.795 248.13V245.49C514.795 244.487 515.608 243.674 516.612 243.674C517.615 243.674 518.428 244.487 518.428 245.49V248.13C518.428 249.133 517.615 249.945 516.612 249.945Z" fill="#A5AAD5" stroke="#203749" stroke-width="1.5" stroke-miterlimit="10" stroke-linejoin="round"/>
<path d="M277.191 294.769C275.989 289.64 274.528 284.583 272.705 279.649C268.654 268.687 263.476 257.286 255.259 248.782C246.841 240.07 230.847 233.699 221.408 244.753C208.377 260.017 224.72 278.708 221.114 294.701C219.372 302.426 211.153 303.469 204.732 301.548C195.886 298.901 189.588 290.751 185.2 283.092C185.2 283.092 169.163 261.623 151.339 272.876C151.339 272.876 136.142 283.049 148.466 302.444C148.466 302.444 163.95 321.281 153.499 331.407C153.499 331.407 147.232 337.799 133.467 332.66C133.467 332.66 123.403 328.539 118.233 339.141C118.233 339.141 111.538 355.559 125.852 362.802C125.852 362.802 110.023 362.432 102.305 382.025C94.5856 401.618 114.79 417.771 129.063 420.796C129.063 420.796 301.441 419.093 301.537 419.092C303.474 419.073 307.472 415.013 308.891 413.926C314.746 409.442 320.233 404.433 325.136 398.92C338.87 383.477 347.702 363.361 341.98 342.567C341.573 341.089 341.089 339.608 340.232 338.336C329.379 322.261 310.193 339.114 300.521 346.084C291.373 352.677 284.524 348.046 283.362 337.372C281.838 323.377 280.484 308.809 277.191 294.769Z" fill="#E9F6FB"/>
<path d="M22.2666 394.714C22.0378 394.631 21.8219 394.527 21.6221 394.395C17.4042 391.614 14.6429 384.128 12.2785 379.787C5.4202 367.196 0.580675 354.936 0.0230456 340.436C0.0230456 340.436 -0.950554 326.32 9.75856 326.806C19.4909 327.248 14.8787 343.026 20.4136 347.012C27.5949 352.183 29.0409 341.999 28.2574 337.515C26.9423 329.989 25.97 322.386 25.1998 314.787C24.0228 303.173 22.2769 289.797 25.4216 278.354C26.3346 275.031 27.9393 271.415 31.1994 269.815C34.1168 268.383 37.6858 268.985 40.571 270.481C44.5579 272.548 47.5771 276.154 49.6956 280.114C55.4569 290.883 55.9829 302.145 56.9231 314.046C57.1028 316.318 58.1779 320.434 61.3773 319.244C62.3955 318.866 63.1654 318.018 63.7936 317.132C68.148 310.989 68.3749 302.743 72.565 296.279C74.1181 293.884 76.1281 291.528 78.89 290.805C82.8632 289.764 87.0745 292.674 88.6712 296.458C90.268 300.242 89.7904 304.583 88.7387 308.553C86.4507 317.189 82.6451 326.016 83.0589 335.108C83.1327 336.731 83.3325 338.416 84.2061 339.786C87.1561 344.411 92.7555 340.489 94.9987 337.328C96.7709 334.831 98.3235 331.421 101.233 330.037C104.449 328.508 109.225 329.706 111.401 332.486C113.521 335.195 113.306 339.049 112.471 342.386C111.429 346.55 109.527 350.155 107.238 353.745C105.894 355.853 100.169 363.944 101.18 366.247C102.465 369.175 106.571 369.187 108.94 367.841C113.737 365.117 119.032 353.328 125.616 359.663C133.292 367.048 126.373 375.052 119.454 379.489C111.43 384.635 101.768 394.864 91.5409 394.225C75.7204 394.391 59.9002 394.558 44.0796 394.724C38.3442 394.785 32.6087 394.845 26.873 394.905C25.4179 394.921 23.6199 395.202 22.2666 394.714Z" fill="#EDF7E9"/>
<path d="M309.03 372.322L311.689 408.148L327.645 408.413L331.102 369.138L309.03 372.322Z" fill="#F3E8E3" stroke="#1E3749" stroke-width="1.5" stroke-miterlimit="10" stroke-linejoin="round"/>
<path d="M330.171 373.516C330.171 373.516 318.162 374.003 309.474 372.455L310.11 380.195C310.11 380.195 319.253 382.141 329.671 379.178L330.171 373.516Z" fill="#EFC6A8"/>
<path d="M275.922 375.905L278.581 411.73L294.537 411.996L297.994 372.721L275.922 375.905Z" fill="#F3E8E3" stroke="#1E3749" stroke-width="1.5" stroke-miterlimit="10" stroke-linejoin="round"/>
<path d="M273.175 267.898C273.175 267.898 270.358 297.946 269.285 375.376C269.278 375.92 269.57 376.424 270.044 376.693C272.553 378.121 282.052 381.794 310.577 378.915C311.088 378.863 311.489 378.447 311.518 377.937L311.823 372.455C311.823 372.455 330.889 374.275 340.964 371.675C341.554 371.523 341.97 370.999 341.983 370.391L344.266 265.598L273.175 267.898Z" fill="#8CC6CA" stroke="#1E3749" stroke-width="1.5" stroke-miterlimit="10"/>
<path d="M304.288 160.002C279.679 160.648 261.14 180.15 257.75 203.524C257.6 204.563 257.27 205.594 257.096 206.634C256.673 209.166 256.465 211.741 256.51 214.309C256.629 221.098 258.685 227.926 263.981 232.477C266.9 234.985 270.392 236.204 274.171 236.718L272.188 269.655C272.144 270.365 272.675 270.978 273.385 271.034C281.402 271.671 325.104 274.763 343.601 268.122C344.61 267.76 345.301 266.832 345.39 265.765C345.822 260.595 347.008 244.571 346.57 229.266C346.57 229.266 356.941 231.919 360.664 219.978C364.386 208.036 359.6 184.683 347.101 171.945C334.604 159.207 304.292 160.002 304.288 160.002Z" fill="#E8A2A2" stroke="#1E3749" stroke-width="1.5" stroke-miterlimit="10"/>
<path d="M346.038 229.685C346.038 229.685 337.063 227.761 329.551 224.311C329.551 224.311 323.102 221.193 320.709 219.733C320.709 219.733 311.468 225.24 304.886 227.96C304.886 227.96 290.526 234.329 286.804 234.86C286.804 234.86 277.23 237.05 274.771 236.585L274.305 243.749C274.305 243.749 296.643 241.892 320.843 223.648C320.843 223.648 332.211 230.923 346.039 231.277V229.685H346.038Z" fill="#D18282"/>
<path d="M323.835 107.531L333.997 128.327C333.997 128.327 339.401 141.036 333.74 149.637C333.74 149.637 329.753 155.927 320.748 155.413L322.678 163.758C322.678 163.758 325.508 172.359 318.69 176.082C318.69 176.082 308.399 180.447 301.839 167.737L299.477 162.433C298.995 161.353 298.669 160.211 298.508 159.04L296.822 146.812C296.822 146.812 288.461 142.448 281.128 132.691C273.796 122.935 286.66 110.868 286.66 110.868L313.674 104.449L323.835 107.531Z" fill="#F3E8E3" stroke="#1E3749" stroke-width="1.5" stroke-miterlimit="10" stroke-linejoin="round"/>
<path d="M331.774 138.086C331.651 137.614 331.074 137.43 330.709 137.755C329.535 138.798 326.998 140.584 322.898 141.189C322.898 141.189 320.073 141.572 318.017 141.783C317.283 141.859 316.904 142.679 317.304 143.297C318.559 145.231 321.543 148.298 327.194 146.398C327.194 146.398 330.078 145.43 331.509 142.141C332.064 140.866 332.124 139.431 331.774 138.086Z" fill="#E56E7D"/>
<path d="M271.579 210.688C271.579 210.688 277.164 209.892 288.332 208.035C288.332 208.035 282.881 213.342 283.147 224.886C283.147 224.886 284.078 232.582 288.731 233.909C288.731 233.909 285.075 236.64 274.371 236.585" stroke="#203749" stroke-width="1.5" stroke-miterlimit="10" stroke-linecap="round"/>
<path d="M341.251 189.06C341.251 189.06 342.448 194.765 342.049 199.542L341.251 189.06Z" fill="#EFC6A8"/>
<path d="M341.251 189.06C341.251 189.06 342.448 194.765 342.049 199.542" stroke="#1E3749" stroke-width="1.5" stroke-miterlimit="10" stroke-linecap="round"/>
<path d="M279.253 209.686L288.133 207.969L293.717 206.642C300.1 205.182 313.263 214.072 313.263 214.072C329.085 226.28 346.371 229.198 346.371 229.198C352.886 230.26 355.811 226.942 355.811 226.942C358.603 218.451 350.891 210.224 350.891 210.224C347.035 206.509 335.201 202.13 335.201 202.13L312.509 196.292L302.434 194.007C301.358 193.763 300.249 193.709 299.155 193.846L287.681 195.293C285.306 195.592 283.154 196.837 281.712 198.744L275.812 206.553L275.148 208.393C274.752 209.491 275.748 210.584 276.881 210.293L279.253 209.686Z" fill="#F3E8E3" stroke="#1E3749" stroke-width="1.5" stroke-miterlimit="10"/>
<path d="M288.731 233.909C288.731 233.909 310.404 226.345 322.37 217.987L339.787 207.262C340.635 206.74 341.664 206.596 342.624 206.865L347.693 208.285C348.353 208.47 349.047 208.496 349.72 208.362L350.311 208.244C350.899 208.126 351.295 207.574 351.215 206.981L351.188 206.781C351.124 206.305 350.898 205.865 350.547 205.536L346.612 201.855C345.37 200.694 343.811 199.928 342.132 199.655L334.789 198.462C333.783 198.299 332.759 198.273 331.747 198.385L324.897 199.144C324.897 199.144 288.35 208.03 288.332 208.035C286.88 208.387 285.354 210.14 284.437 211.183C281.706 214.29 279.531 218.635 279.18 222.779C278.939 225.614 279.387 228.858 281.284 231.103C283.121 233.276 285.984 233.964 288.731 233.909Z" fill="#F3E8E3" stroke="#1E3749" stroke-width="1.5" stroke-miterlimit="10" stroke-linejoin="round"/>
<path d="M280.355 191.582L279.025 202.197" stroke="#1E3749" stroke-width="1.5" stroke-miterlimit="10" stroke-linecap="round"/>
<path d="M320.167 155.323C320.167 155.323 317.302 155.975 309.46 152.464C309.46 152.464 312.878 162.095 321.223 160.089L320.167 155.323Z" fill="#EFC6A8"/>
<path d="M321.706 219.07L340.197 207.578C340.868 207.165 341.683 207.058 342.438 207.283L347.7 208.853C347.7 208.853 346.038 209.716 343.845 209.649L340.321 209.516C340.321 209.516 330.481 216.681 321.706 219.07Z" fill="#EFC6A8"/>
<path d="M304.62 203.612L302.362 202.694C300.665 202.004 298.735 202.439 297.464 203.755C296.478 204.776 295.101 205.838 293.385 206.266L304.62 203.612Z" fill="#EFCEBA"/>
<path d="M353.147 427.199C352.904 428.826 351.822 430.201 350.101 430.144L340.733 430.537C336.569 430.712 332.398 430.511 328.271 429.937L311.436 427.593C309.861 427.54 308.557 426.404 308.386 424.907C308.055 421.997 307.973 416.618 309.901 408.635C310.062 407.97 310.69 407.498 311.403 407.499L327.984 408.073C328.793 408.073 329.583 408.299 330.259 408.722L351.176 421.902C351.177 421.903 353.684 423.6 353.147 427.199Z" fill="#67A2CF" stroke="#1E3749" stroke-width="1.5" stroke-miterlimit="10"/>
<path d="M395.855 408.561L396.918 412.408L397.982 417.185H385.218L386.547 403.519L395.722 404.049L395.855 408.561Z" fill="#F3E8E3" stroke="#1E3749" stroke-width="1.5" stroke-miterlimit="10" stroke-linejoin="round"/>
<path d="M418.533 408.561L417.469 412.408L416.405 417.185H429.17L427.84 403.519L418.666 404.049L418.533 408.561Z" fill="#F3E8E3" stroke="#1E3749" stroke-width="1.5" stroke-miterlimit="10" stroke-linejoin="round"/>
<path d="M414.313 419.887C413.427 420.75 412.909 421.919 412.867 423.154L412.742 426.76C412.712 427.643 413.405 428.385 414.29 428.416L423.157 428.729H435.474C435.474 428.729 437.35 428.495 437.864 425.481C438.172 423.675 437.594 421.834 436.366 420.474C435.246 419.234 433.34 417.361 430.109 414.642C429.604 414.217 428.961 413.987 428.3 414.002C426.595 414.041 421.303 414.119 419.532 414.16C418.812 414.177 418.126 414.461 417.606 414.959L414.313 419.887Z" fill="#F59AAD" stroke="#1E3749" stroke-width="1.5" stroke-miterlimit="10"/>
<path d="M318.027 304.166L315.88 308.201C315.31 309.272 314.982 310.455 314.92 311.666L311.823 372.455" stroke="#1E3749" stroke-width="1.5" stroke-miterlimit="10" stroke-linecap="round"/>
<path d="M440.31 294.348C437.337 275.636 429.545 264.433 426.497 260.649C425.756 259.729 424.636 259.2 423.453 259.2H407.467H407.167H391.18C389.997 259.2 388.877 259.729 388.137 260.649C385.089 264.433 377.297 275.637 374.323 294.348C374.317 294.387 374.313 294.422 374.311 294.461C374.217 295.866 372.542 324.53 385.506 409.099C385.594 409.677 386.093 410.108 386.679 410.108H395.809C396.397 410.108 396.897 409.682 396.981 409.101C397.825 403.354 402.034 372.548 405.983 305.079C406.019 304.453 406.539 303.959 407.167 303.959H407.466C408.094 303.959 408.614 304.453 408.65 305.079C412.599 372.549 416.807 403.354 417.652 409.101C417.737 409.682 418.236 410.108 418.824 410.108H427.954C428.539 410.108 429.039 409.677 429.127 409.099C442.091 324.53 440.416 295.866 440.322 294.461C440.32 294.422 440.316 294.387 440.31 294.348Z" fill="#7AB5E2" stroke="#1E3749" stroke-width="1.5" stroke-miterlimit="10"/>
<path d="M435.053 231.557L445.916 248.186C446.434 248.98 446.486 249.989 446.051 250.831L433.575 266.926C433.075 267.897 432.971 269.019 433.29 270.064C434.401 273.701 437.072 282.567 438.198 287.367C438.399 288.224 439.551 288.365 439.969 287.59C441.381 284.975 443.085 279.748 440.506 272.024C440.428 271.788 440.518 271.548 440.694 271.37C448.969 263.003 462.177 257.43 461.468 247.169C461.11 241.982 457.148 235.468 454.554 231.07C453.807 229.802 446.711 219.128 446.754 219.084C446.754 219.085 435.053 231.557 435.053 231.557Z" fill="#FDEEED" stroke="#1E3749" stroke-width="1.5" stroke-miterlimit="10"/>
<path d="M380.165 231.557L369.302 248.186C368.784 248.98 368.732 249.989 369.166 250.831L381.642 266.926C382.143 267.897 382.247 269.019 381.927 270.064C380.817 273.701 378.146 282.567 377.02 287.367C376.819 288.224 375.667 288.365 375.248 287.59C373.837 284.975 372.133 279.748 374.711 272.024C374.79 271.788 374.699 271.548 374.524 271.37C366.248 263.003 353.041 257.43 353.749 247.169C354.108 241.982 358.07 235.468 360.664 231.07C361.412 229.802 368.506 219.128 368.464 219.084C368.465 219.085 380.165 231.557 380.165 231.557Z" fill="#FDEEED" stroke="#1E3749" stroke-width="1.5" stroke-miterlimit="10"/>
<path d="M320.822 429.907C320.566 431.625 319.421 433.077 317.605 433.016L307.712 433.432C303.316 433.617 298.911 433.404 294.553 432.798L276.774 430.323C275.112 430.268 273.734 429.067 273.554 427.487C273.204 424.414 273.118 418.734 275.154 410.303C275.323 409.601 275.986 409.102 276.739 409.103L294.315 409.74C295.169 409.74 296.004 409.978 296.718 410.425L318.741 424.312C318.741 424.313 321.389 426.105 320.822 429.907Z" fill="#80B9E4" stroke="#1E3749" stroke-width="1.5" stroke-miterlimit="10"/>
<path d="M388.725 258.43L384.234 240.171C383.91 238.853 383.697 237.511 383.597 236.158L383.284 231.951C383.258 231.608 382.831 231.466 382.605 231.725L381.027 233.536C380.759 233.843 380.301 233.895 379.973 233.654C377.982 232.192 371.577 227.548 367.4 220.543C367.274 220.332 367.294 220.063 367.448 219.872C367.448 219.872 374.314 208.513 378.568 203.825C382.823 199.136 386.025 198.174 390.649 197.311L407.155 194.228C407.155 194.086 407.156 194.006 407.156 194.006L407.751 194.117L408.346 194.006C408.346 194.006 408.346 194.086 408.346 194.228L424.472 197.24C429.341 198.15 433.742 201.087 436.804 204.645C440.796 209.795 447.796 220.402 447.796 220.402C447.949 220.594 447.969 220.863 447.843 221.074C443.558 228.26 437.185 232.431 435.383 233.761C435.137 233.943 434.794 233.902 434.593 233.672L432.669 231.464C432.527 231.302 432.26 231.391 432.244 231.605L431.924 235.905C431.811 237.426 431.571 238.934 431.208 240.416L426.782 258.414C426.573 259.264 425.857 259.894 424.985 259.989C420.354 260.494 405.363 261.839 390.489 260.004C389.631 259.899 388.93 259.267 388.725 258.43Z" fill="#A8DBD2" stroke="#1E3749" stroke-width="1.5" stroke-miterlimit="10"/>
<path d="M296.797 380.416C296.797 380.416 285.096 380.903 276.631 379.355L277.252 387.095C277.252 387.095 286.16 389.041 296.31 386.077L296.797 380.416Z" fill="#EFC6A8"/>
<path opacity="0.5" d="M317.229 306.554L315.546 310.623L312.443 371.925C312.443 371.925 313.862 372.19 319.18 372.367C319.179 372.367 318.648 334.242 317.229 306.554Z" fill="#1B8273"/>
<path d="M375.57 141.999C375.77 132.977 382.885 132.001 386.418 132.641L388.877 134.691L386.108 153.627L383.658 154.127C378.171 155.247 377.499 150.621 377.849 148.168C376.194 146.057 375.64 143.176 375.57 141.999Z" fill="#F38087" stroke="#1E3749" stroke-width="1.5"/>
<path d="M386.995 133.567C388.373 132.117 390.218 133.273 390.968 134.032L392.341 135.2L384.901 151.445L382.535 150.161C379.8 149.438 379.68 147.309 379.962 146.336L381.304 143.472C379.873 142.801 380.359 141.516 380.602 140.873C381.068 139.753 382.008 138.319 382.499 137.571L382.499 137.571C383.112 136.636 384.163 136.256 385.098 136.869L386.995 133.567Z" fill="#EFD686" stroke="#1E3749" stroke-width="1.5"/>
<path d="M398.957 186.254V194.99C398.957 195.497 398.597 195.934 398.097 196.032L397.373 196.174C397.1 196.227 396.899 196.454 396.883 196.731C396.744 199.189 396.678 210.496 407.223 210.792C407.223 210.792 418.14 211.267 418.837 196.854C418.851 196.565 418.654 196.302 418.372 196.233L417.285 195.966C416.829 195.855 416.509 195.447 416.509 194.979V187.407C416.509 187.089 416.262 186.825 415.944 186.803L399.608 185.65C399.256 185.625 398.957 185.902 398.957 186.254Z" fill="#FDEEED" stroke="#1E3749" stroke-width="1.5" stroke-miterlimit="10"/>
<path d="M285.407 279.398C285.407 279.398 278.847 284.705 272.288 285.236" stroke="#1E3749" stroke-width="1.5" stroke-miterlimit="10" stroke-linecap="round"/>
<path d="M408.335 128.238C406.17 128.139 403.973 128.304 401.795 128.749C394.934 130.149 389.432 135.123 386.091 141.102C386.091 141.102 380.811 149.778 382.379 163.201C383.841 175.716 390.055 178.816 390.055 178.816L424.788 179.538C424.788 179.538 429.468 176.606 431.83 169.83C436.017 157.816 433.026 146.5 429.5 140.5C424.316 131.679 416.853 128.628 408.335 128.238Z" fill="#F38087" stroke="#1E3749" stroke-width="1.5" stroke-miterlimit="10"/>
<path d="M427.255 160.992C427.255 160.992 432.408 160.257 433.603 154.658" stroke="#1E3749" stroke-miterlimit="10" stroke-linecap="round"/>
<path d="M391.328 165.192L386.446 163.568C386.446 163.568 384.547 162.757 383.462 165.012C383.462 165.012 382.196 167.809 385.451 169.252L391.508 171.959L391.328 165.192Z" fill="#FDEEED" stroke="#1E3749" stroke-width="1.5" stroke-miterlimit="10"/>
<path d="M423.311 169.703L427.29 167.628C427.29 167.628 429.55 166.365 430.545 168.079C430.545 168.079 432.263 171.868 427.652 173.944L422.498 176.56L423.311 169.703Z" fill="#FDEEED" stroke="#1E3749" stroke-width="1.5" stroke-miterlimit="10"/>
<path d="M389.301 177.012C387.131 168.892 386.984 160.274 389.301 153C390.312 149.094 396.5 143 406.932 143C419.386 143 423.5 151.5 423.5 151.5C429.196 160.568 425.376 176.065 425.376 176.065C419 191.493 408.017 191.493 408.017 191.493C396 191.493 389.301 177.012 389.301 177.012Z" fill="#FDEEED" stroke="#1E3749" stroke-width="1.5" stroke-miterlimit="10"/>
<path d="M421.714 159.696C419.55 156.734 414.415 156.871 412.131 159.606" stroke="#EE6F81" stroke-width="1.5" stroke-miterlimit="10" stroke-linecap="round" stroke-linejoin="round"/>
<path d="M392.561 158.974C394.725 156.012 399.86 156.149 402.144 158.884" stroke="#EE6F81" stroke-width="1.5" stroke-miterlimit="10" stroke-linecap="round" stroke-linejoin="round"/>
<path d="M397.258 167.267C398.331 167.267 399.202 166.399 399.202 165.327C399.202 164.256 398.331 163.387 397.258 163.387C396.184 163.387 395.314 164.256 395.314 165.327C395.314 166.399 396.184 167.267 397.258 167.267Z" fill="#1E3749"/>
<path d="M416.606 167.718C417.68 167.718 418.55 166.85 418.55 165.778C418.55 164.707 417.68 163.838 416.606 163.838C415.533 163.838 414.662 164.707 414.662 165.778C414.662 166.85 415.533 167.718 416.606 167.718Z" fill="#1E3749"/>
<path d="M404.099 170.335C404.099 170.335 404.233 172.681 406.585 172.681C406.585 172.681 408.869 172.815 409.406 170.804" stroke="#1E3749" stroke-width="1.5" stroke-miterlimit="10" stroke-linecap="round" stroke-linejoin="round"/>
<path d="M400.997 176.368C403.363 176.418 409.936 176.528 413.336 176.326C413.884 176.293 414.337 176.736 414.315 177.284C414.235 179.352 413.577 183.822 407.874 184.276C407.874 184.276 400.571 184.678 400.165 177.247C400.139 176.767 400.516 176.359 400.997 176.368Z" fill="#DD596F"/>
<path d="M395.236 174.812C397.299 174.812 398.972 173.637 398.972 172.189C398.972 170.74 397.299 169.566 395.236 169.566C393.173 169.566 391.5 170.74 391.5 172.189C391.5 173.637 393.173 174.812 395.236 174.812Z" fill="#FCDCE3"/>
<path d="M419.234 174.812C421.297 174.812 422.97 173.637 422.97 172.189C422.97 170.74 421.297 169.566 419.234 169.566C417.171 169.566 415.498 170.74 415.498 172.189C415.498 173.637 417.171 174.812 419.234 174.812Z" fill="#FCDCE3"/>
<path d="M386.991 159.603C386.991 159.603 384.438 159.425 382.257 155.982" stroke="#1E3749" stroke-miterlimit="10" stroke-linecap="round"/>
<path d="M386.521 163.41C386.521 163.41 383.334 161.786 382.316 157.05" stroke="#1E3749" stroke-miterlimit="10" stroke-linecap="round"/>
<path d="M427.379 165.166C427.379 165.166 432.273 164.085 433.897 155.983" stroke="#1E3749" stroke-miterlimit="10" stroke-linecap="round"/>
<path d="M385.085 219.88C385.085 219.88 383.346 227.702 383.285 231.951" stroke="#1E3749" stroke-width="1.5" stroke-miterlimit="10" stroke-linecap="round"/>
<path d="M429.761 219.35C429.761 219.35 432.068 226.348 432.244 231.606" stroke="#1E3749" stroke-width="1.5" stroke-miterlimit="10" stroke-linecap="round"/>
<path d="M400.074 419.887C400.96 420.749 401.478 421.919 401.521 423.153L401.645 426.76C401.675 427.643 400.983 428.384 400.098 428.416L391.231 428.729H378.913C378.913 428.729 377.038 428.494 376.524 425.48C376.216 423.675 376.793 421.834 378.022 420.474C379.142 419.233 381.048 417.361 384.278 414.642C384.784 414.216 385.427 413.986 386.088 414.002C387.792 414.041 393.085 414.119 394.855 414.16C395.575 414.177 396.261 414.461 396.782 414.958L400.074 419.887Z" fill="#F59AAD" stroke="#1E3749" stroke-width="1.5" stroke-miterlimit="10"/>
<path d="M409.328 307.321C409.328 307.321 413.14 313.513 414.558 335.362C415.109 343.853 418.015 407.986 418.015 407.986C418.015 407.986 413.938 375.079 413.228 362.961C413.228 362.961 409.328 310.417 409.328 307.321Z" fill="#65AAD6"/>
<path d="M405.251 307.321C405.251 307.321 401.439 313.513 400.021 335.362C399.47 343.853 396.564 407.986 396.564 407.986C396.564 407.986 400.642 375.079 401.351 362.961C401.351 362.961 405.251 310.417 405.251 307.321Z" fill="#65AAD6"/>
<path d="M438.846 324.57C438.846 324.57 429.982 401.351 418.015 407.986L418.236 409.029C418.314 409.4 418.642 409.666 419.022 409.666H427.814C428.194 409.666 428.517 409.393 428.573 409.018C429.328 404.03 434.183 371.808 434.592 366.588C434.591 366.588 438.935 327.931 438.846 324.57Z" fill="#65AAD6"/>
<path d="M375.734 324.57C375.734 324.57 384.599 401.351 396.565 407.986L396.349 409.011C396.268 409.392 395.931 409.666 395.54 409.666H386.893C386.44 409.666 386.055 409.338 385.988 408.89C385.175 403.508 380.395 371.765 379.989 366.587C379.989 366.588 375.646 327.931 375.734 324.57Z" fill="#65AAD6"/>
<path d="M384.487 220.257C384.487 220.257 380.077 223.286 375.489 229.39C375.489 229.39 377.195 231.07 380.174 233.195C380.35 233.321 380.588 233.302 380.742 233.149L382.656 231.258C382.764 231.152 382.83 231.013 382.842 230.863C382.925 229.842 383.423 225.785 384.487 220.257Z" fill="#90C1B7"/>
<path d="M430.591 220.378C430.591 220.378 435.478 223.286 440.065 229.39C440.065 229.39 438.359 231.07 435.38 233.195C435.204 233.321 434.965 233.302 434.812 233.15L432.898 231.258C432.79 231.152 432.724 231.013 432.712 230.863C432.629 229.843 432.353 226.415 430.591 220.378Z" fill="#90C1B7"/>
<path d="M399.445 190V192.477C399.445 192.477 401.75 196.258 408.309 196.214C408.309 196.214 413.805 196.391 415.977 192.167V189.5C415.977 189.5 413 192 407.977 192.3C407.977 192.3 405 192.477 399.445 190Z" fill="#F6D6D2" style="mix-blend-mode:multiply"/>
<path d="M313.729 120.458C313.729 120.458 308.034 120.464 306.322 128.097" stroke="#74573C" stroke-width="2" stroke-miterlimit="10" stroke-linecap="round" stroke-linejoin="round"/>
<path d="M323.21 115.636C323.21 115.636 324.404 113.404 326.291 114.154" stroke="#74573C" stroke-width="2" stroke-miterlimit="10" stroke-linecap="round" stroke-linejoin="round"/>
<path d="M323.652 122.8C325.069 124.757 327.048 126.221 328.62 128.043C329.223 128.742 329.734 129.56 329.873 130.471C330.242 132.896 327.786 135.023 325.604 135.45" stroke="#1E3749" stroke-width="1.5" stroke-miterlimit="10" stroke-linecap="round" stroke-linejoin="round"/>
<path d="M314.222 130.588C313.34 131.015 312.252 130.591 311.792 129.642C311.332 128.693 311.674 127.578 312.556 127.151C313.438 126.725 314.526 127.149 314.986 128.098C315.446 129.047 315.104 130.162 314.222 130.588Z" fill="#1E3749"/>
<path d="M328.096 122.558C327.356 122.93 326.43 122.587 326.028 121.791C325.626 120.995 325.9 120.048 326.64 119.675C327.38 119.302 328.306 119.645 328.708 120.441C329.11 121.237 328.836 122.185 328.096 122.558Z" fill="#1E3749"/>
<path d="M307.497 110.879C307.497 110.879 320.78 110.866 326.124 105.787C326.124 105.787 330.436 101.423 326.041 95.7389C326.041 95.7389 324.608 93.6696 320.584 92.9344C320.584 92.9344 326.361 90.465 325.989 85.5167C325.861 83.8044 324.681 82.013 323.363 80.9959C320.848 79.0553 317.202 79.1331 314.329 80.1088C314.09 80.1895 313.854 80.2769 313.621 80.3705C310.764 81.5098 308.342 83.3737 305.935 85.2299C303.869 86.8234 301.754 88.3559 299.573 89.788C297.337 91.2562 295.016 92.6732 292.531 93.6841C290.845 94.3705 289.011 94.404 287.225 94.5731C285.275 94.7581 283.32 94.8724 281.362 94.9155C279.691 94.9527 278.212 95.091 276.722 95.8934C275.137 96.7477 273.822 98.0187 272.942 99.5945C271.889 101.483 271.572 103.739 271.893 105.867C272.182 107.788 273.104 109.27 274.061 110.916C274.046 110.891 271.962 113.201 271.842 113.371C270.624 115.092 270.066 116.948 270.322 119.06C270.753 122.625 272.557 125.474 274.56 128.366C278.335 133.816 281.813 139.579 287.223 143.599C287.223 143.599 294.216 148.402 296.99 147.553L297.028 145.843C297.028 145.843 297.24 144.164 295.73 143.527C293.62 142.855 291.226 142.549 289.61 140.893C288.625 139.884 287.259 137.928 288.534 136.629C289.525 135.62 291.471 135.592 292.677 136.161C293.835 136.706 294.839 137.571 295.74 138.467C295.74 138.467 297.976 140.592 300.893 139.95C300.893 139.95 302.387 139.681 300.038 137.173C295.936 132.791 290.601 125.506 293.482 119.229C295.822 114.131 302.022 110.885 307.497 110.879Z" fill="#A28B76" stroke="#1E3749" stroke-width="1.5" stroke-miterlimit="10" stroke-linejoin="round"/>
<path d="M294.918 131.765C296.079 133.53 297.989 135.667 299.644 137.425C300.967 138.844 300.828 139.326 300.822 139.345C300.816 139.35 300.756 139.399 300.739 139.411C300.737 139.412 300.736 139.413 300.734 139.413C298.096 139.991 296.034 138.07 296.014 138.051C295.227 137.266 294.146 136.275 292.827 135.65C291.617 135.079 289.755 135.047 288.548 135.883C288.402 135.984 288.266 136.097 288.141 136.225C286.973 137.405 287.372 139.248 289.213 141.151C290.568 142.532 292.374 143.025 294.12 143.5C294.597 143.631 295.072 143.76 295.535 143.907C296.642 144.378 296.514 145.657 296.507 145.712L296.473 147.091C294.191 147.351 289.245 144.366 287.447 143.132C282.05 139.125 279.403 134.292 275.689 128.931C273.522 125.801 271.329 122.609 270.944 119.432C270.855 118.702 270.924 117.826 271.041 117.146C271.04 117.143 279.82 132.341 294.918 131.765Z" fill="#896B52"/>
<path d="M312.127 93.739C311.092 93.7393 309.858 93.5413 308.98 92.9387C308.851 92.849 308.727 92.7435 308.648 92.6063C308.479 92.3095 308.283 91.8364 308.49 91.5246C308.937 90.8488 310.064 90.8281 310.768 90.6093C311.827 90.2799 312.857 89.8624 313.9 89.4837C314.855 89.1374 315.81 88.7946 316.764 88.4446C323.855 85.8418 323.207 82.1487 323.234 81.7605C323.808 82.3961 325.136 84.0769 325.284 85.1632C325.974 90.2047 319.951 92.6845 319.951 92.6845C319.951 92.6845 317.148 93.7362 312.127 93.739Z" fill="#896B52"/>
<path d="M227.338 333.684C228.132 342.932 227.592 366.051 203.807 373.258C202.011 373.802 200.077 373.035 199.19 371.375C196.616 366.561 193.056 355.477 202.92 340.439C202.92 340.439 211.68 326.933 221.914 328.068C224.826 328.39 227.087 330.753 227.338 333.684Z" fill="#ABDEE0"/>
<path d="M209.663 392.201C209.402 394.518 214.784 396.243 216.295 396.514C219.864 397.153 223.582 396.705 227.03 395.659C234.552 393.379 243.024 388.729 247.178 381.775C252.278 373.238 246.1 361.928 235.666 363.986C232.502 364.611 229.605 366.202 226.952 368.043C219.195 373.423 210.846 382.42 209.663 392.201Z" fill="#ABDEE0"/>
<path d="M199.551 431.327C199.551 431.327 194.811 374.721 210.827 350.793" stroke="#64C4BD" stroke-width="1.5" stroke-miterlimit="10" stroke-linecap="round"/>
<path d="M194.498 407.687C195.848 406.462 196.226 404.488 195.425 402.849L191.886 395.611C189.938 391.626 186.108 388.905 181.717 388.388L176.307 387.75C174.448 387.531 172.777 388.898 172.616 390.771L172.055 397.297C171.545 403.225 174.622 408.883 179.863 411.656L182.518 413.061C186.65 415.247 191.764 413.527 193.751 409.282L194.498 407.687Z" fill="#ABDEE0"/>
<path d="M221.364 385.564C221.364 385.564 199.508 397.188 198.829 410.824" stroke="#64C4BD" stroke-width="1.5" stroke-miterlimit="10" stroke-linecap="round"/>
<path d="M198.878 421.105C198.878 421.105 196.784 407.272 180.858 395.569" stroke="#64C4BD" stroke-width="1.5" stroke-miterlimit="10" stroke-linecap="round"/>
<path d="M86.6134 379.92C86.6182 379.494 85.1265 378.081 84.8703 377.719C83.3475 375.567 82.1157 373.202 81.1574 370.757C78.5592 364.131 77.0666 353.9 80.4202 347.331C81.6986 344.828 84.5216 342.87 87.2928 343.507C89.7105 344.062 91.371 346.421 91.8456 348.834C92.8367 353.871 90.4814 359.933 89.3647 364.846C88.261 369.696 86.67 374.908 86.6134 379.92Z" fill="#B1DEC6"/>
<path d="M87.2795 382.372C82.2682 376.238 74.9356 369.312 66.467 369.281C65.1268 369.277 63.7277 369.452 62.621 370.193C60.3832 371.693 60.1799 375.132 61.6496 377.398C64.8183 382.286 72.5793 382.947 77.818 382.599C81.0201 382.386 84.1961 382.332 87.2795 382.372Z" fill="#B1DEC6"/>
<path d="M87.4238 383.827C89.3762 373.963 95.2325 364.209 106.04 362.74C107.268 362.572 108.65 362.562 109.599 363.361C110.151 363.826 110.476 364.508 110.648 365.205C111.231 367.574 110.135 370.103 108.389 371.802C105.704 374.417 101.68 375.431 98.3878 377.133C96.3787 378.172 87.8184 381.833 87.4238 383.827Z" fill="#B1DEC6"/>
<path d="M88.0254 390.141C87.9854 390.119 94.1266 384.785 94.6074 384.472C98.9826 381.616 105.284 379.309 110.426 381.663C111.506 382.158 112.499 382.902 113.118 383.909C114.273 385.785 113.904 388.328 112.573 390.068C111.242 391.807 109.111 392.812 106.938 393.201C101.277 394.214 93.0874 392.868 88.0254 390.141Z" fill="#B1DEC6"/>
<path d="M88.3707 398.391C89.0504 399.051 93.9178 397.507 94.7646 397.338C99.4291 396.406 103.448 396.421 107.973 397.986C110.489 398.856 115.798 401.138 112.718 404.368C112.054 405.064 111.081 405.377 110.137 405.594C102.163 407.432 93.9837 404.053 88.3707 398.391Z" fill="#B1DEC6"/>
<path d="M87.5809 391.078C84.7584 389.52 81.4928 387.931 78.4199 386.883C75.5665 385.91 72.2428 385.576 69.2672 386.002C65.7014 386.513 60.3335 390.761 65.8692 393.221C71.3222 395.644 83.7758 396.901 87.5809 391.078Z" fill="#B1DEC6"/>
<path d="M88.7061 403.381C83.4231 398.413 72.7499 397.874 67.058 402.064C66.124 402.752 65.2441 403.608 64.9113 404.713C64.1108 407.378 67.066 408.626 69.154 409.028C75.1962 410.19 84.8737 408.686 88.7061 403.381Z" fill="#B1DEC6"/>
<path d="M85.7379 378.532C85.7379 378.532 85.9813 378.109 86.2941 378.542C88.34 381.367 89.3973 392.684 90.1957 405.857C90.1957 405.857 91.1934 422.874 90.9149 426.363L88.5298 426.321C88.5298 426.321 89.9652 405.154 85.7379 378.532Z" fill="#B1DEC6"/>
</svg>
